SplineFontDB: 3.2
FontName: IRYekan-Bold
FullName: IRYekan-Bold
FamilyName: IRYekan
Weight: Bold
Copyright: Copyright (c) 2022, Information Technology Organization of Iran (ito.gov.ir)
Version: 1.001
ItalicAngle: 0
UnderlinePosition: -100
UnderlineWidth: 60
Ascent: 1638
Descent: 410
InvalidEm: 0
sfntRevision: 0x00010042
LayerCount: 2
Layer: 0 1 "Back" 1
Layer: 1 1 "Fore" 0
XUID: [1021 420 722297922 13348534]
StyleMap: 0x0020
FSType: 0
OS2Version: 3
OS2_WeightWidthSlopeOnly: 0
OS2_UseTypoMetrics: 0
CreationTime: 1356426372
ModificationTime: 1662630986
PfmFamily: 17
TTFWeight: 700
TTFWidth: 5
LineGap: 100
VLineGap: 0
Panose: 2 0 8 3 0 0 0 2 0 2
OS2TypoAscent: 2616
OS2TypoAOffset: 0
OS2TypoDescent: -1334
OS2TypoDOffset: 0
OS2TypoLinegap: 1500
OS2WinAscent: 2616
OS2WinAOffset: 0
OS2WinDescent: 1334
OS2WinDOffset: 0
HheadAscent: 2616
HheadAOffset: 0
HheadDescent: -1334
HheadDOffset: 0
OS2SubXSize: 1434
OS2SubYSize: 1331
OS2SubXOff: 0
OS2SubYOff: 293
OS2SupXSize: 1434
OS2SupYSize: 1331
OS2SupXOff: 0
OS2SupYOff: 930
OS2StrikeYSize: 50
OS2StrikeYPos: 250
OS2CapHeight: 2625
OS2XHeight: 436
OS2FamilyClass: 2048
OS2Vendor: 'PARS'
OS2CodePages: 20000041.00000000
OS2UnicodeRanges: 00002003.00000000.00000000.00000000
Lookup: 1 1 0 "'isol' Isolated Forms in Arabic lookup 0" { "'isol' Isolated Forms in Arabic lookup 0 subtable"  } ['isol' ('arab' <'dflt' > ) ]
Lookup: 1 1 0 "'init' Initial Forms in Arabic lookup 1" { "'init' Initial Forms in Arabic lookup 1 subtable"  } ['init' ('arab' <'dflt' > ) ]
Lookup: 1 1 0 "'fina' Terminal Forms in Arabic lookup 2" { "'fina' Terminal Forms in Arabic lookup 2 subtable"  } ['fina' ('arab' <'dflt' > ) ]
Lookup: 1 1 0 "'medi' Medial Forms in Arabic lookup 3" { "'medi' Medial Forms in Arabic lookup 3 subtable"  } ['medi' ('arab' <'dflt' > ) ]
Lookup: 4 1 0 "'ccmp' Glyph Composition/Decomposition in Arabic lookup 4" { "'ccmp' Glyph Composition/Decomposition in Arabic lookup 4 subtable"  } ['ccmp' ('arab' <'dflt' > ) ]

StartChar: quotedbl
Encoding: 34 34 4
Width: 684
Flags: W
LayerCount: 2
Fore
SplineSet
90 1362 m 0,0,1
 90 1470 90 1470 174 1470 c 0,2,3
 207 1470 207 1470 229.5 1438.5 c 128,-1,4
 252 1407 252 1407 252 1372 c 0,5,6
 252 1202 252 1202 215 1030 c 1,7,-1
 135 1030 l 1,8,9
 90 1262 90 1262 90 1362 c 0,0,1
374 1354 m 0,10,11
 374 1395 374 1395 398.5 1432.5 c 128,-1,12
 423 1470 423 1470 462 1470 c 0,13,14
 534 1470 534 1470 534 1378 c 0,15,16
 534 1210 534 1210 493 1030 c 1,17,-1
 423 1030 l 1,18,19
 374 1241 374 1241 374 1354 c 0,10,11
EndSplineSet
EndChar

StartChar: quotesingle
Encoding: 39 39 5
Width: 586
Flags: W
LayerCount: 2
Fore
SplineSet
231 1393 m 0,0,1
 231 1474 231 1474 315 1474 c 0,2,3
 357 1472 357 1472 377.5 1448 c 128,-1,4
 398 1424 398 1424 398 1393 c 0,5,6
 398 1313 398 1313 377 1165.5 c 128,-1,7
 356 1018 356 1018 356 945 c 1,8,-1
 270 945 l 1,9,10
 270 1018 270 1018 250.5 1165.5 c 128,-1,11
 231 1313 231 1313 231 1393 c 0,0,1
EndSplineSet
EndChar

StartChar: asterisk
Encoding: 42 42 6
Width: 1126
Flags: W
LayerCount: 2
Fore
SplineSet
568 347 m 1,0,-1
 574 687 l 1,1,-1
 355 467 l 1,2,-1
 250 467 l 1,3,-1
 527 746 l 1,4,-1
 203 746 l 1,5,-1
 223 839 l 1,6,-1
 547 839 l 1,7,-1
 277 1104 l 1,8,-1
 370 1104 l 1,9,-1
 579 899 l 1,10,-1
 585 1199 l 1,11,-1
 704 1239 l 1,12,-1
 699 912 l 1,13,-1
 905 1104 l 1,14,-1
 1013 1104 l 1,15,-1
 730 839 l 1,16,-1
 1065 839 l 1,17,-1
 1043 746 l 1,18,-1
 729 746 l 1,19,-1
 1002 467 l 1,20,-1
 910 467 l 1,21,-1
 696 687 l 1,22,-1
 688 386 l 1,23,-1
 568 347 l 1,0,-1
EndSplineSet
EndChar

StartChar: plus
Encoding: 43 43 7
Width: 1253
GlyphClass: 2
Flags: W
LayerCount: 2
Fore
SplineSet
1149 578 m 1,0,-1
 707 578 l 1,1,-1
 707 141 l 1,2,-1
 547 141 l 1,3,-1
 547 578 l 1,4,-1
 109 578 l 1,5,-1
 109 745 l 1,6,-1
 547 745 l 1,7,-1
 547 1186 l 1,8,-1
 707 1186 l 1,9,-1
 707 745 l 1,10,-1
 1149 745 l 1,11,-1
 1149 578 l 1,0,-1
EndSplineSet
EndChar

StartChar: hyphen
Encoding: 45 45 8
Width: 1360
Flags: W
LayerCount: 2
Fore
SplineSet
182 721 m 1,0,-1
 1167 721 l 1,1,-1
 1167 573 l 1,2,-1
 182 573 l 1,3,-1
 182 721 l 1,0,-1
EndSplineSet
EndChar

StartChar: period
Encoding: 46 46 9
Width: 720
GlyphClass: 2
Flags: W
LayerCount: 2
Fore
SplineSet
612 197 m 256,0,1
 612 158 612 158 597 124 c 128,-1,2
 582 90 582 90 556 64.5 c 128,-1,3
 530 39 530 39 496.5 24.5 c 128,-1,4
 463 10 463 10 426 10 c 0,5,6
 348 10 348 10 295 64.5 c 128,-1,7
 242 119 242 119 242 197 c 0,8,9
 242 274 242 274 295 330.5 c 128,-1,10
 348 387 348 387 426 387 c 0,11,12
 463 387 463 387 496.5 371.5 c 128,-1,13
 530 356 530 356 556 329.5 c 128,-1,14
 582 303 582 303 597 269.5 c 128,-1,15
 612 236 612 236 612 197 c 256,0,1
EndSplineSet
EndChar

StartChar: slash
Encoding: 47 47 10
Width: 1032
Flags: W
LayerCount: 2
Fore
SplineSet
942 1185 m 1,0,-1
 285 -5 l 1,1,-1
 108 -5 l 1,2,-1
 757 1185 l 1,3,-1
 942 1185 l 1,0,-1
EndSplineSet
EndChar

StartChar: less
Encoding: 60 60 11
Width: 1117
Flags: W
LayerCount: 2
Fore
SplineSet
955 58 m 1,0,-1
 150 444 l 1,1,-1
 150 534 l 1,2,-1
 955 918 l 1,3,-1
 955 784 l 1,4,-1
 331 489 l 1,5,-1
 955 192 l 1,6,-1
 955 58 l 1,0,-1
EndSplineSet
EndChar

StartChar: equal
Encoding: 61 61 12
Width: 1200
Flags: W
LayerCount: 2
Fore
SplineSet
187 846 m 1,0,-1
 1042 846 l 1,1,-1
 1042 698 l 1,2,-1
 187 698 l 1,3,-1
 187 846 l 1,0,-1
187 530 m 1,4,-1
 1042 530 l 1,5,-1
 1042 382 l 1,6,-1
 187 382 l 1,7,-1
 187 530 l 1,4,-1
EndSplineSet
EndChar

StartChar: greater
Encoding: 62 62 13
Width: 1117
Flags: W
LayerCount: 2
Fore
SplineSet
966 444 m 1,0,-1
 160 58 l 1,1,-1
 160 192 l 1,2,-1
 786 489 l 1,3,-1
 160 784 l 1,4,-1
 160 918 l 1,5,-1
 966 534 l 1,6,-1
 966 444 l 1,0,-1
EndSplineSet
EndChar

StartChar: bracketleft
Encoding: 91 91 14
Width: 546
GlyphClass: 2
Flags: W
LayerCount: 2
Fore
SplineSet
116 1173 m 1,0,-1
 514 1173 l 1,1,-1
 514 996 l 1,2,-1
 331 996 l 1,3,-1
 331 -154 l 1,4,-1
 514 -154 l 1,5,-1
 514 -331 l 1,6,-1
 116 -331 l 1,7,-1
 116 1173 l 1,0,-1
EndSplineSet
EndChar

StartChar: bracketright
Encoding: 93 93 15
Width: 546
GlyphClass: 2
Flags: W
LayerCount: 2
Fore
SplineSet
430 -331 m 1,0,-1
 31 -331 l 1,1,-1
 31 -154 l 1,2,-1
 214 -154 l 1,3,-1
 214 998 l 1,4,-1
 31 998 l 1,5,-1
 31 1173 l 1,6,-1
 430 1173 l 1,7,-1
 430 -331 l 1,0,-1
EndSplineSet
EndChar

StartChar: braceleft
Encoding: 123 123 17
Width: 638
GlyphClass: 2
Flags: W
LayerCount: 2
Fore
SplineSet
47 519 m 1,0,1
 90 521 90 521 118 530 c 128,-1,2
 146 539 146 539 165 557 c 128,-1,3
 184 575 184 575 195.5 603 c 128,-1,4
 207 631 207 631 216 672 c 0,5,6
 220 690 220 690 221.5 723.5 c 128,-1,7
 223 757 223 757 223 805 c 0,8,9
 223 959 223 959 238 1021 c 0,10,11
 245 1052 245 1052 258.5 1076 c 128,-1,12
 272 1100 272 1100 290 1119 c 256,13,14
 308 1138 308 1138 336 1152.5 c 128,-1,15
 364 1167 364 1167 400 1178 c 0,16,17
 446 1193 446 1193 552 1193 c 2,18,-1
 594 1193 l 1,19,-1
 594 1001 l 1,20,21
 506 1001 506 1001 480 991 c 0,22,23
 456 982 456 982 444 960 c 0,24,25
 433 942 433 942 433 891 c 256,26,27
 433 840 433 840 424 699 c 0,28,29
 419 639 419 639 410.5 598 c 128,-1,30
 402 557 402 557 386.5 527 c 128,-1,31
 371 497 371 497 346 473.5 c 128,-1,32
 321 450 321 450 282 424 c 1,33,34
 318 403 318 403 343.5 379 c 128,-1,35
 369 355 369 355 386 321.5 c 128,-1,36
 403 288 403 288 412.5 242 c 128,-1,37
 422 196 422 196 426 133 c 0,38,39
 429 66 429 66 430 24.5 c 128,-1,40
 431 -17 431 -17 431 -36 c 0,41,42
 431 -63 431 -63 434.5 -81 c 128,-1,43
 438 -99 438 -99 444.5 -110.5 c 128,-1,44
 451 -122 451 -122 460.5 -129 c 128,-1,45
 470 -136 470 -136 483 -141 c 0,46,47
 509 -152 509 -152 594 -152 c 1,48,-1
 594 -344 l 1,49,-1
 552 -344 l 2,50,51
 498 -344 498 -344 457.5 -340 c 128,-1,52
 417 -336 417 -336 386.5 -327 c 128,-1,53
 356 -318 356 -318 332.5 -304 c 128,-1,54
 309 -290 309 -290 290 -270 c 0,55,56
 251 -231 251 -231 236 -172 c 0,57,58
 230 -143 230 -143 226.5 -96.5 c 128,-1,59
 223 -50 223 -50 223 13 c 0,60,61
 223 87 223 87 219.5 134.5 c 128,-1,62
 216 182 216 182 210 205 c 0,63,64
 202 237 202 237 189.5 259.5 c 128,-1,65
 177 282 177 282 157.5 296.5 c 128,-1,66
 138 311 138 311 111 318.5 c 128,-1,67
 84 326 84 326 47 328 c 1,68,-1
 47 519 l 1,0,1
EndSplineSet
EndChar

StartChar: bar
Encoding: 124 124 18
Width: 458
Flags: W
LayerCount: 2
Fore
SplineSet
141 1193 m 1,0,-1
 319 1193 l 1,1,-1
 319 -344 l 1,2,-1
 141 -344 l 1,3,-1
 141 1193 l 1,0,-1
EndSplineSet
EndChar

StartChar: asciitilde
Encoding: 126 126 19
Width: 746
Flags: W
LayerCount: 2
Fore
SplineSet
111 252 m 1,0,1
 161 448 161 448 298 448 c 0,2,3
 342 448 342 448 437 393 c 2,4,-1
 501 356 l 2,5,6
 580 311 580 311 621 311 c 0,7,8
 686 311 686 311 734 422 c 1,9,-1
 770 422 l 1,10,11
 714 234 714 234 580 234 c 0,12,13
 526 234 526 234 444 282 c 2,14,-1
 381 318 l 2,15,16
 291 370 291 370 261 370 c 0,17,18
 194 370 194 370 146 252 c 1,19,-1
 111 252 l 1,0,1
EndSplineSet
EndChar

StartChar: agrave
Encoding: 224 224 20
Width: 1075
Flags: W
LayerCount: 2
Fore
SplineSet
741 331 m 1,0,1
 720 266 720 266 690.5 213 c 128,-1,2
 661 160 661 160 626 114 c 0,3,4
 519 -19 519 -19 400 -19 c 0,5,6
 208 -19 208 -19 159 214 c 0,7,8
 133 334 133 334 157 451 c 128,-1,9
 181 568 181 568 252 683 c 0,10,11
 325 801 325 801 433 860 c 128,-1,12
 541 919 541 919 684 919 c 0,13,14
 712 919 712 919 746 918.5 c 128,-1,15
 780 918 780 918 815.5 916 c 128,-1,16
 851 914 851 914 886 912 c 128,-1,17
 921 910 921 910 952 908 c 1,18,-1
 946 646 l 1,19,-1
 946 647 l 1,20,-1
 950 254 l 2,21,22
 952 209 952 209 954.5 179.5 c 128,-1,23
 957 150 957 150 958 139 c 0,24,25
 961 114 961 114 985 114 c 0,26,27
 1053 114 1053 114 1214 346 c 1,28,-1
 1218 179 l 1,29,30
 1073 -19 1073 -19 925 -19 c 0,31,32
 785 -19 785 -19 753 126 c 0,33,34
 749 146 749 146 747 182 c 128,-1,35
 745 218 745 218 745 264 c 2,36,-1
 741 331 l 1,0,1
737 758 m 1,37,38
 688 775 688 775 647 783.5 c 128,-1,39
 606 792 606 792 561 792 c 0,40,41
 497 792 497 792 453.5 749.5 c 128,-1,42
 410 707 410 707 387 625 c 0,43,44
 362 522 362 522 357 425 c 128,-1,45
 352 328 352 328 368 248 c 0,46,47
 388 146 388 146 437 146 c 0,48,49
 493 146 493 146 589 280 c 0,50,51
 637 352 637 352 674 430 c 128,-1,52
 711 508 711 508 739 599 c 1,53,-1
 737 758 l 1,37,38
EndSplineSet
EndChar

StartChar: ocircumflex.001
Encoding: 65539 -1 26
Width: 1112
Flags: W
LayerCount: 2
Fore
SplineSet
416 -19 m 0,0,1
 301 -19 301 -19 205 70 c 0,2,3
 110 160 110 160 85 288 c 0,4,5
 32 528 32 528 170 726 c 0,6,7
 307 928 307 928 522 928 c 0,8,9
 643 928 643 928 742 842 c 1,10,11
 837 753 837 753 864 626 c 0,12,13
 890 499 890 499 869 388.5 c 128,-1,14
 848 278 848 278 781 179 c 0,15,16
 711 79 711 79 619.5 30 c 128,-1,17
 528 -19 528 -19 416 -19 c 0,0,1
483 98 m 0,18,19
 536 98 536 98 573.5 133 c 128,-1,20
 611 168 611 168 637 236 c 0,21,22
 665 310 665 310 668.5 393.5 c 128,-1,23
 672 477 672 477 652 574 c 0,24,25
 602 813 602 813 466 813 c 0,26,27
 365 813 365 813 313 670 c 0,28,29
 284 595 284 595 281 510.5 c 128,-1,30
 278 426 278 426 298 332 c 0,31,32
 324 213 324 213 370 155.5 c 128,-1,33
 416 98 416 98 483 98 c 0,18,19
EndSplineSet
EndChar

StartChar: dagger
Encoding: 8224 8224 30
Width: 932
Flags: W
LayerCount: 2
Fore
SplineSet
347 -231 m 1,0,-1
 567 622 l 1,1,-1
 248 592 l 1,2,-1
 297 700 l 1,3,-1
 576 668 l 1,4,-1
 607 1066 l 1,5,-1
 755 1093 l 1,6,-1
 621 668 l 1,7,-1
 941 700 l 1,8,-1
 895 592 l 1,9,-1
 612 622 l 1,10,-1
 496 -213 l 1,11,-1
 347 -231 l 1,0,-1
EndSplineSet
EndChar

StartChar: degree
Encoding: 176 176 31
Width: 409
Flags: W
LayerCount: 2
Fore
SplineSet
395 844 m 0,0,1
 344 844 344 844 307.5 880 c 128,-1,2
 271 916 271 916 271 968 c 0,3,4
 271 1021 271 1021 307.5 1057 c 128,-1,5
 344 1093 344 1093 395 1093 c 0,6,7
 447 1093 447 1093 483 1057 c 128,-1,8
 519 1021 519 1021 519 968 c 0,9,10
 519 916 519 916 483 880 c 128,-1,11
 447 844 447 844 395 844 c 0,0,1
395 888 m 256,12,13
 427 888 427 888 450.5 912 c 128,-1,14
 474 936 474 936 474 968 c 256,15,16
 474 1000 474 1000 450.5 1024 c 128,-1,17
 427 1048 427 1048 395 1048 c 256,18,19
 363 1048 363 1048 339 1024 c 128,-1,20
 315 1000 315 1000 315 968 c 256,21,22
 315 936 315 936 339 912 c 128,-1,23
 363 888 363 888 395 888 c 256,12,13
EndSplineSet
EndChar

StartChar: bullet
Encoding: 8226 8226 32
Width: 931
Flags: W
LayerCount: 2
Fore
SplineSet
817 662 m 256,0,1
 817 517 817 517 713.5 414 c 128,-1,2
 610 311 610 311 465 311 c 256,3,4
 320 311 320 311 217 414 c 128,-1,5
 114 517 114 517 114 662 c 256,6,7
 114 807 114 807 217 910 c 128,-1,8
 320 1013 320 1013 465 1013 c 256,9,10
 610 1013 610 1013 713.5 910 c 128,-1,11
 817 807 817 807 817 662 c 256,0,1
EndSplineSet
EndChar

StartChar: registered
Encoding: 174 174 33
Width: 897
Flags: W
LayerCount: 2
Fore
SplineSet
580 445 m 0,0,1
 448 445 448 445 354.5 538.5 c 128,-1,2
 261 632 261 632 261 764 c 256,3,4
 261 896 261 896 354.5 990 c 128,-1,5
 448 1084 448 1084 580 1084 c 0,6,7
 714 1084 714 1084 807 990 c 128,-1,8
 900 896 900 896 900 764 c 256,9,10
 900 632 900 632 806.5 538.5 c 128,-1,11
 713 445 713 445 580 445 c 0,0,1
580 484 m 0,12,13
 695 484 695 484 777.5 567 c 128,-1,14
 860 650 860 650 860 764 c 256,15,16
 860 878 860 878 777.5 961 c 128,-1,17
 695 1044 695 1044 580 1044 c 0,18,19
 466 1044 466 1044 383.5 961 c 128,-1,20
 301 878 301 878 301 764 c 256,21,22
 301 650 301 650 383.5 567 c 128,-1,23
 466 484 466 484 580 484 c 0,12,13
529 737 m 1,24,-1
 501 596 l 1,25,-1
 394 596 l 1,26,-1
 403 639 l 1,27,-1
 456 639 l 1,28,-1
 511 915 l 1,29,-1
 458 915 l 1,30,-1
 466 959 l 1,31,-1
 598 959 l 2,32,33
 751 959 751 959 751 875 c 0,34,35
 751 800 751 800 650 750 c 1,36,-1
 685 639 l 1,37,-1
 747 639 l 1,38,-1
 738 596 l 1,39,-1
 641 596 l 1,40,-1
 591 737 l 1,41,-1
 529 737 l 1,24,-1
538 782 m 1,42,-1
 574 782 l 2,43,44
 697 782 697 782 697 866 c 0,45,46
 697 915 697 915 607 915 c 2,47,-1
 564 915 l 1,48,-1
 538 782 l 1,42,-1
EndSplineSet
EndChar

StartChar: copyright
Encoding: 169 169 34
Width: 1244
Flags: W
LayerCount: 2
Fore
SplineSet
725 -27 m 0,0,1
 495 -27 495 -27 330.5 137 c 128,-1,2
 166 301 166 301 166 533 c 256,3,4
 166 765 166 765 330.5 929 c 128,-1,5
 495 1093 495 1093 725 1093 c 0,6,7
 958 1093 958 1093 1122 929 c 128,-1,8
 1286 765 1286 765 1286 533 c 256,9,10
 1286 301 1286 301 1122 137 c 128,-1,11
 958 -27 958 -27 725 -27 c 0,0,1
725 18 m 0,12,13
 939 18 939 18 1090 169 c 128,-1,14
 1241 320 1241 320 1241 533 c 256,15,16
 1241 746 1241 746 1090 897 c 128,-1,17
 939 1048 939 1048 725 1048 c 0,18,19
 513 1048 513 1048 362 897 c 128,-1,20
 211 746 211 746 211 533 c 256,21,22
 211 320 211 320 362 169 c 128,-1,23
 513 18 513 18 725 18 c 0,12,13
890 246 m 1,24,25
 785 213 785 213 704 213 c 0,26,27
 580 213 580 213 508 279.5 c 128,-1,28
 436 346 436 346 436 462 c 0,29,30
 436 625 436 625 541 734.5 c 128,-1,31
 646 844 646 844 805 844 c 0,32,33
 896 844 896 844 1003 814 c 1,34,-1
 967 675 l 1,35,-1
 915 684 l 1,36,-1
 923 766 l 1,37,38
 854 798 854 798 792 798 c 0,39,40
 688 798 688 798 616 700 c 128,-1,41
 544 602 544 602 544 462 c 0,42,43
 544 271 544 271 722 271 c 0,44,45
 823 271 823 271 902 307 c 1,46,-1
 890 246 l 1,24,25
EndSplineSet
EndChar

StartChar: trademark
Encoding: 8482 8482 35
Width: 1333
Flags: W
LayerCount: 2
Fore
SplineSet
440 1021 m 1,0,-1
 307 1021 l 1,1,-1
 288 923 l 1,2,-1
 225 923 l 1,3,-1
 254 1066 l 1,4,-1
 751 1066 l 1,5,-1
 723 923 l 1,6,-1
 661 923 l 1,7,-1
 679 1021 l 1,8,-1
 546 1021 l 1,9,-1
 456 569 l 1,10,-1
 554 569 l 1,11,-1
 545 524 l 1,12,-1
 243 524 l 1,13,-1
 253 569 l 1,14,-1
 350 569 l 1,15,-1
 440 1021 l 1,0,-1
1011 569 m 1,16,-1
 942 956 l 1,17,-1
 857 524 l 1,18,-1
 688 524 l 1,19,-1
 697 569 l 1,20,-1
 794 569 l 1,21,-1
 884 1021 l 1,22,-1
 787 1021 l 1,23,-1
 796 1066 l 1,24,-1
 1036 1066 l 1,25,-1
 1092 747 l 1,26,-1
 1265 1066 l 1,27,-1
 1481 1066 l 1,28,-1
 1473 1021 l 1,29,-1
 1375 1021 l 1,30,-1
 1285 569 l 1,31,-1
 1383 569 l 1,32,-1
 1373 524 l 1,33,-1
 1178 524 l 1,34,-1
 1270 985 l 1,35,-1
 1041 569 l 1,36,-1
 1011 569 l 1,16,-1
EndSplineSet
EndChar

StartChar: logicalnot
Encoding: 172 172 39
Width: 932
Flags: W
LayerCount: 2
Fore
SplineSet
177 510 m 1,0,-1
 193 590 l 1,1,-1
 975 590 l 1,2,-1
 906 248 l 1,3,-1
 814 248 l 1,4,-1
 866 510 l 1,5,-1
 177 510 l 1,0,-1
EndSplineSet
EndChar

StartChar: florin
Encoding: 402 402 40
Width: 679
Flags: W
LayerCount: 2
Fore
SplineSet
158 -231 m 1,0,-1
 210 -18 l 1,1,-1
 286 364 l 1,2,-1
 108 364 l 1,3,-1
 117 409 l 1,4,-1
 294 409 l 1,5,-1
 298 427 l 2,6,7
 330 586 330 586 463 692.5 c 128,-1,8
 596 799 596 799 761 799 c 0,9,10
 818 799 818 799 860 784 c 1,11,-1
 764 678 l 1,12,13
 712 729 712 729 643 729 c 0,14,15
 500 729 500 729 457 512 c 2,16,-1
 436 409 l 1,17,-1
 623 409 l 1,18,-1
 614 364 l 1,19,-1
 427 364 l 1,20,-1
 313 -213 l 1,21,-1
 158 -231 l 1,0,-1
EndSplineSet
EndChar

StartChar: ellipsis
Encoding: 8230 8230 41
Width: 1827
Flags: W
LayerCount: 2
Fore
SplineSet
758 113 m 0,0,1
 758 144 758 144 809.5 245.5 c 128,-1,2
 861 347 861 347 876 355 c 0,3,4
 907 369 907 369 964.5 307.5 c 128,-1,5
 1022 246 1022 246 1026 211 c 1,6,7
 1026 166 1026 166 977.5 79.5 c 128,-1,8
 929 -7 929 -7 908 -7 c 0,9,10
 899 -7 899 -7 851 26.5 c 128,-1,11
 803 60 803 60 778 79 c 0,12,13
 758 96 758 96 758 113 c 0,0,1
1308 113 m 0,14,15
 1308 144 1308 144 1359 245.5 c 128,-1,16
 1410 347 1410 347 1426 355 c 0,17,18
 1457 369 1457 369 1514.5 307.5 c 128,-1,19
 1572 246 1572 246 1575 211 c 0,20,21
 1575 166 1575 166 1527 79.5 c 128,-1,22
 1479 -7 1479 -7 1458 -7 c 0,23,24
 1449 -7 1449 -7 1401 26.5 c 128,-1,25
 1353 60 1353 60 1328 79 c 0,26,27
 1308 96 1308 96 1308 113 c 0,14,15
211 113 m 0,28,29
 211 144 211 144 262 245.5 c 128,-1,30
 313 347 313 347 329 355 c 0,31,32
 360 369 360 369 417.5 307.5 c 128,-1,33
 475 246 475 246 478 211 c 0,34,35
 478 166 478 166 430 79.5 c 128,-1,36
 382 -7 382 -7 361 -7 c 0,37,38
 352 -7 352 -7 304 26.5 c 128,-1,39
 256 60 256 60 231 79 c 0,40,41
 211 96 211 96 211 113 c 0,28,29
EndSplineSet
EndChar

StartChar: endash
Encoding: 8211 8211 42
Width: 434
Flags: W
LayerCount: 2
Fore
SplineSet
434 154 m 1,0,-1
 0 154 l 1,1,-1
 0 234 l 1,2,-1
 434 234 l 1,3,-1
 434 154 l 1,0,-1
EndSplineSet
EndChar

StartChar: emdash
Encoding: 8212 8212 43
Width: 1862
Flags: W
LayerCount: 2
Fore
SplineSet
1866 572 m 1,0,-1
 -4 572 l 1,1,-1
 -4 732 l 1,2,-1
 1866 732 l 1,3,-1
 1866 572 l 1,0,-1
EndSplineSet
EndChar

StartChar: quotedblleft
Encoding: 8220 8220 44
Width: 797
Flags: W
LayerCount: 2
Fore
SplineSet
418 1204 m 0,0,1
 422 1296 422 1296 483.5 1385.5 c 128,-1,2
 545 1475 545 1475 621 1511 c 1,3,-1
 664 1427 l 1,4,5
 643 1415 643 1415 612.5 1381.5 c 128,-1,6
 582 1348 582 1348 565 1296 c 1,7,8
 657 1255 657 1255 655 1180 c 0,9,10
 655 1157 655 1157 646 1136 c 128,-1,11
 637 1115 637 1115 621 1099 c 128,-1,12
 605 1083 605 1083 584.5 1074 c 128,-1,13
 564 1065 564 1065 541 1065 c 0,14,15
 512 1065 512 1065 489.5 1077.5 c 128,-1,16
 467 1090 467 1090 451 1109.5 c 128,-1,17
 435 1129 435 1129 426.5 1154 c 128,-1,18
 418 1179 418 1179 418 1204 c 0,0,1
111 1204 m 0,19,20
 115 1296 115 1296 176.5 1385.5 c 128,-1,21
 238 1475 238 1475 313 1511 c 1,22,-1
 356 1427 l 1,23,24
 336 1415 336 1415 305 1381.5 c 128,-1,25
 274 1348 274 1348 258 1296 c 1,26,27
 350 1255 350 1255 348 1180 c 0,28,29
 348 1157 348 1157 338.5 1136 c 128,-1,30
 329 1115 329 1115 313.5 1099 c 128,-1,31
 298 1083 298 1083 277 1074 c 128,-1,32
 256 1065 256 1065 233 1065 c 0,33,34
 205 1065 205 1065 182.5 1077.5 c 128,-1,35
 160 1090 160 1090 144 1109.5 c 128,-1,36
 128 1129 128 1129 119.5 1154 c 128,-1,37
 111 1179 111 1179 111 1204 c 0,19,20
EndSplineSet
EndChar

StartChar: quotedblright
Encoding: 8221 8221 45
Width: 750
Flags: W
LayerCount: 2
Fore
SplineSet
356 1376 m 0,0,1
 354 1284 354 1284 292.5 1195 c 128,-1,2
 231 1106 231 1106 154 1069 c 1,3,-1
 111 1151 l 1,4,5
 133 1163 133 1163 164 1197 c 128,-1,6
 195 1231 195 1231 209 1284 c 1,7,8
 117 1323 117 1323 121 1401 c 0,9,10
 121 1424 121 1424 130 1444.5 c 128,-1,11
 139 1465 139 1465 154 1480 c 128,-1,12
 169 1495 169 1495 189.5 1504 c 128,-1,13
 210 1513 210 1513 233 1513 c 0,14,15
 262 1513 262 1513 285 1501 c 128,-1,16
 308 1489 308 1489 323.5 1470 c 128,-1,17
 339 1451 339 1451 347.5 1426 c 128,-1,18
 356 1401 356 1401 356 1376 c 0,0,1
664 1376 m 0,19,20
 662 1284 662 1284 600.5 1195 c 128,-1,21
 539 1106 539 1106 461 1069 c 1,22,-1
 418 1151 l 1,23,24
 440 1163 440 1163 471 1197 c 128,-1,25
 502 1231 502 1231 516 1284 c 1,26,27
 424 1323 424 1323 428 1401 c 0,28,29
 428 1424 428 1424 437 1444.5 c 128,-1,30
 446 1465 446 1465 461.5 1480 c 128,-1,31
 477 1495 477 1495 497.5 1504 c 128,-1,32
 518 1513 518 1513 541 1513 c 0,33,34
 570 1513 570 1513 593 1501 c 128,-1,35
 616 1489 616 1489 631.5 1470 c 128,-1,36
 647 1451 647 1451 655.5 1426 c 128,-1,37
 664 1401 664 1401 664 1376 c 0,19,20
EndSplineSet
EndChar

StartChar: divide
Encoding: 247 247 46
Width: 1218
Flags: W
LayerCount: 2
Fore
SplineSet
721 934 m 1,0,-1
 507 934 l 1,1,-1
 507 1140 l 1,2,-1
 721 1140 l 1,3,-1
 721 934 l 1,0,-1
1050 568 m 1,4,-1
 167 568 l 1,5,-1
 167 723 l 1,6,-1
 1050 723 l 1,7,-1
 1050 568 l 1,4,-1
721 152 m 1,8,-1
 507 152 l 1,9,-1
 507 358 l 1,10,-1
 721 358 l 1,11,-1
 721 152 l 1,8,-1
EndSplineSet
EndChar

StartChar: lozenge
Encoding: 9674 9674 47
Width: 1118
Flags: W
LayerCount: 2
Fore
SplineSet
1003 699 m 1,0,-1
 560 197 l 1,1,-1
 117 699 l 1,2,-1
 560 1202 l 1,3,-1
 1003 699 l 1,0,-1
848 699 m 1,4,-1
 560 1036 l 1,5,-1
 271 699 l 1,6,-1
 560 364 l 1,7,-1
 848 699 l 1,4,-1
EndSplineSet
EndChar

StartChar: fraction
Encoding: 8260 8260 48
Width: 742
Flags: W
LayerCount: 2
Fore
SplineSet
740 1101 m 1,0,-1
 101 -82 l 1,1,-1
 -9 -82 l 1,2,-1
 629 1101 l 1,3,-1
 740 1101 l 1,0,-1
EndSplineSet
EndChar

StartChar: guilsinglleft
Encoding: 8249 8249 49
Width: 1117
Flags: W
LayerCount: 2
Fore
SplineSet
955 58 m 1,0,-1
 150 444 l 1,1,-1
 150 534 l 1,2,-1
 955 918 l 1,3,-1
 955 784 l 1,4,-1
 331 489 l 1,5,-1
 955 192 l 1,6,-1
 955 58 l 1,0,-1
EndSplineSet
EndChar

StartChar: daggerdbl
Encoding: 8225 8225 52
Width: 932
Flags: W
LayerCount: 2
Fore
SplineSet
349 -231 m 1,0,-1
 481 185 l 1,1,-1
 161 154 l 1,2,-1
 211 261 l 1,3,-1
 490 229 l 1,4,-1
 567 616 l 1,5,-1
 247 586 l 1,6,-1
 297 693 l 1,7,-1
 575 661 l 1,8,-1
 608 1066 l 1,9,-1
 758 1093 l 1,10,-1
 620 661 l 1,11,-1
 940 693 l 1,12,-1
 889 586 l 1,13,-1
 611 616 l 1,14,-1
 535 229 l 1,15,-1
 855 261 l 1,16,-1
 804 154 l 1,17,-1
 525 185 l 1,18,-1
 499 -213 l 1,19,-1
 349 -231 l 1,0,-1
EndSplineSet
EndChar

StartChar: middot.001
Encoding: 8729 8729 53
Width: 620
Flags: W
LayerCount: 2
Fore
SplineSet
429 516 m 1,0,-1
 190 516 l 1,1,-1
 190 789 l 1,2,-1
 429 789 l 1,3,-1
 429 516 l 1,0,-1
EndSplineSet
EndChar

StartChar: quotesinglbase
Encoding: 8218 8218 54
Width: 418
Flags: W
LayerCount: 2
Fore
SplineSet
103 128 m 1,0,-1
 247 231 l 1,1,-1
 353 90 l 1,2,3
 345 -56 345 -56 262.5 -134.5 c 128,-1,4
 180 -213 180 -213 36 -213 c 1,5,-1
 76 -168 l 1,6,7
 189 -158 189 -158 211 -18 c 1,8,-1
 103 128 l 1,0,-1
EndSplineSet
EndChar

StartChar: quotedblbase
Encoding: 8222 8222 55
Width: 684
Flags: W
LayerCount: 2
Fore
SplineSet
91 92 m 1,0,-1
 204 178 l 1,1,-1
 292 64 l 1,2,3
 270 -213 270 -213 31 -213 c 1,4,-1
 60 -168 l 1,5,6
 166 -148 166 -148 179 -16 c 1,7,-1
 91 92 l 1,0,-1
401 92 m 1,8,-1
 516 178 l 1,9,-1
 602 64 l 1,10,11
 581 -213 581 -213 341 -213 c 1,12,-1
 372 -168 l 1,13,14
 476 -148 476 -148 490 -16 c 1,15,-1
 401 92 l 1,8,-1
EndSplineSet
EndChar

StartChar: perthousand
Encoding: 8240 8240 56
Width: 1571
Flags: W
LayerCount: 2
Fore
SplineSet
385 533 m 0,0,1
 304 533 304 533 254.5 584.5 c 128,-1,2
 205 636 205 636 205 722 c 0,3,4
 205 865 205 865 286.5 965.5 c 128,-1,5
 368 1066 368 1066 483 1066 c 0,6,7
 567 1066 567 1066 617.5 1014.5 c 128,-1,8
 668 963 668 963 668 877 c 0,9,10
 668 733 668 733 585.5 633 c 128,-1,11
 503 533 503 533 385 533 c 0,0,1
311 715 m 0,12,13
 311 578 311 578 398 578 c 0,14,15
 463 578 463 578 517 671.5 c 128,-1,16
 571 765 571 765 571 881 c 0,17,18
 571 1022 571 1022 483 1022 c 0,19,20
 416 1022 416 1022 363.5 928 c 128,-1,21
 311 834 311 834 311 715 c 0,12,13
850 0 m 0,22,23
 769 0 769 0 719.5 51.5 c 128,-1,24
 670 103 670 103 670 189 c 0,25,26
 670 331 670 331 751 432 c 128,-1,27
 832 533 832 533 947 533 c 0,28,29
 1031 533 1031 533 1081.5 481.5 c 128,-1,30
 1132 430 1132 430 1132 344 c 0,31,32
 1132 200 1132 200 1049.5 100 c 128,-1,33
 967 0 967 0 850 0 c 0,22,23
776 182 m 0,34,35
 776 44 776 44 862 44 c 0,36,37
 929 44 929 44 982 138 c 128,-1,38
 1035 232 1035 232 1035 348 c 0,39,40
 1035 490 1035 490 948 490 c 0,41,42
 880 490 880 490 828 395.5 c 128,-1,43
 776 301 776 301 776 182 c 0,34,35
131 -27 m 1,44,-1
 1111 1093 l 1,45,-1
 1206 1093 l 1,46,-1
 225 -27 l 1,47,-1
 131 -27 l 1,44,-1
1376 0 m 0,48,49
 1294 0 1294 0 1244.5 51.5 c 128,-1,50
 1195 103 1195 103 1195 189 c 0,51,52
 1195 331 1195 331 1276.5 432 c 128,-1,53
 1358 533 1358 533 1473 533 c 0,54,55
 1557 533 1557 533 1607.5 481.5 c 128,-1,56
 1658 430 1658 430 1658 344 c 0,57,58
 1658 200 1658 200 1575.5 100 c 128,-1,59
 1493 0 1493 0 1376 0 c 0,48,49
1301 183 m 0,60,61
 1301 44 1301 44 1389 44 c 0,62,63
 1453 44 1453 44 1507 138 c 128,-1,64
 1561 232 1561 232 1561 347 c 0,65,66
 1561 490 1561 490 1473 490 c 0,67,68
 1406 490 1406 490 1353.5 395.5 c 128,-1,69
 1301 301 1301 301 1301 183 c 0,60,61
EndSplineSet
EndChar

StartChar: multiply
Encoding: 215 215 60
Width: 1267
Flags: W
LayerCount: 2
Fore
SplineSet
935 235 m 1,0,-1
 622 548 l 1,1,-1
 313 239 l 1,2,-1
 200 352 l 1,3,-1
 509 661 l 1,4,-1
 199 971 l 1,5,-1
 317 1089 l 1,6,-1
 627 779 l 1,7,-1
 939 1091 l 1,8,-1
 1052 978 l 1,9,-1
 740 666 l 1,10,-1
 1053 353 l 1,11,-1
 935 235 l 1,0,-1
EndSplineSet
EndChar

StartChar: macron
Encoding: 175 175 61
Width: 1118
Flags: W
LayerCount: 2
Fore
SplineSet
1134 1259 m 1,0,-1
 -16 1259 l 1,1,-1
 -16 1389 l 1,2,-1
 1134 1389 l 1,3,-1
 1134 1259 l 1,0,-1
EndSplineSet
EndChar

StartChar: periodcentered
Encoding: 183 183 62
Width: 724
Flags: W
LayerCount: 2
Fore
SplineSet
482 832 m 1,0,-1
 243 832 l 1,1,-1
 243 1117 l 1,2,-1
 482 1117 l 1,3,-1
 482 832 l 1,0,-1
EndSplineSet
EndChar

StartChar: H22073
Encoding: 9633 9633 63
Width: 1237
Flags: W
LayerCount: 2
Fore
SplineSet
146 944 m 1,0,-1
 1090 944 l 1,1,-1
 1090 0 l 1,2,-1
 146 0 l 1,3,-1
 146 944 l 1,0,-1
222 868 m 1,4,-1
 222 76 l 1,5,-1
 1014 76 l 1,6,-1
 1014 868 l 1,7,-1
 222 868 l 1,4,-1
EndSplineSet
EndChar

StartChar: H18543
Encoding: 9642 9642 64
Width: 1089
Flags: W
LayerCount: 2
Fore
SplineSet
886 894 m 1,0,-1
 886 200 l 1,1,-1
 192 200 l 1,2,-1
 192 894 l 1,3,-1
 886 894 l 1,0,-1
EndSplineSet
EndChar

StartChar: H18551
Encoding: 9643 9643 65
Width: 1089
Flags: W
LayerCount: 2
Fore
SplineSet
888 930 m 1,0,-1
 888 235 l 1,1,-1
 193 235 l 1,2,-1
 193 930 l 1,3,-1
 888 930 l 1,0,-1
774 816 m 1,4,-1
 307 816 l 1,5,-1
 307 349 l 1,6,-1
 774 349 l 1,7,-1
 774 816 l 1,4,-1
EndSplineSet
EndChar

StartChar: H18533
Encoding: 9679 9679 66
Width: 1339
Flags: W
LayerCount: 2
Fore
SplineSet
204 775 m 0,0,1
 204 976 204 976 345 1117 c 128,-1,2
 486 1258 486 1258 685 1258 c 0,3,4
 885 1258 885 1258 1026 1117 c 128,-1,5
 1167 976 1167 976 1167 775 c 0,6,7
 1167 577 1167 577 1026 436 c 128,-1,8
 885 295 885 295 685 295 c 0,9,10
 486 295 486 295 345 436 c 128,-1,11
 204 577 204 577 204 775 c 0,0,1
EndSplineSet
EndChar

StartChar: openbullet
Encoding: 9702 9702 67
Width: 1089
Flags: W
LayerCount: 2
Fore
SplineSet
544 1392 m 0,0,1
 700 1392 700 1392 810.5 1281.5 c 128,-1,2
 921 1171 921 1171 921 1015 c 256,3,4
 921 859 921 859 810.5 749 c 128,-1,5
 700 639 700 639 544 639 c 256,6,7
 388 639 388 639 278 749 c 128,-1,8
 168 859 168 859 168 1015 c 256,9,10
 168 1171 168 1171 277.5 1281.5 c 128,-1,11
 387 1392 387 1392 544 1392 c 0,0,1
544 1278 m 0,12,13
 435 1278 435 1278 358.5 1200.5 c 128,-1,14
 282 1123 282 1123 282 1015 c 0,15,16
 282 906 282 906 359 829.5 c 128,-1,17
 436 753 436 753 544 753 c 256,18,19
 652 753 652 753 729.5 829.5 c 128,-1,20
 807 906 807 906 807 1015 c 0,21,22
 807 1123 807 1123 730.5 1200.5 c 128,-1,23
 654 1278 654 1278 544 1278 c 0,12,13
EndSplineSet
EndChar

StartChar: uniFFFC
Encoding: 65532 65532 68
Width: 2048
Flags: W
LayerCount: 2
Fore
SplineSet
2048 1150 m 1,0,-1
 1948 1150 l 1,1,-1
 1948 1373 l 1,2,-1
 1725 1373 l 1,3,-1
 1725 1473 l 1,4,-1
 2048 1473 l 1,5,-1
 2048 1150 l 1,0,-1
1473 1373 m 1,6,-1
 1150 1373 l 1,7,-1
 1150 1473 l 1,8,-1
 1473 1473 l 1,9,-1
 1473 1373 l 1,6,-1
2048 575 m 1,10,-1
 1948 575 l 1,11,-1
 1948 898 l 1,12,-1
 2048 898 l 1,13,-1
 2048 575 l 1,10,-1
1782 611 m 2,14,15
 1782 370 1782 370 1571 370 c 0,16,17
 1485 370 1485 370 1433 415 c 1,18,-1
 1506 494 l 1,19,20
 1531 468 1531 468 1571 468 c 0,21,22
 1666 468 1666 468 1666 606 c 2,23,-1
 1666 1090 l 1,24,-1
 1782 1090 l 1,25,-1
 1782 611 l 2,14,15
898 1373 m 1,26,-1
 575 1373 l 1,27,-1
 575 1473 l 1,28,-1
 898 1473 l 1,29,-1
 898 1373 l 1,26,-1
2048 0 m 1,30,-1
 1725 0 l 1,31,-1
 1725 100 l 1,32,-1
 1948 100 l 1,33,-1
 1948 323 l 1,34,-1
 2048 323 l 1,35,-1
 2048 0 l 1,30,-1
1423 591 m 0,36,37
 1423 382 1423 382 1149 382 c 2,38,-1
 909 382 l 1,39,-1
 909 1090 l 1,40,-1
 1144 1090 l 2,41,42
 1393 1090 1393 1090 1393 904 c 0,43,44
 1393 813 1393 813 1304 759 c 1,45,46
 1423 713 1423 713 1423 591 c 0,36,37
323 1373 m 1,47,-1
 100 1373 l 1,48,-1
 100 1150 l 1,49,-1
 0 1150 l 1,50,-1
 0 1473 l 1,51,-1
 323 1473 l 1,52,-1
 323 1373 l 1,47,-1
1473 0 m 1,53,-1
 1150 0 l 1,54,-1
 1150 100 l 1,55,-1
 1473 100 l 1,56,-1
 1473 0 l 1,53,-1
854 735 m 0,57,58
 854 562 854 562 772 466 c 128,-1,59
 690 370 690 370 537 370 c 256,60,61
 384 370 384 370 303.5 466 c 128,-1,62
 223 562 223 562 223 735 c 0,63,64
 223 910 223 910 303.5 1006 c 128,-1,65
 384 1102 384 1102 537 1102 c 256,66,67
 690 1102 690 1102 772 1006 c 128,-1,68
 854 910 854 910 854 735 c 0,57,58
100 575 m 1,69,-1
 0 575 l 1,70,-1
 0 898 l 1,71,-1
 100 898 l 1,72,-1
 100 575 l 1,69,-1
898 0 m 1,73,-1
 575 0 l 1,74,-1
 575 100 l 1,75,-1
 898 100 l 1,76,-1
 898 0 l 1,73,-1
323 0 m 1,77,-1
 0 0 l 1,78,-1
 0 323 l 1,79,-1
 100 323 l 1,80,-1
 100 100 l 1,81,-1
 323 100 l 1,82,-1
 323 0 l 1,77,-1
1277 893 m 0,83,84
 1277 992 1277 992 1114 992 c 2,85,-1
 1025 992 l 1,86,-1
 1025 798 l 1,87,-1
 1126 798 l 2,88,89
 1277 798 1277 798 1277 893 c 0,83,84
1307 591 m 0,90,91
 1307 700 1307 700 1136 700 c 2,92,-1
 1025 700 l 1,93,-1
 1025 480 l 1,94,-1
 1149 480 l 2,95,96
 1307 480 1307 480 1307 591 c 0,90,91
738 735 m 0,97,98
 738 1004 738 1004 537 1004 c 0,99,100
 339 1004 339 1004 339 735 c 0,101,102
 339 468 339 468 537 468 c 0,103,104
 738 468 738 468 738 735 c 0,97,98
EndSplineSet
EndChar

StartChar: zerowidthnonjoiner
Encoding: 8204 8204 88
Width: 0
GlyphClass: 2
Flags: W
LayerCount: 2
Fore
SplineSet
36 1289 m 1,0,-1
 36 -275 l 1,1,-1
 -36 -275 l 1,2,-1
 -36 1289 l 1,3,-1
 36 1289 l 1,0,-1
EndSplineSet
EndChar

StartChar: zerowidthjoiner
Encoding: 8205 8205 89
Width: 0
GlyphClass: 2
Flags: W
LayerCount: 2
Fore
SplineSet
36 -275 m 1,0,-1
 -36 -275 l 1,1,-1
 -36 1114 l 1,2,-1
 -170 978 l 1,3,-1
 -219 1027 l 1,4,-1
 -48 1196 l 1,5,-1
 -219 1364 l 1,6,-1
 -170 1413 l 1,7,-1
 0 1242 l 1,8,-1
 170 1413 l 1,9,-1
 219 1364 l 1,10,-1
 48 1196 l 1,11,-1
 219 1027 l 1,12,-1
 170 978 l 1,13,-1
 36 1114 l 1,14,-1
 36 -275 l 1,0,-1
EndSplineSet
EndChar

StartChar: lefttorightmark
Encoding: 8206 8206 90
Width: 0
GlyphClass: 2
Flags: W
LayerCount: 2
Fore
SplineSet
430 1198 m 1,0,-1
 213 984 l 1,1,-1
 164 1033 l 1,2,-1
 301 1163 l 1,3,-1
 35 1163 l 1,4,-1
 35 -275 l 1,5,-1
 -36 -275 l 1,6,-1
 -36 1234 l 1,7,-1
 301 1234 l 1,8,-1
 164 1364 l 1,9,-1
 213 1413 l 1,10,-1
 430 1198 l 1,0,-1
EndSplineSet
EndChar

StartChar: righttoleftmark
Encoding: 8207 8207 91
Width: 0
GlyphClass: 2
Flags: W
LayerCount: 2
Fore
SplineSet
35 -275 m 1,0,-1
 -36 -275 l 1,1,-1
 -36 1163 l 1,2,-1
 -302 1163 l 1,3,-1
 -165 1033 l 1,4,-1
 -214 984 l 1,5,-1
 -431 1198 l 1,6,-1
 -214 1413 l 1,7,-1
 -165 1364 l 1,8,-1
 -302 1234 l 1,9,-1
 35 1234 l 1,10,-1
 35 -275 l 1,0,-1
EndSplineSet
EndChar

StartChar: afii57388.001
Encoding: 1644 1644 92
Width: 353
GlyphClass: 2
Flags: W
LayerCount: 2
Fore
SplineSet
210 654 m 0,0,1
 200 627 200 627 185 603 c 0,2,3
 180 597 180 597 173.5 593.5 c 128,-1,4
 167 590 167 590 162 590 c 128,-1,5
 157 590 157 590 154.5 593 c 128,-1,6
 152 596 152 596 155 603 c 0,7,8
 187 660 187 660 202.5 713.5 c 128,-1,9
 218 767 218 767 218 800 c 1,10,11
 194 806 194 806 179 816 c 128,-1,12
 164 826 164 826 155 837.5 c 128,-1,13
 146 849 146 849 143 859 c 128,-1,14
 140 869 140 869 140 874 c 0,15,16
 140 890 140 890 145.5 907 c 128,-1,17
 151 924 151 924 160.5 937.5 c 128,-1,18
 170 951 170 951 183.5 959.5 c 128,-1,19
 197 968 197 968 213 968 c 0,20,21
 272 968 272 968 272 874 c 0,22,23
 272 859 272 859 268 835 c 128,-1,24
 264 811 264 811 256 781.5 c 128,-1,25
 248 752 248 752 236.5 719.5 c 128,-1,26
 225 687 225 687 210 654 c 0,0,1
EndSplineSet
EndChar

StartChar: afii57409
Encoding: 1569 1569 93
Width: 1002
GlyphClass: 2
Flags: W
AnchorPoint: "Anchor-1" 660 -360 basechar 0
AnchorPoint: "Anchor-0" 615 855 basechar 0
LayerCount: 2
Fore
SplineSet
364 -35 m 1,0,-1
 290 119 l 1,1,-1
 477 211 l 1,2,3
 413 274 413 274 413 358 c 0,4,5
 413 452 413 452 473.5 522 c 128,-1,6
 534 592 534 592 628 592 c 0,7,8
 692 592 692 592 798 544 c 1,9,-1
 725 397 l 1,10,11
 700 415 700 415 675.5 427.5 c 128,-1,12
 651 440 651 440 628 440 c 0,13,14
 614 440 614 440 589 415 c 1,15,16
 573 389 573 389 573 358 c 0,17,18
 573 313 573 313 614 313 c 1,19,20
 700 304 700 304 845 388 c 1,21,-1
 913 240 l 1,22,-1
 364 -35 l 1,0,-1
EndSplineSet
EndChar

StartChar: afii57440
Encoding: 1600 1600 94
Width: 582
GlyphClass: 2
Flags: W
LayerCount: 2
Fore
SplineSet
-53 0 m 1,0,-1
 -53 309 l 1,1,-1
 610 309 l 1,2,-1
 610 0 l 1,3,-1
 -53 0 l 1,0,-1
EndSplineSet
EndChar

StartChar: afii57453
Encoding: 1613 1613 95
Width: 0
GlyphClass: 4
Flags: W
AnchorPoint: "Anchor-3" 0 0 mark 0
AnchorPoint: "Anchor-1" 0 0 mark 0
LayerCount: 2
Fore
SplineSet
-289 121 m 1,0,-1
 266 262 l 1,1,-1
 266 144 l 1,2,-1
 -289 5 l 1,3,-1
 -289 121 l 1,0,-1
-289 -89 m 1,4,-1
 266 52 l 1,5,-1
 266 -66 l 1,6,-1
 -289 -205 l 1,7,-1
 -289 -89 l 1,4,-1
EndSplineSet
EndChar

StartChar: afii57381
Encoding: 1642 1642 96
Width: 1323
GlyphClass: 2
Flags: W
LayerCount: 2
Fore
SplineSet
311 2 m 1,0,-1
 121 2 l 1,1,-1
 956 1464 l 1,2,-1
 1147 1464 l 1,3,-1
 311 2 l 1,0,-1
793 201 m 256,4,5
 793 279 793 279 847 333 c 128,-1,6
 901 387 901 387 979 387 c 256,7,8
 1057 387 1057 387 1110 333 c 128,-1,9
 1163 279 1163 279 1163 201 c 256,10,11
 1163 123 1163 123 1110 66.5 c 128,-1,12
 1057 10 1057 10 979 10 c 256,13,14
 901 10 901 10 847 66.5 c 128,-1,15
 793 123 793 123 793 201 c 256,4,5
152 1268 m 256,16,17
 152 1346 152 1346 206 1400 c 128,-1,18
 260 1454 260 1454 338 1454 c 256,19,20
 416 1454 416 1454 469 1400 c 128,-1,21
 522 1346 522 1346 522 1268 c 256,22,23
 522 1190 522 1190 469 1133.5 c 128,-1,24
 416 1077 416 1077 338 1077 c 256,25,26
 260 1077 260 1077 206 1133.5 c 128,-1,27
 152 1190 152 1190 152 1268 c 256,16,17
EndSplineSet
EndChar

StartChar: afii57461
Encoding: 1643 1643 97
Width: 1178
GlyphClass: 2
Flags: W
LayerCount: 2
Fore
SplineSet
1123 722 m 1,0,-1
 301 -765 l 1,1,-1
 80 -765 l 1,2,-1
 891 722 l 1,3,-1
 1123 722 l 1,0,-1
EndSplineSet
EndChar

StartChar: afii63167
Encoding: 1645 1645 98
Width: 1118
GlyphClass: 2
Flags: W
LayerCount: 2
Fore
SplineSet
694 729 m 1,0,-1
 1057 733 l 1,1,-1
 1057 610 l 1,2,-1
 702 612 l 1,3,-1
 971 352 l 1,4,-1
 883 264 l 1,5,-1
 616 539 l 1,6,-1
 623 168 l 1,7,-1
 498 168 l 1,8,-1
 502 539 l 1,9,-1
 236 264 l 1,10,-1
 147 352 l 1,11,-1
 422 614 l 1,12,-1
 63 610 l 1,13,-1
 63 733 l 1,14,-1
 420 729 l 1,15,-1
 170 975 l 1,16,-1
 258 1065 l 1,17,-1
 502 817 l 1,18,-1
 498 1176 l 1,19,-1
 623 1176 l 1,20,-1
 616 813 l 1,21,-1
 860 1065 l 1,22,-1
 948 975 l 1,23,-1
 694 729 l 1,0,-1
EndSplineSet
EndChar

StartChar: afii57459
Encoding: 65543 -1 99
Width: 1077
GlyphClass: 2
Flags: W
LayerCount: 2
Fore
SplineSet
1051 383 m 0,0,1
 1051 233 1051 233 934 113 c 1,2,3
 803 0 803 0 647 0 c 2,4,-1
 -31 0 l 1,5,-1
 -31 309 l 1,6,-1
 662 309 l 2,7,8
 705 309 705 309 733 373 c 1,9,-1
 635 373 l 2,10,11
 412 373 412 373 313 434 c 1,12,13
 182 522 182 522 182 739 c 0,14,15
 182 901 182 901 293 1018 c 1,16,17
 406 1130 406 1130 582 1130 c 0,18,19
 866 1130 866 1130 983 885 c 0,20,21
 1057 725 1057 725 1051 383 c 0,0,1
715 674 m 1,22,23
 715 733 715 733 669 777 c 128,-1,24
 623 821 623 821 559 821 c 0,25,26
 469 821 469 821 469 739 c 0,27,28
 469 700 469 700 485 684 c 1,29,30
 522 674 522 674 623 674 c 2,31,-1
 715 674 l 1,22,23
EndSplineSet
EndChar

StartChar: afii57543
Encoding: 65544 -1 100
Width: 1141
Flags: W
LayerCount: 2
Fore
SplineSet
842 0 m 1,0,1
 733 10 733 10 674 70 c 1,2,3
 573 0 573 0 469 0 c 2,4,-1
 -45 0 l 1,5,-1
 -45 309 l 1,6,-1
 434 309 l 1,7,8
 514 313 514 313 514 436 c 2,9,-1
 514 764 l 1,10,-1
 823 764 l 1,11,-1
 823 451 l 2,12,13
 821 373 821 373 852 338 c 1,14,15
 899 309 899 309 1176 309 c 1,16,-1
 1176 0 l 1,17,-1
 842 0 l 1,0,1
EndSplineSet
EndChar

StartChar: afii57534
Encoding: 1749 1749 101
Width: 1130
GlyphClass: 2
Flags: W
LayerCount: 2
Fore
SplineSet
1100 440 m 256,0,1
 1100 264 1100 264 965 131 c 1,2,3
 821 0 821 0 645 0 c 256,4,5
 469 0 469 0 328 119 c 1,6,7
 195 254 195 254 195 434 c 0,8,9
 195 573 195 573 254 684 c 1,10,11
 295 778 295 778 420 895 c 1,12,-1
 358 958 l 1,13,-1
 573 1165 l 1,14,-1
 987 733 l 2,15,16
 1100 616 1100 616 1100 440 c 256,0,1
793 440 m 0,17,18
 793 483 793 483 772 514 c 1,19,-1
 635 662 l 1,20,21
 479 539 479 539 485 434 c 0,22,23
 485 383 485 383 543 334 c 0,24,25
 596 293 596 293 647 293 c 0,26,27
 709 293 709 293 751 337 c 128,-1,28
 793 381 793 381 793 440 c 0,17,18
EndSplineSet
EndChar

StartChar: afii64240
Encoding: 65546 -1 103
Width: 551
Flags: W
LayerCount: 2
Fore
SplineSet
109 181 m 0,0,1
 109 216 109 216 123 248.5 c 128,-1,2
 137 281 137 281 161.5 305.5 c 128,-1,3
 186 330 186 330 218.5 345 c 128,-1,4
 251 360 251 360 287 360 c 0,5,6
 362 360 362 360 413.5 306.5 c 128,-1,7
 465 253 465 253 465 181 c 0,8,9
 465 106 465 106 413.5 52 c 128,-1,10
 362 -2 362 -2 287 -2 c 0,11,12
 214 -2 214 -2 161.5 52 c 128,-1,13
 109 106 109 106 109 181 c 0,0,1
EndSplineSet
EndChar

StartChar: afii64241
Encoding: 65547 -1 104
Width: 830
Flags: W
LayerCount: 2
Fore
SplineSet
785 172 m 256,0,1
 785 101 785 101 736 52 c 128,-1,2
 687 3 687 3 616 3 c 256,3,4
 545 3 545 3 498 52 c 128,-1,5
 451 101 451 101 451 172 c 256,6,7
 451 243 451 243 498 294 c 128,-1,8
 545 345 545 345 616 345 c 256,9,10
 687 345 687 345 736 294 c 128,-1,11
 785 243 785 243 785 172 c 256,0,1
442 169 m 0,12,13
 442 135 442 135 429.5 104 c 128,-1,14
 417 73 417 73 394 50 c 128,-1,15
 371 27 371 27 340 13.5 c 128,-1,16
 309 0 309 0 273 0 c 0,17,18
 202 0 202 0 155 50 c 128,-1,19
 108 100 108 100 108 169 c 0,20,21
 108 240 108 240 155 290.5 c 128,-1,22
 202 341 202 341 273 341 c 256,23,24
 344 341 344 341 393 290.5 c 128,-1,25
 442 240 442 240 442 169 c 0,12,13
EndSplineSet
EndChar

StartChar: afii63954
Encoding: 65548 -1 105
Width: 866
Flags: W
LayerCount: 2
Fore
SplineSet
613 529 m 0,0,1
 613 458 613 458 563.5 408.5 c 128,-1,2
 514 359 514 359 443 359 c 0,3,4
 373 359 373 359 324.5 408.5 c 128,-1,5
 276 458 276 458 276 529 c 0,6,7
 276 599 276 599 324.5 650 c 128,-1,8
 373 701 373 701 443 701 c 0,9,10
 514 701 514 701 563.5 650 c 128,-1,11
 613 599 613 599 613 529 c 0,0,1
785 172 m 256,12,13
 785 101 785 101 736 52 c 128,-1,14
 687 3 687 3 616 3 c 256,15,16
 545 3 545 3 498 52 c 128,-1,17
 451 101 451 101 451 172 c 256,18,19
 451 243 451 243 498 294 c 128,-1,20
 545 345 545 345 616 345 c 256,21,22
 687 345 687 345 736 294 c 128,-1,23
 785 243 785 243 785 172 c 256,12,13
442 169 m 0,24,25
 442 135 442 135 429.5 104 c 128,-1,26
 417 73 417 73 394 50 c 128,-1,27
 371 27 371 27 340 13.5 c 128,-1,28
 309 0 309 0 273 0 c 0,29,30
 202 0 202 0 155 50 c 128,-1,31
 108 100 108 100 108 169 c 0,32,33
 108 240 108 240 155 290.5 c 128,-1,34
 202 341 202 341 273 341 c 256,35,36
 344 341 344 341 393 290.5 c 128,-1,37
 442 240 442 240 442 169 c 0,24,25
EndSplineSet
EndChar

StartChar: afii57382
Encoding: 65549 -1 106
Width: 821
Flags: W
LayerCount: 2
Fore
SplineSet
613 -530 m 0,0,1
 613 -600 613 -600 563.5 -651 c 128,-1,2
 514 -702 514 -702 443 -702 c 0,3,4
 373 -702 373 -702 324.5 -651 c 128,-1,5
 276 -600 276 -600 276 -530 c 0,6,7
 276 -459 276 -459 324.5 -409.5 c 128,-1,8
 373 -360 373 -360 443 -360 c 0,9,10
 514 -360 514 -360 563.5 -409.5 c 128,-1,11
 613 -459 613 -459 613 -530 c 0,0,1
785 -173 m 256,12,13
 785 -244 785 -244 736 -295 c 128,-1,14
 687 -346 687 -346 616 -346 c 256,15,16
 545 -346 545 -346 498 -295 c 128,-1,17
 451 -244 451 -244 451 -173 c 256,18,19
 451 -102 451 -102 498 -53 c 128,-1,20
 545 -4 545 -4 616 -4 c 256,21,22
 687 -4 687 -4 736 -53 c 128,-1,23
 785 -102 785 -102 785 -173 c 256,12,13
442 -170 m 0,24,25
 442 -241 442 -241 393 -291.5 c 128,-1,26
 344 -342 344 -342 273 -342 c 256,27,28
 202 -342 202 -342 155 -291.5 c 128,-1,29
 108 -241 108 -241 108 -170 c 0,30,31
 108 -101 108 -101 155 -51 c 128,-1,32
 202 -1 202 -1 273 -1 c 0,33,34
 309 -1 309 -1 340 -14.5 c 128,-1,35
 371 -28 371 -28 394 -51 c 128,-1,36
 417 -74 417 -74 429.5 -105 c 128,-1,37
 442 -136 442 -136 442 -170 c 0,24,25
EndSplineSet
EndChar

StartChar: afii64242
Encoding: 65550 -1 107
Width: 772
Flags: W
LayerCount: 2
Fore
SplineSet
735 397 m 2,0,1
 735 254 735 254 631 119 c 1,2,3
 522 0 522 0 373 0 c 2,4,-1
 -20 0 l 1,5,-1
 -20 309 l 1,6,-1
 246 309 l 2,7,8
 309 309 309 309 345 315.5 c 128,-1,9
 381 322 381 322 400.5 337 c 128,-1,10
 420 352 420 352 423 382 c 128,-1,11
 426 412 426 412 426 469 c 0,12,13
 426 479 426 479 424 514 c 128,-1,14
 422 549 422 549 422 592 c 256,15,16
 422 635 422 635 421 684 c 128,-1,17
 420 733 420 733 420 772 c 1,18,-1
 735 772 l 1,19,-1
 735 397 l 2,0,1
EndSplineSet
EndChar

StartChar: afii57373
Encoding: 65551 -1 112
Width: 0
Flags: W
LayerCount: 2
Fore
SplineSet
192 1543 m 1,0,-1
 132 1703 l 1,1,-1
 235 1741 l 1,2,3
 176 1810 176 1810 184 1893 c 0,4,5
 192 1987 192 1987 258.5 2051.5 c 128,-1,6
 325 2116 325 2116 419 2108 c 0,7,8
 482 2102 482 2102 584 2045 c 1,9,-1
 498 1905 l 1,10,11
 475 1925 475 1925 451.5 1939.5 c 128,-1,12
 428 1954 428 1954 405 1956 c 0,13,14
 391 1957 391 1957 364 1935 c 1,15,16
 346 1910 346 1910 343 1879 c 0,17,18
 339 1835 339 1835 380 1831 c 0,19,20
 431 1827 431 1827 601 1888 c 1,21,-1
 656 1734 l 1,22,-1
 192 1543 l 1,0,-1
EndSplineSet
EndChar

StartChar: afii57374
Encoding: 65552 -1 113
Width: 1176
GlyphClass: 2
Flags: W
LayerCount: 2
Fore
SplineSet
821 0 m 1,0,1
 700 20 700 20 610 53 c 1,2,3
 455 0 455 0 -45 0 c 1,4,-1
 -45 309 l 1,5,-1
 233 309 l 1,6,7
 152 426 152 426 152 557 c 0,8,9
 152 735 152 735 283 846 c 0,10,11
 406 954 406 954 588 954 c 0,12,13
 768 954 768 954 885 821 c 1,14,15
 997 700 997 700 997 514 c 0,16,17
 997 395 997 395 954 309 c 1,18,-1
 1204 309 l 1,19,-1
 1204 0 l 1,20,-1
 821 0 l 1,0,1
705 504 m 0,21,22
 705 557 705 557 668 606 c 128,-1,23
 631 655 631 655 573 655 c 0,24,25
 532 655 532 655 489 623.5 c 128,-1,26
 446 592 446 592 446 543 c 0,27,28
 446 422 446 422 610 362 c 1,29,30
 705 440 705 440 705 504 c 0,21,22
EndSplineSet
EndChar

StartChar: afii57375
Encoding: 1619 1619 114
Width: 1171
GlyphClass: 2
Flags: W
LayerCount: 2
Fore
SplineSet
552 1660 m 2,0,1
 506 1660 506 1660 465.5 1655.5 c 128,-1,2
 425 1651 425 1651 406 1637 c 1,3,4
 375 1599 375 1599 329 1511 c 1,5,-1
 72 1613 l 1,6,7
 117 1702 117 1702 143 1750 c 128,-1,8
 169 1798 169 1798 237.5 1864 c 128,-1,9
 306 1930 306 1930 488 1934 c 2,10,-1
 1035 1935 l 1,11,-1
 1035 1652 l 1,12,-1
 552 1660 l 2,0,1
EndSplineSet
EndChar

StartChar: afii57391
Encoding: 59450 59450 115
Width: 1024
GlyphClass: 2
Flags: W
LayerCount: 2
Fore
SplineSet
1024 0 m 1,0,-1
 -70 0 l 1,1,-1
 -70 188 l 1,2,-1
 1024 188 l 1,3,-1
 1024 0 l 1,0,-1
EndSplineSet
EndChar

StartChar: afii57471
Encoding: 65553 -1 116
Width: 2247
Flags: W
LayerCount: 2
Fore
SplineSet
2113 0 m 2,0,1
 2060 0 2060 0 2035 6 c 0,2,3
 1928 25 1928 25 1877 100 c 1,4,5
 1772 0 1772 0 1669 0 c 2,6,-1
 543 0 l 2,7,8
 383 0 383 0 283 119 c 0,9,10
 186 236 186 236 186 397 c 2,11,-1
 186 772 l 1,12,-1
 494 772 l 1,13,-1
 494 381 l 2,14,15
 494 309 494 309 610 309 c 2,16,-1
 1610 309 l 2,17,18
 1702 309 1702 309 1716 373 c 0,19,20
 1722 383 1722 383 1722 426 c 2,21,-1
 1722 772 l 1,22,-1
 2032 772 l 1,23,-1
 2032 434 l 2,24,25
 2030 381 2030 381 2057.5 345 c 128,-1,26
 2085 309 2085 309 2265 309 c 1,27,-1
 2265 0 l 1,28,-1
 2113 0 l 2,0,1
EndSplineSet
EndChar

StartChar: afii52258
Encoding: 65554 -1 117
Width: 2157
GlyphClass: 2
Flags: W
LayerCount: 2
Fore
SplineSet
1927 0 m 2,0,1
 1870 0 1870 0 1806.5 10 c 128,-1,2
 1743 20 1743 20 1669 45 c 1,3,4
 1579 20 1579 20 1478.5 10 c 128,-1,5
 1378 0 1378 0 1268 0 c 2,6,-1
 549 0 l 2,7,8
 412 0 412 0 303 131 c 1,9,10
 221 260 221 260 221 397 c 2,11,-1
 221 772 l 1,12,-1
 524 772 l 1,13,-1
 524 426 l 2,14,15
 524 309 524 309 635 309 c 2,16,-1
 1292 309 l 1,17,18
 1243 373 1243 373 1225.5 429 c 128,-1,19
 1208 485 1208 485 1208 557 c 0,20,21
 1208 725 1208 725 1350 842 c 1,22,23
 1479 954 1479 954 1649 954 c 0,24,25
 1741 954 1741 954 1814.5 919.5 c 128,-1,26
 1888 885 1888 885 1942.5 826.5 c 128,-1,27
 1997 768 1997 768 2025.5 689 c 128,-1,28
 2054 610 2054 610 2054 514 c 0,29,30
 2054 479 2054 479 2043 426 c 128,-1,31
 2032 373 2032 373 2011 309 c 1,32,-1
 2177 309 l 1,33,-1
 2177 0 l 1,34,-1
 1927 0 l 2,0,1
1772 500 m 0,35,36
 1772 567 1772 567 1733 611 c 128,-1,37
 1694 655 1694 655 1638 655 c 0,38,39
 1591 655 1591 655 1554.5 616.5 c 128,-1,40
 1518 578 1518 578 1518 539 c 0,41,42
 1518 430 1518 430 1688 358 c 1,43,44
 1772 420 1772 420 1772 500 c 0,35,36
EndSplineSet
EndChar

StartChar: afii62889
Encoding: 65555 -1 123
Width: 1825
Flags: W
LayerCount: 2
Fore
SplineSet
1683 0 m 1,0,1
 1683 -190 1683 -190 1497 -373 c 0,2,3
 1327 -543 1327 -543 1092 -543 c 2,4,-1
 758 -543 l 2,5,6
 532 -543 532 -543 367 -348 c 1,7,8
 205 -170 205 -170 205 59 c 2,9,-1
 205 417 l 1,10,-1
 510 417 l 1,11,-1
 510 39 l 2,12,13
 510 -63 510 -63 610 -147 c 1,14,15
 700 -233 700 -233 803 -233 c 2,16,-1
 1081 -233 l 2,17,18
 1130 -233 1130 -233 1178.5 -214 c 128,-1,19
 1227 -195 1227 -195 1265 -161 c 128,-1,20
 1303 -127 1303 -127 1331.5 -88 c 128,-1,21
 1360 -49 1360 -49 1370 0 c 1,22,23
 1092 0 1092 0 975 53 c 0,24,25
 793 131 793 131 793 381 c 0,26,27
 793 557 793 557 926 662 c 1,28,29
 1051 772 1051 772 1219 772 c 0,30,31
 1325 772 1325 772 1408 738.5 c 128,-1,32
 1491 705 1491 705 1552.5 643.5 c 128,-1,33
 1614 582 1614 582 1648.5 497 c 128,-1,34
 1683 412 1683 412 1683 309 c 1,35,-1
 1860 309 l 1,36,-1
 1860 0 l 1,37,-1
 1683 0 l 1,0,1
1378 309 m 1,38,39
 1331 455 1331 455 1198 455 c 0,40,41
 1126 455 1126 455 1100 395 c 1,42,43
 1100 342 1100 342 1141 328 c 1,44,45
 1174 309 1174 309 1378 309 c 1,38,39
EndSplineSet
EndChar

StartChar: afii62887
Encoding: 65556 -1 124
Width: 2075
Flags: W
LayerCount: 2
Fore
SplineSet
2044 395 m 2,0,1
 2044 246 2044 246 1942 119 c 1,2,3
 1831 0 1831 0 1683 0 c 2,4,-1
 549 0 l 2,5,6
 406 0 406 0 293 119 c 1,7,8
 201 236 201 236 201 395 c 2,9,-1
 201 764 l 1,10,-1
 504 764 l 1,11,-1
 504 432 l 2,12,13
 504 401 504 401 507 382.5 c 128,-1,14
 510 364 510 364 514 352 c 0,15,16
 532 309 532 309 616 309 c 2,17,-1
 1649 309 l 2,18,19
 1733 309 1733 309 1733 432 c 2,20,-1
 1733 764 l 1,21,-1
 2044 764 l 1,22,-1
 2044 395 l 2,0,1
EndSplineSet
EndChar

StartChar: afii62888
Encoding: 1697 1697 125
Width: 2103
GlyphClass: 2
Flags: W
LayerCount: 2
Fore
SplineSet
2071 426 m 2,0,1
 2071 246 2071 246 1976 131 c 1,2,3
 1860 0 1860 0 1683 0 c 2,4,-1
 573 0 l 2,5,6
 422 0 422 0 313 119 c 1,7,8
 221 246 221 246 221 397 c 2,9,-1
 221 772 l 1,10,-1
 524 772 l 1,11,-1
 524 426 l 2,12,13
 524 346 524 346 545.5 327.5 c 128,-1,14
 567 309 567 309 641 309 c 2,15,-1
 1663 309 l 2,16,17
 1733 309 1733 309 1755 328 c 1,18,-1
 1761 381 l 1,19,20
 1331 381 1331 381 1251 549 c 1,21,22
 1214 606 1214 606 1208 739 c 1,23,24
 1214 926 1214 926 1327 1028 c 1,25,26
 1448 1130 1448 1130 1628 1130 c 0,27,28
 1806 1130 1806 1130 1942 997 c 1,29,30
 2056 860 2056 860 2064 676 c 0,31,32
 2071 557 2071 557 2071 494 c 2,33,-1
 2071 426 l 2,0,1
1767 666 m 1,34,35
 1761 719 1761 719 1716 772 c 1,36,37
 1663 823 1663 823 1610 823 c 0,38,39
 1491 823 1491 823 1491 733 c 0,40,41
 1491 674 1491 674 1610 666 c 1,42,-1
 1767 666 l 1,34,35
EndSplineSet
Substitution2: "'medi' Medial Forms in Arabic lookup 3 subtable" afii57374
Substitution2: "'fina' Terminal Forms in Arabic lookup 2 subtable" afii52258
Substitution2: "'init' Initial Forms in Arabic lookup 1 subtable" afii57459
EndChar

StartChar: afii57567
Encoding: 1705 1705 132
Width: 2107
GlyphClass: 2
Flags: W
AnchorPoint: "Anchor-1" 945 -480 basechar 0
AnchorPoint: "Anchor-0" 780 1500 basechar 0
LayerCount: 2
Fore
SplineSet
2064 342 m 0,0,1
 2064 186 2064 186 1952 88 c 1,2,3
 1843 0 1843 0 1692 0 c 2,4,-1
 582 0 l 2,5,6
 426 0 426 0 328 119 c 0,7,8
 236 236 236 236 236 397 c 2,9,-1
 236 772 l 1,10,-1
 543 772 l 1,11,-1
 543 426 l 2,12,13
 543 346 543 346 562.5 327.5 c 128,-1,14
 582 309 582 309 647 309 c 2,15,-1
 1683 309 l 2,16,17
 1751 309 1751 309 1751 362 c 0,18,19
 1751 397 1751 397 1479 674 c 0,20,21
 1395 758 1395 758 1316 842 c 128,-1,22
 1237 926 1237 926 1155 1004 c 1,23,-1
 1120 1303 l 1,24,-1
 1995 1616 l 1,25,-1
 2032 1307 l 1,26,-1
 1497 1100 l 1,27,-1
 1952 616 l 2,28,29
 1997 567 1997 567 2030.5 486.5 c 128,-1,30
 2064 406 2064 406 2064 342 c 0,0,1
EndSplineSet
Substitution2: "'medi' Medial Forms in Arabic lookup 3 subtable" afii52306
Substitution2: "'fina' Terminal Forms in Arabic lookup 2 subtable" afii62964
Substitution2: "'init' Initial Forms in Arabic lookup 1 subtable" afii52305
EndChar

StartChar: afii62964
Encoding: 64399 64399 133
Width: 2388
GlyphClass: 2
Flags: W
AnchorPoint: "Anchor-1" 1155 -585 basechar 0
AnchorPoint: "Anchor-0" 735 1485 basechar 0
LayerCount: 2
Fore
SplineSet
2335 0 m 2,0,1
 2144 0 2144 0 2019 119 c 1,2,3
 1927 0 1927 0 1731 0 c 2,4,-1
 606 0 l 2,5,6
 451 0 451 0 346 119 c 1,7,8
 254 240 254 240 254 397 c 2,9,-1
 254 772 l 1,10,-1
 559 772 l 1,11,-1
 559 426 l 2,12,13
 559 346 559 346 577.5 327.5 c 128,-1,14
 596 309 596 309 674 309 c 2,15,-1
 1716 309 l 2,16,17
 1767 309 1767 309 1782 346 c 1,18,19
 1772 381 1772 381 1497 666 c 1,20,21
 1419 754 1419 754 1336 840 c 128,-1,22
 1253 926 1253 926 1174 1004 c 1,23,-1
 1126 1303 l 1,24,-1
 2005 1616 l 1,25,-1
 2054 1307 l 1,26,-1
 1516 1114 l 1,27,-1
 2071 494 l 2,28,29
 2089 471 2089 471 2128 433 c 128,-1,30
 2167 395 2167 395 2216 346 c 1,31,32
 2300 309 2300 309 2408 309 c 1,33,-1
 2408 0 l 1,34,-1
 2335 0 l 2,0,1
EndSplineSet
EndChar

StartChar: afii52305
Encoding: 64400 64400 134
Width: 1102
GlyphClass: 2
Flags: W
AnchorPoint: "Anchor-1" 465 -690 basechar 0
AnchorPoint: "Anchor-0" 390 1710 basechar 0
LayerCount: 2
Fore
SplineSet
1075 342 m 0,0,1
 1075 0 1075 0 698 0 c 2,2,-1
 -18 0 l 1,3,-1
 -18 309 l 1,4,-1
 698 309 l 2,5,6
 739 309 739 309 739 371 c 0,7,8
 739 383 739 383 719 406 c 2,9,-1
 147 997 l 1,10,-1
 113 1300 l 1,11,-1
 989 1614 l 1,12,-1
 1032 1303 l 1,13,-1
 504 1114 l 1,14,-1
 895 662 l 1,15,16
 1075 461 1075 461 1075 342 c 0,0,1
EndSplineSet
EndChar

StartChar: afii52306
Encoding: 64401 64401 135
Width: 1380
GlyphClass: 2
Flags: W
AnchorPoint: "Anchor-1" 555 -690 basechar 0
AnchorPoint: "Anchor-0" 375 1830 basechar 0
LayerCount: 2
Fore
SplineSet
1307 0 m 2,0,1
 1100 0 1100 0 973 119 c 1,2,3
 891 6 891 6 666 0 c 1,4,-1
 -18 0 l 1,5,-1
 -18 309 l 1,6,-1
 666 309 l 1,7,-1
 698 328 l 1,8,-1
 709 373 l 1,9,-1
 705 395 l 1,10,11
 698 406 698 406 131 1004 c 1,12,-1
 78 1303 l 1,13,-1
 965 1616 l 1,14,-1
 997 1307 l 1,15,-1
 471 1114 l 1,16,-1
 1018 500 l 2,17,18
 1071 440 1071 440 1111 406.5 c 128,-1,19
 1151 373 1151 373 1174 358 c 0,20,21
 1257 309 1257 309 1395 309 c 1,22,-1
 1395 0 l 1,23,-1
 1307 0 l 2,0,1
EndSplineSet
EndChar

StartChar: afii57509
Encoding: 1711 1711 136
Width: 2114
GlyphClass: 2
Flags: W
AnchorPoint: "Anchor-1" 1005 -510 basechar 0
AnchorPoint: "Anchor-0" 630 1485 basechar 0
LayerCount: 2
Fore
SplineSet
2089 334 m 0,0,1
 2089 170 2089 170 1982 84 c 0,2,3
 1874 0 1874 0 1708 0 c 2,4,-1
 598 0 l 2,5,6
 440 0 440 0 342 119 c 1,7,8
 254 246 254 246 254 397 c 2,9,-1
 254 772 l 1,10,-1
 559 772 l 1,11,-1
 559 381 l 2,12,13
 559 309 559 309 676 309 c 2,14,-1
 1716 309 l 2,15,16
 1767 309 1767 309 1786 362 c 1,17,18
 1782 367 1782 367 1632.5 525.5 c 128,-1,19
 1483 684 1483 684 1174 1004 c 1,20,-1
 1126 1303 l 1,21,-1
 2011 1616 l 1,22,-1
 2054 1307 l 1,23,-1
 1522 1114 l 1,24,-1
 1976 610 l 1,25,26
 2089 471 2089 471 2089 334 c 0,0,1
1126 1409 m 1,27,-1
 1114 1579 l 1,28,-1
 1962 1880 l 1,29,-1
 1966 1712 l 1,30,-1
 1126 1409 l 1,27,-1
EndSplineSet
Substitution2: "'medi' Medial Forms in Arabic lookup 3 subtable" afii62966
Substitution2: "'fina' Terminal Forms in Arabic lookup 2 subtable" afii62967
Substitution2: "'init' Initial Forms in Arabic lookup 1 subtable" afii62965
EndChar

StartChar: afii62967
Encoding: 64403 64403 137
Width: 2406
GlyphClass: 2
Flags: W
AnchorPoint: "Anchor-1" 1065 -630 basechar 0
AnchorPoint: "Anchor-0" 705 1650 basechar 0
LayerCount: 2
Fore
SplineSet
2343 0 m 2,0,1
 2167 0 2167 0 2025 119 c 1,2,3
 1942 0 1942 0 1741 0 c 2,4,-1
 610 0 l 2,5,6
 455 0 455 0 362 119 c 0,7,8
 260 246 260 246 260 397 c 2,9,-1
 260 772 l 1,10,-1
 573 772 l 1,11,-1
 573 426 l 2,12,13
 573 346 573 346 591.5 327.5 c 128,-1,14
 610 309 610 309 684 309 c 2,15,-1
 1731 309 l 2,16,17
 1782 309 1782 309 1792 346 c 1,18,19
 1782 381 1782 381 1507 666 c 1,20,21
 1430 754 1430 754 1349 840 c 128,-1,22
 1268 926 1268 926 1176 1004 c 1,23,-1
 1135 1303 l 1,24,-1
 2021 1616 l 1,25,-1
 2056 1307 l 1,26,-1
 1528 1114 l 1,27,-1
 2075 494 l 1,28,-1
 2230 346 l 1,29,30
 2308 303 2308 303 2423 309 c 1,31,-1
 2423 0 l 1,32,-1
 2343 0 l 2,0,1
1141 1380 m 1,33,-1
 1120 1550 l 1,34,-1
 1966 1855 l 1,35,-1
 1976 1683 l 1,36,-1
 1141 1380 l 1,33,-1
EndSplineSet
EndChar

StartChar: afii62965
Encoding: 64404 64404 138
Width: 1061
GlyphClass: 2
Flags: W
AnchorPoint: "Anchor-1" 435 -690 basechar 0
AnchorPoint: "Anchor-0" 375 1890 basechar 0
LayerCount: 2
Fore
SplineSet
1038 346 m 0,0,1
 1038 195 1038 195 920 88 c 1,2,3
 799 0 799 0 645 0 c 2,4,-1
 -29 0 l 1,5,-1
 -29 309 l 1,6,-1
 645 309 l 2,7,8
 711 309 711 309 725 346 c 1,9,10
 715 391 715 391 444 666 c 0,11,12
 362 754 362 754 283.5 840 c 128,-1,13
 205 926 205 926 117 1004 c 1,14,-1
 70 1303 l 1,15,-1
 950 1616 l 1,16,-1
 997 1307 l 1,17,-1
 459 1100 l 1,18,-1
 969 543 l 2,19,20
 1038 469 1038 469 1038 346 c 0,0,1
49 1378 m 1,21,-1
 25 1546 l 1,22,-1
 877 1849 l 1,23,-1
 885 1677 l 1,24,-1
 49 1378 l 1,21,-1
EndSplineSet
EndChar

StartChar: afii62966
Encoding: 64405 64405 139
Width: 1325
GlyphClass: 2
Flags: W
AnchorPoint: "Anchor-1" 600 -720 basechar 0
AnchorPoint: "Anchor-0" 315 1995 basechar 0
LayerCount: 2
Fore
SplineSet
1356 0 m 1,0,1
 1022 0 1022 0 940 131 c 1,2,3
 877 53 877 53 813 20 c 0,4,5
 788 10 788 10 751.5 5 c 128,-1,6
 715 0 715 0 662 0 c 2,7,-1
 -29 0 l 1,8,-1
 -29 309 l 1,9,-1
 662 309 l 2,10,11
 725 309 725 309 725 346 c 1,12,13
 715 381 715 381 440 666 c 1,14,15
 362 754 362 754 281.5 840 c 128,-1,16
 201 926 201 926 113 1004 c 1,17,-1
 70 1303 l 1,18,-1
 954 1616 l 1,19,-1
 997 1307 l 1,20,-1
 455 1100 l 1,21,-1
 1008 494 l 2,22,23
 1067 434 1067 434 1104 396 c 128,-1,24
 1141 358 1141 358 1149 346 c 1,25,26
 1204 309 1204 309 1356 309 c 1,27,-1
 1356 0 l 1,0,1
70 1395 m 1,28,-1
 45 1561 l 1,29,-1
 895 1864 l 1,30,-1
 909 1698 l 1,31,-1
 70 1395 l 1,28,-1
EndSplineSet
EndChar

StartChar: afii57555
Encoding: 1740 1740 140
Width: 1731
GlyphClass: 2
Flags: W
AnchorPoint: "Anchor-1" 840 -1140 basechar 0
AnchorPoint: "Anchor-0" 705 1080 basechar 0
LayerCount: 2
Fore
SplineSet
1702 63 m 0,0,1
 1702 -190 1702 -190 1546 -362 c 0,2,3
 1380 -543 1380 -543 1130 -543 c 2,4,-1
 793 -543 l 2,5,6
 567 -543 567 -543 403.5 -369 c 128,-1,7
 240 -195 240 -195 240 63 c 2,8,-1
 240 557 l 1,9,-1
 543 557 l 1,10,-1
 543 45 l 2,11,12
 543 -82 543 -82 626 -161 c 128,-1,13
 709 -240 709 -240 836 -240 c 2,14,-1
 1114 -240 l 2,15,16
 1219 -240 1219 -240 1311 -162 c 128,-1,17
 1403 -84 1403 -84 1403 10 c 0,18,19
 1403 78 1403 78 1370 78 c 1,20,21
 1307 109 1307 109 1155 106 c 0,22,23
 1126 106 1126 106 1025 107.5 c 128,-1,24
 924 109 924 109 909 225 c 1,25,-1
 909 524 l 2,26,27
 909 616 909 616 939 694 c 128,-1,28
 969 772 969 772 1025 828.5 c 128,-1,29
 1081 885 1081 885 1160 921.5 c 128,-1,30
 1239 958 1239 958 1331 958 c 2,31,-1
 1628 958 l 1,32,-1
 1649 662 l 1,33,-1
 1331 662 l 2,34,35
 1272 662 1272 662 1219 588 c 1,36,37
 1204 543 1204 543 1201 497 c 128,-1,38
 1198 451 1198 451 1198 406 c 1,39,40
 1327 406 1327 406 1414 394.5 c 128,-1,41
 1501 383 1501 383 1554 358 c 0,42,43
 1702 283 1702 283 1702 63 c 0,0,1
EndSplineSet
Substitution2: "'medi' Medial Forms in Arabic lookup 3 subtable" afii62832
Substitution2: "'fina' Terminal Forms in Arabic lookup 2 subtable" afii52364
Substitution2: "'init' Initial Forms in Arabic lookup 1 subtable" uniFBFE
EndChar

StartChar: afii52364
Encoding: 64509 64509 141
Width: 1835
GlyphClass: 2
Flags: W
AnchorPoint: "Anchor-1" 840 -1140 basechar 0
AnchorPoint: "Anchor-0" 810 990 basechar 0
LayerCount: 2
Fore
SplineSet
1677 0 m 1,0,1
 1679 -29 1679 -29 1683 -63 c 1,2,3
 1683 -98 1683 -98 1677 -152 c 1,4,5
 1677 -254 1677 -254 1522 -401 c 1,6,7
 1364 -543 1364 -543 1163 -543 c 2,8,-1
 827 -543 l 2,9,10
 567 -543 567 -543 395 -348 c 1,11,12
 254 -152 254 -152 254 119 c 2,13,-1
 254 557 l 1,14,-1
 567 557 l 1,15,-1
 567 45 l 2,16,17
 567 -88 567 -88 662 -166 c 0,18,19
 748 -240 748 -240 874 -240 c 2,20,-1
 1155 -240 l 2,21,22
 1239 -240 1239 -240 1311 -182 c 1,23,24
 1380 -133 1380 -133 1380 -45 c 1,25,-1
 1364 -20 l 1,26,27
 1292 -10 1292 -10 1184.5 -5 c 128,-1,28
 1077 0 1077 0 934 0 c 1,29,-1
 909 309 l 1,30,-1
 1870 309 l 1,31,-1
 1870 0 l 1,32,-1
 1677 0 l 1,0,1
EndSplineSet
EndChar

StartChar: afii62945
Encoding: 65557 -1 147
Width: 2681
GlyphClass: 3
Flags: W
LayerCount: 2
Fore
SplineSet
2613 381 m 2,0,1
 2613 205 2613 205 2501 98 c 1,2,3
 2396 6 2396 6 2216 0 c 1,4,-1
 2005 0 l 2,5,6
 1786 0 1786 0 1692 70 c 1,7,8
 1649 45 1649 45 1594.5 25.5 c 128,-1,9
 1540 6 1540 6 1466 0 c 1,10,-1
 1227 0 l 1,11,-1
 1227 6 l 1,12,13
 1163 20 1163 20 1120 45 c 1,14,15
 1087 59 1087 59 1042 98 c 128,-1,16
 997 137 997 137 926 205 c 1,17,18
 788 -20 788 -20 514 -20 c 0,19,20
 426 -20 426 -20 343 12.5 c 128,-1,21
 260 45 260 45 195.5 107.5 c 128,-1,22
 131 170 131 170 95 256 c 128,-1,23
 59 342 59 342 59 434 c 0,24,25
 59 557 59 557 127 674 c 1,26,27
 152 709 152 709 194 756 c 128,-1,28
 236 803 236 803 293 866 c 1,29,-1
 236 940 l 1,30,-1
 446 1149 l 1,31,-1
 1227 328 l 1,32,-1
 1292 303 l 1,33,-1
 1419 303 l 2,34,35
 1483 303 1483 303 1507 328 c 1,36,37
 1536 342 1536 342 1528 469 c 1,38,-1
 1528 1253 l 1,39,-1
 1843 1253 l 1,40,-1
 1843 367 l 1,41,42
 1849 328 1849 328 1880 328 c 0,43,44
 1933 328 1933 328 1980.5 327 c 128,-1,45
 2028 326 2028 326 2073 326 c 2,46,-1
 2163 326 l 2,47,48
 2210 326 2210 326 2261 328 c 1,49,50
 2308 346 2308 346 2308 469 c 2,51,-1
 2308 1253 l 1,52,-1
 2613 1253 l 1,53,-1
 2613 381 l 2,0,1
684 420 m 0,54,55
 684 469 684 469 610 549 c 1,56,-1
 514 645 l 1,57,58
 469 606 469 606 447.5 581.5 c 128,-1,59
 426 557 426 557 422 543 c 1,60,61
 373 471 373 471 373 420 c 0,62,63
 373 358 373 358 421 316 c 128,-1,64
 469 274 469 274 522 274 c 0,65,66
 582 274 582 274 633 318 c 128,-1,67
 684 362 684 362 684 420 c 0,54,55
EndSplineSet
EndChar

StartChar: afii64184
Encoding: 65010 65010 148
Width: 2681
GlyphClass: 3
Flags: W
AnchorPoint: "Anchor-3" 2370 -480 baselig 0
AnchorPoint: "Anchor-2" 2505 1455 baselig 0
AnchorPoint: "Anchor-3" 1620 -525 baselig 1
AnchorPoint: "Anchor-2" 1695 1410 baselig 1
AnchorPoint: "Anchor-3" 450 -555 baselig 2
AnchorPoint: "Anchor-2" 315 1245 baselig 2
LayerCount: 2
Fore
SplineSet
2613 381 m 2,0,1
 2613 205 2613 205 2501 98 c 1,2,3
 2396 6 2396 6 2216 0 c 1,4,-1
 2005 0 l 2,5,6
 1786 0 1786 0 1692 70 c 1,7,8
 1649 45 1649 45 1594.5 25.5 c 128,-1,9
 1540 6 1540 6 1466 0 c 1,10,-1
 1227 0 l 1,11,-1
 1227 6 l 1,12,13
 1163 20 1163 20 1120 45 c 1,14,15
 1087 59 1087 59 1042 98 c 128,-1,16
 997 137 997 137 926 205 c 1,17,18
 788 -20 788 -20 514 -20 c 0,19,20
 426 -20 426 -20 343 12.5 c 128,-1,21
 260 45 260 45 195.5 107.5 c 128,-1,22
 131 170 131 170 95 256 c 128,-1,23
 59 342 59 342 59 434 c 0,24,25
 59 557 59 557 127 674 c 1,26,27
 152 709 152 709 194 756 c 128,-1,28
 236 803 236 803 293 866 c 1,29,-1
 236 940 l 1,30,-1
 446 1149 l 1,31,-1
 1227 328 l 1,32,-1
 1292 303 l 1,33,-1
 1419 303 l 2,34,35
 1483 303 1483 303 1507 328 c 1,36,37
 1536 342 1536 342 1528 469 c 1,38,-1
 1528 1253 l 1,39,-1
 1843 1253 l 1,40,-1
 1843 367 l 1,41,42
 1849 328 1849 328 1880 328 c 0,43,44
 1933 328 1933 328 1980.5 327 c 128,-1,45
 2028 326 2028 326 2073 326 c 2,46,-1
 2163 326 l 2,47,48
 2210 326 2210 326 2261 328 c 1,49,50
 2308 346 2308 346 2308 469 c 2,51,-1
 2308 1253 l 1,52,-1
 2613 1253 l 1,53,-1
 2613 381 l 2,0,1
1307 1804 m 1,54,-1
 1466 1804 l 1,55,-1
 1466 1610 l 2,56,57
 1466 1554 1466 1554 1528.5 1550 c 128,-1,58
 1591 1546 1591 1546 1591 1614 c 2,59,-1
 1591 1804 l 1,60,-1
 1755 1804 l 1,61,-1
 1755 1614 l 2,62,63
 1755 1579 1755 1579 1777.5 1559.5 c 128,-1,64
 1800 1540 1800 1540 1840 1545 c 128,-1,65
 1880 1550 1880 1550 1880 1591 c 2,66,-1
 1880 1804 l 1,67,-1
 2044 1804 l 1,68,-1
 2044 1610 l 2,69,70
 2044 1516 2044 1516 1997 1452 c 1,71,72
 1944 1389 1944 1389 1847.5 1384.5 c 128,-1,73
 1751 1380 1751 1380 1677 1452 c 1,74,75
 1642 1378 1642 1378 1497 1389 c 1,76,77
 1403 1389 1403 1389 1355 1452.5 c 128,-1,78
 1307 1516 1307 1516 1307 1610 c 2,79,-1
 1307 1804 l 1,54,-1
684 420 m 0,80,81
 684 469 684 469 610 549 c 1,82,-1
 514 645 l 1,83,84
 469 606 469 606 447.5 581.5 c 128,-1,85
 426 557 426 557 422 543 c 1,86,87
 373 471 373 471 373 420 c 0,88,89
 373 358 373 358 421 316 c 128,-1,90
 469 274 469 274 522 274 c 0,91,92
 582 274 582 274 633 318 c 128,-1,93
 684 362 684 362 684 420 c 0,80,81
1628 2222 m 1,94,-1
 1743 2222 l 1,95,-1
 1743 1942 l 1,96,-1
 1628 1942 l 1,97,-1
 1628 2222 l 1,94,-1
EndSplineSet
Ligature2: "'rlig' Required Ligatures in Arabic lookup 5 subtable" afii62817 afii62818 uniFC63 afii62828
Ligature2: "'rlig' Required Ligatures in Arabic lookup 5 subtable" afii62817 afii62818 afii57457 uni0670 afii62828
EndChar

StartChar: afii57415.001
Encoding: 1575 1575 162
Width: 573
GlyphClass: 2
Flags: W
AnchorPoint: "Anchor-1" 330 -465 basechar 0
AnchorPoint: "Anchor-0" 390 1635 basechar 0
LayerCount: 2
Fore
SplineSet
201 0 m 1,0,-1
 201 1466 l 1,1,-1
 500 1466 l 1,2,-1
 500 0 l 1,3,-1
 201 0 l 1,0,-1
EndSplineSet
Substitution2: "'fina' Terminal Forms in Arabic lookup 2 subtable" afii62760
EndChar

StartChar: afii62760.001
Encoding: 65558 -1 163
Width: 659
GlyphClass: 2
Flags: W
LayerCount: 2
Fore
SplineSet
676 0 m 1,0,1
 362 -6 362 -6 274 78 c 0,2,3
 182 166 182 166 186 381 c 1,4,-1
 186 1434 l 1,5,-1
 500 1434 l 1,6,-1
 500 373 l 2,7,8
 500 342 500 342 522 328 c 0,9,10
 547 309 547 309 676 309 c 1,11,-1
 676 0 l 1,12,-1
 676 0 l 1,0,1
EndSplineSet
EndChar

StartChar: afii57421
Encoding: 1581 1581 182
Width: 1522
GlyphClass: 2
Flags: W
AnchorPoint: "Anchor-1" 855 -1590 basechar 0
AnchorPoint: "Anchor-0" 810 1350 basechar 0
LayerCount: 2
Fore
SplineSet
926 -1028 m 2,0,1
 616 -1028 616 -1028 395 -827 c 0,2,3
 170 -623 170 -623 170 -313 c 2,4,-1
 170 -270 l 2,5,6
 170 -98 170 -98 264 45 c 0,7,8
 346 170 346 170 504 260 c 2,9,-1
 1120 598 l 1,10,11
 1077 641 1077 641 1028 641 c 0,12,13
 860 645 860 645 713.5 646 c 128,-1,14
 567 647 567 647 434 647 c 1,15,-1
 395 958 l 1,16,-1
 965 958 l 2,17,18
 1462 958 1462 958 1462 440 c 1,19,-1
 733 31 l 2,20,21
 469 -113 469 -113 469 -328 c 0,22,23
 469 -471 469 -471 596 -598 c 1,24,25
 715 -725 715 -725 860 -725 c 2,26,-1
 1536 -725 l 1,27,-1
 1554 -1028 l 1,28,-1
 926 -1028 l 2,0,1
EndSplineSet
Substitution2: "'medi' Medial Forms in Arabic lookup 3 subtable" afii62775
Substitution2: "'fina' Terminal Forms in Arabic lookup 2 subtable" afii62776
Substitution2: "'init' Initial Forms in Arabic lookup 1 subtable" afii62774
EndChar

StartChar: afii62776
Encoding: 65186 65186 183
Width: 1546
GlyphClass: 2
Flags: W
AnchorPoint: "Anchor-1" 870 -1575 basechar 0
AnchorPoint: "Anchor-0" 825 1380 basechar 0
LayerCount: 2
Fore
SplineSet
1540 0 m 2,0,1
 1350 0 1350 0 1268 31 c 0,2,3
 1130 84 1130 84 1092 236 c 1,4,-1
 725 25 l 1,5,6
 455 -113 455 -113 455 -332 c 0,7,8
 455 -471 455 -471 588 -606 c 1,9,10
 719 -733 719 -733 860 -733 c 2,11,-1
 1528 -733 l 1,12,-1
 1554 -1036 l 1,13,-1
 920 -1036 l 2,14,15
 610 -1036 610 -1036 395 -836 c 1,16,17
 166 -631 166 -631 166 -328 c 2,18,-1
 166 -274 l 2,19,20
 166 -106 166 -106 260 39 c 1,21,22
 358 170 358 170 500 260 c 1,23,-1
 1120 596 l 1,24,25
 1077 631 1077 631 1018 635 c 1,26,27
 958 645 958 645 810 646 c 128,-1,28
 662 647 662 647 426 647 c 1,29,-1
 391 954 l 1,30,-1
 965 954 l 2,31,32
 1462 954 1462 954 1462 434 c 1,33,-1
 1276 328 l 1,34,35
 1356 309 1356 309 1571 309 c 1,36,-1
 1571 0 l 1,37,-1
 1540 0 l 2,0,1
EndSplineSet
EndChar

StartChar: afii62774
Encoding: 65187 65187 184
Width: 1331
GlyphClass: 2
Flags: W
AnchorPoint: "Anchor-1" 750 -690 basechar 0
AnchorPoint: "Anchor-0" 660 1365 basechar 0
LayerCount: 2
Fore
SplineSet
1303 434 m 1,0,1
 1208 383 1208 383 1081 309.5 c 128,-1,2
 954 236 954 236 772 137 c 1,3,4
 684 84 684 84 583.5 52 c 128,-1,5
 483 20 483 20 383 10 c 0,6,7
 270 0 270 0 -39 0 c 1,8,-1
 -39 309 l 1,9,-1
 229 309 l 2,10,11
 322 309 322 309 334 313 c 0,12,13
 471 328 471 328 647 420 c 1,14,15
 725 455 725 455 799.5 499 c 128,-1,16
 874 543 874 543 954 588 c 1,17,18
 926 610 926 610 901.5 620.5 c 128,-1,19
 877 631 877 631 852 635 c 0,20,21
 567 647 567 647 264 645 c 1,22,-1
 225 954 l 1,23,-1
 807 954 l 2,24,25
 1303 954 1303 954 1303 434 c 1,0,1
EndSplineSet
EndChar

StartChar: afii62775
Encoding: 65188 65188 185
Width: 1350
GlyphClass: 2
Flags: W
AnchorPoint: "Anchor-1" 675 -720 basechar 0
AnchorPoint: "Anchor-0" 555 1290 basechar 0
LayerCount: 2
Fore
SplineSet
1370 0 m 1,0,1
 1276 6 1276 6 1203 10 c 128,-1,2
 1130 14 1130 14 1092 31 c 0,3,4
 954 78 954 78 934 233 c 1,5,6
 797 147 797 147 685 103 c 128,-1,7
 573 59 573 59 471 31 c 1,8,9
 313 0 313 0 -39 0 c 1,10,-1
 -39 309 l 1,11,12
 309 309 309 309 414.5 336 c 128,-1,13
 520 363 520 363 647 420 c 0,14,15
 725 455 725 455 799.5 499 c 128,-1,16
 874 543 874 543 954 588 c 1,17,18
 901 635 901 635 852 635 c 0,19,20
 709 645 709 645 565.5 646 c 128,-1,21
 422 647 422 647 264 647 c 1,22,-1
 225 954 l 1,23,-1
 807 954 l 2,24,25
 1300 954 1300 954 1300 434 c 1,26,-1
 1114 328 l 1,27,28
 1126 309 1126 309 1370 309 c 1,29,-1
 1370 0 l 1,30,-1
 1370 0 l 1,0,1
EndSplineSet
EndChar

StartChar: afii57423
Encoding: 1583 1583 190
Width: 1360
GlyphClass: 2
Flags: W
AnchorPoint: "Anchor-1" 510 -585 basechar 0
AnchorPoint: "Anchor-0" 660 1395 basechar 0
LayerCount: 2
Fore
SplineSet
1341 342 m 0,0,1
 1341 260 1341 260 1315.5 198.5 c 128,-1,2
 1290 137 1290 137 1239 91 c 128,-1,3
 1188 45 1188 45 1122.5 22.5 c 128,-1,4
 1057 0 1057 0 983 0 c 2,5,-1
 270 0 l 1,6,-1
 233 309 l 1,7,-1
 965 309 l 2,8,9
 1038 309 1038 309 1038 346 c 0,10,11
 1038 381 1038 381 793 641 c 1,12,-1
 645 786 l 2,13,14
 573 860 573 860 500 940 c 1,15,-1
 715 1149 l 1,16,-1
 1233 606 l 2,17,18
 1253 588 1253 588 1272.5 551 c 128,-1,19
 1292 514 1292 514 1308.5 477 c 128,-1,20
 1325 440 1325 440 1333 403.5 c 128,-1,21
 1341 367 1341 367 1341 342 c 0,0,1
EndSplineSet
Substitution2: "'fina' Terminal Forms in Arabic lookup 2 subtable" afii62780
EndChar

StartChar: afii62780
Encoding: 65194 65194 191
Width: 1628
GlyphClass: 2
Flags: W
AnchorPoint: "Anchor-1" 690 -600 basechar 0
AnchorPoint: "Anchor-0" 615 1470 basechar 0
LayerCount: 2
Fore
SplineSet
1516 0 m 2,0,1
 1395 0 1395 0 1251 119 c 1,2,3
 1208 84 1208 84 1181.5 61.5 c 128,-1,4
 1155 39 1155 39 1121 24.5 c 128,-1,5
 1087 10 1087 10 1050.5 5 c 128,-1,6
 1014 0 1014 0 958 0 c 2,7,-1
 254 0 l 1,8,-1
 215 309 l 1,9,-1
 948 309 l 2,10,11
 1018 309 1018 309 1018 346 c 0,12,13
 1018 362 1018 362 958.5 431 c 128,-1,14
 899 500 899 500 772 635 c 0,15,16
 700 715 700 715 628.5 787.5 c 128,-1,17
 557 860 557 860 483 940 c 1,18,-1
 700 1149 l 1,19,-1
 1370 434 l 2,20,21
 1452 342 1452 342 1491 328 c 0,22,23
 1507 322 1507 322 1549 317.5 c 128,-1,24
 1591 313 1591 313 1659 309 c 1,25,-1
 1659 0 l 1,26,-1
 1516 0 l 2,0,1
EndSplineSet
EndChar

StartChar: afii57425
Encoding: 1585 1585 194
Width: 1227
GlyphClass: 2
Flags: W
AnchorPoint: "Anchor-1" 495 -1110 basechar 0
AnchorPoint: "Anchor-0" 885 1035 basechar 0
LayerCount: 2
Fore
SplineSet
1175 88 m 1,0,1
 1175 -166 1175 -166 1005 -348 c 1,2,3
 844 -535 844 -535 586 -543 c 1,4,-1
 266 -543 l 1,5,-1
 213 -225 l 1,6,-1
 385 -225 l 2,7,8
 858 -225 858 -225 858 45 c 2,9,-1
 858 772 l 1,10,-1
 1175 772 l 1,11,-1
 1175 88 l 1,12,-1
 1175 88 l 1,0,1
EndSplineSet
Substitution2: "'fina' Terminal Forms in Arabic lookup 2 subtable" afii62782
PairPos2: "'kern' Horizontal Kerning in Arabic lookup 1 subtable" afii57470 dx=0 dy=0 dh=0 dv=0 dx=0 dy=0 dh=-100 dv=0
PairPos2: "'kern' Horizontal Kerning in Arabic lookup 1 subtable" afii57415 dx=0 dy=0 dh=0 dv=0 dx=0 dy=0 dh=-220 dv=0
PairPos2: "'kern' Horizontal Kerning in Arabic lookup 1 subtable" afii62840 dx=0 dy=0 dh=0 dv=0 dx=0 dy=0 dh=-200 dv=0
PairPos2: "'kern' Horizontal Kerning in Arabic lookup 1 subtable" afii62838 dx=0 dy=0 dh=0 dv=0 dx=0 dy=0 dh=-200 dv=0
PairPos2: "'kern' Horizontal Kerning in Arabic lookup 1 subtable" afii62836 dx=0 dy=0 dh=0 dv=0 dx=0 dy=0 dh=-200 dv=0
PairPos2: "'kern' Horizontal Kerning in Arabic lookup 1 subtable" afii62834 dx=0 dy=0 dh=0 dv=0 dx=0 dy=0 dh=-200 dv=0
PairPos2: "'kern' Horizontal Kerning in Arabic lookup 1 subtable" afii57415.001 dx=0 dy=0 dh=0 dv=0 dx=0 dy=0 dh=-220 dv=0
PairPos2: "'kern' Horizontal Kerning in Arabic lookup 1 subtable" afii52400 dx=0 dy=0 dh=0 dv=0 dx=0 dy=0 dh=-300 dv=0
PairPos2: "'kern' Horizontal Kerning in Arabic lookup 0 subtable" uni0675 dx=0 dy=0 dh=0 dv=0 dx=0 dy=0 dh=-90 dv=0
PairPos2: "'kern' Horizontal Kerning in Arabic lookup 0 subtable" uni0672 dx=0 dy=0 dh=0 dv=0 dx=0 dy=0 dh=-90 dv=0
PairPos2: "'kern' Horizontal Kerning in Arabic lookup 0 subtable" afii62823 dx=0 dy=0 dh=0 dv=0 dx=0 dy=0 dh=-80 dv=0
PairPos2: "'kern' Horizontal Kerning in Arabic lookup 0 subtable" afii62817 dx=0 dy=0 dh=0 dv=0 dx=0 dy=0 dh=-80 dv=0
PairPos2: "'kern' Horizontal Kerning in Arabic lookup 0 subtable" afii57410 dx=0 dy=0 dh=0 dv=0 dx=0 dy=0 dh=-150 dv=0
PairPos2: "'kern' Horizontal Kerning in Arabic lookup 0 subtable" afii57443 dx=0 dy=0 dh=0 dv=0 dx=0 dy=0 dh=-80 dv=0
PairPos2: "'kern' Horizontal Kerning in Arabic lookup 0 subtable" afii57441 dx=0 dy=0 dh=0 dv=0 dx=0 dy=0 dh=-60 dv=0
PairPos2: "'kern' Horizontal Kerning in Arabic lookup 0 subtable" afii62799 dx=0 dy=0 dh=0 dv=0 dx=0 dy=0 dh=-50 dv=0
PairPos2: "'kern' Horizontal Kerning in Arabic lookup 0 subtable" afii57432 dx=0 dy=0 dh=0 dv=0 dx=0 dy=0 dh=-50 dv=0
PairPos2: "'kern' Horizontal Kerning in Arabic lookup 0 subtable" afii62796 dx=0 dy=0 dh=0 dv=0 dx=0 dy=0 dh=-50 dv=0
PairPos2: "'kern' Horizontal Kerning in Arabic lookup 0 subtable" afii57431 dx=0 dy=0 dh=0 dv=0 dx=0 dy=0 dh=-50 dv=0
PairPos2: "'kern' Horizontal Kerning in Arabic lookup 0 subtable" afii62793 dx=0 dy=0 dh=0 dv=0 dx=0 dy=0 dh=-70 dv=0
PairPos2: "'kern' Horizontal Kerning in Arabic lookup 0 subtable" afii57430 dx=0 dy=0 dh=0 dv=0 dx=0 dy=0 dh=-80 dv=0
PairPos2: "'kern' Horizontal Kerning in Arabic lookup 0 subtable" afii62790 dx=0 dy=0 dh=0 dv=0 dx=0 dy=0 dh=-70 dv=0
PairPos2: "'kern' Horizontal Kerning in Arabic lookup 0 subtable" afii57429 dx=0 dy=0 dh=0 dv=0 dx=0 dy=0 dh=-80 dv=0
PairPos2: "'kern' Horizontal Kerning in Arabic lookup 0 subtable" afii62787 dx=0 dy=0 dh=0 dv=0 dx=0 dy=0 dh=-70 dv=0
PairPos2: "'kern' Horizontal Kerning in Arabic lookup 0 subtable" afii57428 dx=0 dy=0 dh=0 dv=0 dx=0 dy=0 dh=-80 dv=0
PairPos2: "'kern' Horizontal Kerning in Arabic lookup 0 subtable" afii62784 dx=0 dy=0 dh=0 dv=0 dx=0 dy=0 dh=-70 dv=0
PairPos2: "'kern' Horizontal Kerning in Arabic lookup 0 subtable" afii57427 dx=0 dy=0 dh=0 dv=0 dx=0 dy=0 dh=-80 dv=0
PairPos2: "'kern' Horizontal Kerning in Arabic lookup 0 subtable" afii62777 dx=0 dy=0 dh=0 dv=0 dx=0 dy=0 dh=-80 dv=0
PairPos2: "'kern' Horizontal Kerning in Arabic lookup 0 subtable" afii62774 dx=0 dy=0 dh=0 dv=0 dx=0 dy=0 dh=-80 dv=0
PairPos2: "'kern' Horizontal Kerning in Arabic lookup 0 subtable" afii62771 dx=0 dy=0 dh=0 dv=0 dx=0 dy=0 dh=-80 dv=0
PairPos2: "'kern' Horizontal Kerning in Arabic lookup 0 subtable" afii62768 dx=0 dy=0 dh=0 dv=0 dx=0 dy=0 dh=-80 dv=0
PairPos2: "'kern' Horizontal Kerning in Arabic lookup 0 subtable" afii57419 dx=0 dy=0 dh=0 dv=0 dx=0 dy=0 dh=-60 dv=0
PairPos2: "'kern' Horizontal Kerning in Arabic lookup 0 subtable" afii62765 dx=0 dy=0 dh=0 dv=0 dx=0 dy=0 dh=-80 dv=0
PairPos2: "'kern' Horizontal Kerning in Arabic lookup 0 subtable" afii57418 dx=0 dy=0 dh=0 dv=0 dx=0 dy=0 dh=-60 dv=0
PairPos2: "'kern' Horizontal Kerning in Arabic lookup 0 subtable" afii57416 dx=0 dy=0 dh=0 dv=0 dx=0 dy=0 dh=-60 dv=0
PairPos2: "'kern' Horizontal Kerning in Arabic lookup 0 subtable" afii62757 dx=0 dy=0 dh=0 dv=0 dx=0 dy=0 dh=-80 dv=0
PairPos2: "'kern' Horizontal Kerning in Arabic lookup 0 subtable" afii57411 dx=0 dy=0 dh=0 dv=0 dx=0 dy=0 dh=-90 dv=0
PairPos2: "'kern' Horizontal Kerning in Arabic lookup 0 subtable" afii52399 dx=0 dy=0 dh=0 dv=0 dx=0 dy=0 dh=-50 dv=0
PairPos2: "'kern' Horizontal Kerning in Arabic lookup 0 subtable" afii62965 dx=0 dy=0 dh=0 dv=0 dx=0 dy=0 dh=-150 dv=0
PairPos2: "'kern' Horizontal Kerning in Arabic lookup 0 subtable" afii57509 dx=0 dy=0 dh=0 dv=0 dx=0 dy=0 dh=-150 dv=0
PairPos2: "'kern' Horizontal Kerning in Arabic lookup 0 subtable" afii52305 dx=0 dy=0 dh=0 dv=0 dx=0 dy=0 dh=-150 dv=0
PairPos2: "'kern' Horizontal Kerning in Arabic lookup 0 subtable" afii57567 dx=0 dy=0 dh=0 dv=0 dx=0 dy=0 dh=-150 dv=0
PairPos2: "'kern' Horizontal Kerning in Arabic lookup 0 subtable" afii62959 dx=0 dy=0 dh=0 dv=0 dx=0 dy=0 dh=-80 dv=0
PairPos2: "'kern' Horizontal Kerning in Arabic lookup 0 subtable" afii57505 dx=0 dy=0 dh=0 dv=0 dx=0 dy=0 dh=-60 dv=0
PairPos2: "'kern' Horizontal Kerning in Arabic lookup 0 subtable" afii57506 dx=0 dy=0 dh=0 dv=0 dx=0 dy=0 dh=-60 dv=0
EndChar

StartChar: afii62782
Encoding: 65198 65198 195
Width: 1356
GlyphClass: 2
Flags: W
AnchorPoint: "Anchor-1" 465 -1200 basechar 0
AnchorPoint: "Anchor-0" 945 1065 basechar 0
LayerCount: 2
Fore
SplineSet
1293 0 m 2,0,1
 1205 0 1205 0 1137 45 c 1,2,3
 1108 -207 1108 -207 957 -367 c 0,4,5
 795 -543 795 -543 553 -543 c 2,6,-1
 236 -543 l 1,7,-1
 183 -240 l 1,8,-1
 541 -240 l 2,9,10
 643 -240 643 -240 731 -152 c 1,11,12
 828 -78 828 -78 828 39 c 2,13,-1
 828 772 l 1,14,-1
 1137 772 l 1,15,-1
 1137 412 l 2,16,17
 1137 309 1137 309 1377 309 c 1,18,-1
 1377 0 l 1,19,-1
 1293 0 l 2,0,1
EndSplineSet
PairPos2: "'kern' Horizontal Kerning in Arabic lookup 1 subtable" afii57470 dx=0 dy=0 dh=0 dv=0 dx=0 dy=0 dh=-100 dv=0
PairPos2: "'kern' Horizontal Kerning in Arabic lookup 1 subtable" afii57415 dx=0 dy=0 dh=0 dv=0 dx=0 dy=0 dh=-220 dv=0
PairPos2: "'kern' Horizontal Kerning in Arabic lookup 1 subtable" afii62840 dx=0 dy=0 dh=0 dv=0 dx=0 dy=0 dh=-200 dv=0
PairPos2: "'kern' Horizontal Kerning in Arabic lookup 1 subtable" afii62838 dx=0 dy=0 dh=0 dv=0 dx=0 dy=0 dh=-200 dv=0
PairPos2: "'kern' Horizontal Kerning in Arabic lookup 1 subtable" afii62836 dx=0 dy=0 dh=0 dv=0 dx=0 dy=0 dh=-200 dv=0
PairPos2: "'kern' Horizontal Kerning in Arabic lookup 1 subtable" afii62834 dx=0 dy=0 dh=0 dv=0 dx=0 dy=0 dh=-200 dv=0
PairPos2: "'kern' Horizontal Kerning in Arabic lookup 1 subtable" afii57415.001 dx=0 dy=0 dh=0 dv=0 dx=0 dy=0 dh=-220 dv=0
PairPos2: "'kern' Horizontal Kerning in Arabic lookup 1 subtable" afii52400 dx=0 dy=0 dh=0 dv=0 dx=0 dy=0 dh=-300 dv=0
PairPos2: "'kern' Horizontal Kerning in Arabic lookup 0 subtable" uni0675 dx=0 dy=0 dh=0 dv=0 dx=0 dy=0 dh=-70 dv=0
PairPos2: "'kern' Horizontal Kerning in Arabic lookup 0 subtable" uni0672 dx=0 dy=0 dh=0 dv=0 dx=0 dy=0 dh=-70 dv=0
PairPos2: "'kern' Horizontal Kerning in Arabic lookup 0 subtable" afii62823 dx=0 dy=0 dh=0 dv=0 dx=0 dy=0 dh=-70 dv=0
PairPos2: "'kern' Horizontal Kerning in Arabic lookup 0 subtable" afii62817 dx=0 dy=0 dh=0 dv=0 dx=0 dy=0 dh=-50 dv=0
PairPos2: "'kern' Horizontal Kerning in Arabic lookup 0 subtable" afii57410 dx=0 dy=0 dh=0 dv=0 dx=0 dy=0 dh=-150 dv=0
PairPos2: "'kern' Horizontal Kerning in Arabic lookup 0 subtable" afii57443 dx=0 dy=0 dh=0 dv=0 dx=0 dy=0 dh=-50 dv=0
PairPos2: "'kern' Horizontal Kerning in Arabic lookup 0 subtable" afii62768 dx=0 dy=0 dh=0 dv=0 dx=0 dy=0 dh=-70 dv=0
PairPos2: "'kern' Horizontal Kerning in Arabic lookup 0 subtable" afii62765 dx=0 dy=0 dh=0 dv=0 dx=0 dy=0 dh=-70 dv=0
PairPos2: "'kern' Horizontal Kerning in Arabic lookup 0 subtable" afii62757 dx=0 dy=0 dh=0 dv=0 dx=0 dy=0 dh=-70 dv=0
PairPos2: "'kern' Horizontal Kerning in Arabic lookup 0 subtable" afii57411 dx=0 dy=0 dh=0 dv=0 dx=0 dy=0 dh=-70 dv=0
PairPos2: "'kern' Horizontal Kerning in Arabic lookup 0 subtable" afii62965 dx=0 dy=0 dh=0 dv=0 dx=0 dy=0 dh=-150 dv=0
PairPos2: "'kern' Horizontal Kerning in Arabic lookup 0 subtable" afii57509 dx=0 dy=0 dh=0 dv=0 dx=0 dy=0 dh=-150 dv=0
PairPos2: "'kern' Horizontal Kerning in Arabic lookup 0 subtable" afii52305 dx=0 dy=0 dh=0 dv=0 dx=0 dy=0 dh=-150 dv=0
PairPos2: "'kern' Horizontal Kerning in Arabic lookup 0 subtable" afii57567 dx=0 dy=0 dh=0 dv=0 dx=0 dy=0 dh=-150 dv=0
EndChar

StartChar: afii57427
Encoding: 1587 1587 198
Width: 2861
GlyphClass: 2
Flags: W
AnchorPoint: "Anchor-1" 1455 -990 basechar 0
AnchorPoint: "Anchor-0" 1980 1260 basechar 0
LayerCount: 2
Fore
SplineSet
2800 406 m 1,0,1
 2800 236 2800 236 2712 119 c 1,2,3
 2617 0 2617 0 2462 0 c 0,4,5
 2318 0 2318 0 2167 119 c 1,6,7
 2071 -6 2071 -6 1909 -6 c 0,8,9
 1815 -6 1815 -6 1712 45 c 1,10,11
 1683 -201 1683 -201 1528 -358 c 0,12,13
 1370 -522 1370 -522 1130 -522 c 0,14,15
 983 -524 983 -524 899 -524 c 2,16,-1
 803 -524 l 2,17,18
 567 -524 567 -524 397 -342 c 1,19,20
 233 -152 233 -152 233 78 c 2,21,-1
 233 573 l 1,22,-1
 532 573 l 1,23,-1
 532 70 l 2,24,25
 532 -59 532 -59 618.5 -140 c 128,-1,26
 705 -221 705 -221 823 -221 c 2,27,-1
 1114 -221 l 2,28,29
 1165 -221 1165 -221 1220.5 -196.5 c 128,-1,30
 1276 -172 1276 -172 1316 -133 c 128,-1,31
 1356 -94 1356 -94 1379.5 -42 c 128,-1,32
 1403 10 1403 10 1403 70 c 2,33,-1
 1403 782 l 1,34,-1
 1712 782 l 1,35,-1
 1712 420 l 2,36,37
 1712 362 1712 362 1752 327.5 c 128,-1,38
 1792 293 1792 293 1843 293 c 0,39,40
 1944 293 1944 293 1944 383 c 2,41,-1
 1944 782 l 1,42,-1
 2247 782 l 1,43,-1
 2247 422 l 2,44,45
 2247 373 2247 373 2295 333 c 128,-1,46
 2343 293 2343 293 2396 293 c 0,47,48
 2497 293 2497 293 2497 383 c 2,49,-1
 2497 782 l 1,50,-1
 2800 782 l 1,51,-1
 2800 406 l 1,52,-1
 2800 406 l 1,0,1
EndSplineSet
Substitution2: "'medi' Medial Forms in Arabic lookup 3 subtable" afii62785
Substitution2: "'fina' Terminal Forms in Arabic lookup 2 subtable" afii62786
Substitution2: "'init' Initial Forms in Arabic lookup 1 subtable" afii62784
EndChar

StartChar: afii62786
Encoding: 65202 65202 199
Width: 3025
GlyphClass: 2
Flags: W
AnchorPoint: "Anchor-1" 1710 -990 basechar 0
AnchorPoint: "Anchor-0" 1890 1335 basechar 0
LayerCount: 2
Fore
SplineSet
3052 0 m 1,0,1
 2900 0 2900 0 2871 10 c 1,2,3
 2765 25 2765 25 2705 88 c 1,4,5
 2603 -20 2603 -20 2437 -20 c 0,6,7
 2284 -20 2284 -20 2157 98 c 1,8,9
 2036 -20 2036 -20 1880 -20 c 0,10,11
 1835 -20 1835 -20 1793 -13 c 128,-1,12
 1751 -6 1751 -6 1712 20 c 1,13,14
 1683 -221 1683 -221 1528 -373 c 1,15,16
 1370 -535 1370 -535 1130 -543 c 1,17,-1
 797 -543 l 2,18,19
 559 -543 559 -543 395 -358 c 1,20,21
 233 -182 233 -182 233 63 c 2,22,-1
 233 557 l 1,23,-1
 543 557 l 1,24,-1
 543 45 l 2,25,26
 543 -10 543 -10 562.5 -61.5 c 128,-1,27
 582 -113 582 -113 622 -154 c 128,-1,28
 662 -195 662 -195 715 -217.5 c 128,-1,29
 768 -240 768 -240 823 -240 c 2,30,-1
 1114 -240 l 2,31,32
 1174 -240 1174 -240 1225 -217.5 c 128,-1,33
 1276 -195 1276 -195 1316 -154 c 128,-1,34
 1356 -113 1356 -113 1379.5 -61.5 c 128,-1,35
 1403 -10 1403 -10 1403 45 c 2,36,-1
 1403 772 l 1,37,-1
 1716 772 l 1,38,-1
 1716 406 l 2,39,40
 1716 346 1716 346 1758 310 c 128,-1,41
 1800 274 1800 274 1849 274 c 0,42,43
 1944 274 1944 274 1944 367 c 2,44,-1
 1944 772 l 1,45,-1
 2255 772 l 1,46,-1
 2255 406 l 2,47,48
 2255 352 2255 352 2299 313 c 128,-1,49
 2343 274 2343 274 2392 274 c 0,50,51
 2497 274 2497 274 2497 373 c 2,52,-1
 2497 772 l 1,53,-1
 2808 772 l 1,54,-1
 2808 391 l 2,55,56
 2808 313 2808 313 3052 309 c 1,57,-1
 3052 0 l 1,58,-1
 3052 0 l 1,0,1
EndSplineSet
EndChar

StartChar: afii62784
Encoding: 65203 65203 200
Width: 1786
GlyphClass: 2
Flags: W
AnchorPoint: "Anchor-1" 945 -660 basechar 0
AnchorPoint: "Anchor-0" 1020 1260 basechar 0
LayerCount: 2
Fore
SplineSet
1761 391 m 1,0,1
 1761 221 1761 221 1669 98 c 0,2,3
 1579 -20 1579 -20 1409 -20 c 0,4,5
 1253 -20 1253 -20 1114 98 c 1,6,7
 987 -20 987 -20 852 -20 c 0,8,9
 709 -20 709 -20 559 131 c 1,10,11
 469 59 469 59 426 39 c 0,12,13
 352 0 352 0 283 0 c 2,14,-1
 -45 0 l 1,15,-1
 -45 309 l 1,16,-1
 70 309 l 2,17,18
 98 309 98 309 125 308 c 128,-1,19
 152 307 152 307 166 307 c 0,20,21
 236 307 236 307 274.5 310 c 128,-1,22
 313 313 313 313 335.5 332.5 c 128,-1,23
 358 352 358 352 365.5 387 c 128,-1,24
 373 422 373 422 373 471 c 2,25,-1
 373 772 l 1,26,-1
 674 772 l 1,27,-1
 674 406 l 2,28,29
 674 346 674 346 716 310 c 128,-1,30
 758 274 758 274 807 274 c 0,31,32
 909 274 909 274 909 367 c 2,33,-1
 909 772 l 1,34,-1
 1208 772 l 1,35,-1
 1208 406 l 2,36,37
 1208 358 1208 358 1255.5 316 c 128,-1,38
 1303 274 1303 274 1356 274 c 0,39,40
 1458 274 1458 274 1458 373 c 2,41,-1
 1458 772 l 1,42,-1
 1761 772 l 1,43,-1
 1761 391 l 1,44,-1
 1761 391 l 1,0,1
EndSplineSet
EndChar

StartChar: afii62785
Encoding: 65204 65204 201
Width: 1976
GlyphClass: 2
Flags: W
AnchorPoint: "Anchor-1" 930 -735 basechar 0
AnchorPoint: "Anchor-0" 990 1170 basechar 0
LayerCount: 2
Fore
SplineSet
1874 0 m 2,0,1
 1829 0 1829 0 1777.5 12.5 c 128,-1,2
 1726 25 1726 25 1659 88 c 1,3,4
 1561 -20 1561 -20 1413 -20 c 0,5,6
 1290 -20 1290 -20 1126 98 c 1,7,8
 997 -20 997 -20 813 -20 c 0,9,10
 635 -20 635 -20 514 98 c 1,11,12
 412 25 412 25 246 10 c 0,13,14
 166 0 166 0 -45 0 c 1,15,-1
 -45 309 l 1,16,-1
 254 309 l 1,17,18
 356 303 356 303 362 416 c 1,19,-1
 362 772 l 1,20,-1
 666 772 l 1,21,-1
 666 406 l 2,22,23
 666 346 666 346 707 310 c 128,-1,24
 748 274 748 274 803 274 c 0,25,26
 909 274 909 274 909 367 c 2,27,-1
 909 772 l 1,28,-1
 1208 772 l 1,29,-1
 1208 406 l 2,30,31
 1208 358 1208 358 1250 316 c 128,-1,32
 1292 274 1292 274 1350 274 c 0,33,34
 1448 274 1448 274 1448 373 c 2,35,-1
 1448 772 l 1,36,-1
 1755 772 l 1,37,-1
 1755 391 l 2,38,39
 1755 328 1755 328 1860 309 c 1,40,-1
 2005 309 l 1,41,-1
 2005 0 l 1,42,-1
 1874 0 l 2,0,1
EndSplineSet
EndChar

StartChar: afii57429
Encoding: 1589 1589 206
Width: 2970
GlyphClass: 2
Flags: W
AnchorPoint: "Anchor-1" 1455 -1035 basechar 0
AnchorPoint: "Anchor-0" 1605 1395 basechar 0
LayerCount: 2
Fore
SplineSet
2871 395 m 1,0,1
 2871 221 2871 221 2750 109 c 1,2,3
 2628 10 2628 10 2456 10 c 2,4,-1
 1864 6 l 2,5,6
 1767 6 1767 6 1683 45 c 1,7,8
 1653 -195 1653 -195 1503 -358 c 0,9,10
 1339 -535 1339 -535 1110 -543 c 1,11,-1
 774 -543 l 2,12,13
 543 -543 543 -543 373 -342 c 0,14,15
 205 -147 205 -147 205 88 c 2,16,-1
 205 559 l 1,17,-1
 514 559 l 1,18,-1
 514 45 l 2,19,20
 514 -29 514 -29 573 -88 c 1,21,22
 623 -158 623 -158 694 -195 c 0,23,24
 750 -225 750 -225 797 -225 c 2,25,-1
 1096 -225 l 2,26,27
 1141 -225 1141 -225 1192 -198.5 c 128,-1,28
 1243 -172 1243 -172 1285 -135 c 128,-1,29
 1327 -98 1327 -98 1353.5 -52 c 128,-1,30
 1380 -6 1380 -6 1380 45 c 2,31,-1
 1380 772 l 1,32,-1
 1698 772 l 1,33,-1
 1698 406 l 2,34,35
 1698 313 1698 313 1819 313 c 1,36,37
 2071 958 2071 958 2456 958 c 0,38,39
 2660 958 2660 958 2775 772 c 0,40,41
 2877 606 2877 606 2871 395 c 1,0,1
2583 455 m 1,42,43
 2599 553 2599 553 2497 647 c 1,44,-1
 2494 647 l 1,45,46
 2357 662 2357 662 2265 534 c 128,-1,47
 2173 406 2173 406 2144 313 c 1,48,-1
 2486 313 l 2,49,50
 2535 313 2535 313 2559 362.5 c 128,-1,51
 2583 412 2583 412 2583 455 c 1,42,43
EndSplineSet
Substitution2: "'medi' Medial Forms in Arabic lookup 3 subtable" afii62791
Substitution2: "'fina' Terminal Forms in Arabic lookup 2 subtable" afii62792
Substitution2: "'init' Initial Forms in Arabic lookup 1 subtable" afii62790
EndChar

StartChar: afii62792
Encoding: 65210 65210 207
Width: 2963
GlyphClass: 2
Flags: W
AnchorPoint: "Anchor-1" 1530 -1020 basechar 0
AnchorPoint: "Anchor-0" 1725 1380 basechar 0
LayerCount: 2
Fore
SplineSet
1962 0 m 2,0,1
 1880 0 1880 0 1823.5 12.5 c 128,-1,2
 1767 25 1767 25 1716 45 c 1,3,4
 1683 -215 1683 -215 1546 -373 c 1,5,6
 1389 -543 1389 -543 1130 -543 c 2,7,-1
 797 -543 l 2,8,9
 549 -543 549 -543 391 -348 c 1,10,11
 236 -170 236 -170 236 88 c 2,12,-1
 236 557 l 1,13,-1
 543 557 l 1,14,-1
 543 39 l 2,15,16
 543 -20 543 -20 565.5 -66.5 c 128,-1,17
 588 -113 588 -113 627 -151.5 c 128,-1,18
 666 -190 666 -190 715 -215 c 128,-1,19
 764 -240 764 -240 821 -240 c 2,20,-1
 1120 -240 l 2,21,22
 1165 -240 1165 -240 1218.5 -215 c 128,-1,23
 1272 -190 1272 -190 1311 -148 c 128,-1,24
 1350 -106 1350 -106 1376.5 -58 c 128,-1,25
 1403 -10 1403 -10 1403 39 c 2,26,-1
 1403 772 l 1,27,-1
 1716 772 l 1,28,-1
 1716 406 l 2,29,30
 1716 309 1716 309 1835 313 c 1,31,32
 2118 958 2118 958 2462 958 c 0,33,34
 2660 958 2660 958 2779 803 c 0,35,36
 2888 655 2888 655 2888 455 c 0,37,38
 2888 434 2888 434 2882.5 396 c 128,-1,39
 2877 358 2877 358 2875 309 c 1,40,-1
 2980 309 l 1,41,-1
 2980 0 l 1,42,-1
 1962 0 l 2,0,1
2583 469 m 0,43,44
 2583 588 2583 588 2529 631 c 0,45,46
 2525 635 2525 635 2517 638 c 128,-1,47
 2509 641 2509 641 2494 645 c 1,48,49
 2417 645 2417 645 2308 510 c 0,50,51
 2261 455 2261 455 2226 408.5 c 128,-1,52
 2191 362 2191 362 2167 309 c 1,53,-1
 2509 309 l 2,54,55
 2583 309 2583 309 2583 469 c 0,43,44
EndSplineSet
EndChar

StartChar: afii62790
Encoding: 65211 65211 208
Width: 1884
GlyphClass: 2
Flags: W
AnchorPoint: "Anchor-1" 825 -615 basechar 0
AnchorPoint: "Anchor-0" 810 1425 basechar 0
LayerCount: 2
Fore
SplineSet
1853 469 m 0,0,1
 1853 221 1853 221 1757 113 c 1,2,3
 1667 0 1667 0 1427 0 c 2,4,-1
 885 0 l 2,5,6
 670 0 670 0 573 141 c 1,7,8
 446 6 446 6 289 0 c 1,9,-1
 -20 0 l 1,10,-1
 -20 309 l 1,11,-1
 279 309 l 1,12,13
 371 342 371 342 371 469 c 2,14,-1
 371 772 l 1,15,-1
 674 772 l 1,16,-1
 674 446 l 2,17,18
 674 328 674 328 807 313 c 1,19,20
 1047 954 1047 954 1434 954 c 0,21,22
 1616 954 1616 954 1741 803 c 0,23,24
 1853 662 1853 662 1853 469 c 0,0,1
1542 469 m 0,25,26
 1542 582 1542 582 1491 635 c 1,27,28
 1473 647 1473 647 1446 649 c 128,-1,29
 1419 651 1419 651 1389 645 c 1,30,31
 1331 645 1331 645 1139 309 c 1,32,-1
 1473 309 l 2,33,34
 1542 309 1542 309 1542 469 c 0,25,26
EndSplineSet
EndChar

StartChar: afii62791
Encoding: 65212 65212 209
Width: 1987
GlyphClass: 2
Flags: W
AnchorPoint: "Anchor-1" 855 -735 basechar 0
AnchorPoint: "Anchor-0" 900 1320 basechar 0
LayerCount: 2
Fore
SplineSet
870 0 m 2,0,1
 659 0 659 0 559 141 c 1,2,3
 440 6 440 6 279 0 c 1,4,-1
 -29 0 l 1,5,-1
 -29 309 l 1,6,7
 117 309 117 309 187.5 311 c 128,-1,8
 258 313 258 313 274 313 c 1,9,10
 356 342 356 342 362 469 c 1,11,-1
 362 772 l 1,12,-1
 666 772 l 1,13,-1
 666 446 l 2,14,15
 666 328 666 328 797 313 c 1,16,17
 1038 954 1038 954 1419 954 c 0,18,19
 1595 954 1595 954 1726 803 c 0,20,21
 1843 666 1843 666 1843 485 c 0,22,23
 1843 434 1843 434 1837 390 c 128,-1,24
 1831 346 1831 346 1821 309 c 1,25,-1
 2015 309 l 1,26,-1
 2015 0 l 1,27,-1
 870 0 l 2,0,1
1540 469 m 1,28,29
 1532 588 1532 588 1479 635 c 0,30,31
 1466 647 1466 647 1439.5 649 c 128,-1,32
 1413 651 1413 651 1380 645 c 1,33,34
 1327 645 1327 645 1116 309 c 1,35,-1
 1466 309 l 2,36,37
 1532 309 1532 309 1540 469 c 1,28,29
EndSplineSet
EndChar

StartChar: afii57431
Encoding: 1591 1591 214
Width: 1483
GlyphClass: 2
Flags: W
AnchorPoint: "Anchor-1" 750 -555 basechar 0
AnchorPoint: "Anchor-0" 1170 1575 basechar 0
LayerCount: 2
Fore
SplineSet
1452 440 m 1,0,1
 1452 254 1452 254 1356 131 c 1,2,3
 1239 0 1239 0 1061 0 c 2,4,-1
 283 0 l 1,5,-1
 215 309 l 1,6,-1
 406 309 l 1,7,-1
 406 1466 l 1,8,-1
 709 1466 l 1,9,-1
 709 782 l 1,10,11
 885 954 885 954 1036 954 c 0,12,13
 1239 954 1239 954 1348.5 794.5 c 128,-1,14
 1458 635 1458 635 1452 440 c 1,0,1
1145 479 m 0,15,16
 1135 582 1135 582 1087 635 c 1,17,18
 1067 641 1067 641 1047.5 643 c 128,-1,19
 1028 645 1028 645 1014 645 c 0,20,21
 983 645 983 645 898 567 c 128,-1,22
 813 489 813 489 780.5 425.5 c 128,-1,23
 748 362 748 362 725 309 c 1,24,-1
 1061 309 l 2,25,26
 1100 309 1100 309 1130 381 c 0,27,28
 1141 406 1141 406 1143 428.5 c 128,-1,29
 1145 451 1145 451 1145 479 c 0,15,16
EndSplineSet
Substitution2: "'medi' Medial Forms in Arabic lookup 3 subtable" afii62797
Substitution2: "'fina' Terminal Forms in Arabic lookup 2 subtable" afii62798
Substitution2: "'init' Initial Forms in Arabic lookup 1 subtable" afii62796
EndChar

StartChar: afii62798
Encoding: 65218 65218 215
Width: 1518
GlyphClass: 2
Flags: W
AnchorPoint: "Anchor-1" 900 -600 basechar 0
AnchorPoint: "Anchor-0" 1155 1455 basechar 0
LayerCount: 2
Fore
SplineSet
283 0 m 1,0,-1
 221 309 l 1,1,-1
 412 309 l 1,2,-1
 412 1466 l 1,3,-1
 715 1466 l 1,4,-1
 715 782 l 1,5,6
 885 954 885 954 1038 954 c 1,7,8
 1165 965 1165 965 1309.5 857.5 c 128,-1,9
 1454 750 1454 750 1458 420 c 0,10,11
 1458 381 1458 381 1434 309 c 1,12,-1
 1540 309 l 1,13,-1
 1540 0 l 1,14,-1
 283 0 l 1,0,-1
1163 479 m 1,15,16
 1163 582 1163 582 1120 635 c 1,17,18
 1096 641 1096 641 1035.5 643 c 128,-1,19
 975 645 975 645 873.5 532.5 c 128,-1,20
 772 420 772 420 733 309 c 1,21,-1
 1087 309 l 2,22,23
 1126 309 1126 309 1163 479 c 1,15,16
EndSplineSet
EndChar

StartChar: afii62796
Encoding: 65219 65219 216
Width: 1239
GlyphClass: 2
Flags: W
AnchorPoint: "Anchor-1" 495 -660 basechar 0
AnchorPoint: "Anchor-0" 825 1500 basechar 0
LayerCount: 2
Fore
SplineSet
1212 440 m 0,0,1
 1212 254 1212 254 1114 131 c 0,2,3
 1014 0 1014 0 823 0 c 2,4,-1
 -14 0 l 1,5,-1
 -14 309 l 1,6,-1
 162 309 l 1,7,-1
 162 1466 l 1,8,-1
 479 1466 l 1,9,-1
 479 788 l 1,10,11
 641 954 641 954 797 954 c 0,12,13
 979 954 979 954 1106 782 c 1,14,15
 1212 631 1212 631 1212 440 c 0,0,1
920 469 m 0,16,17
 920 573 920 573 860 635 c 1,18,19
 831 641 831 641 814 643 c 128,-1,20
 797 645 797 645 764 645 c 0,21,22
 715 645 715 645 637 557 c 128,-1,23
 559 469 559 469 531.5 415.5 c 128,-1,24
 504 362 504 362 483 309 c 1,25,-1
 838 309 l 2,26,27
 920 309 920 309 920 469 c 0,16,17
EndSplineSet
EndChar

StartChar: afii62797
Encoding: 65220 65220 217
Width: 1262
GlyphClass: 2
Flags: W
AnchorPoint: "Anchor-1" 495 -705 basechar 0
AnchorPoint: "Anchor-0" 855 1500 basechar 0
LayerCount: 2
Fore
SplineSet
-20 0 m 1,0,-1
 -20 309 l 1,1,-1
 127 309 l 1,2,-1
 127 1466 l 1,3,-1
 434 1466 l 1,4,-1
 434 782 l 1,5,6
 602 940 602 940 720 945 c 128,-1,7
 838 950 838 950 948 901 c 1,8,9
 1169 788 1169 788 1169 455 c 0,10,11
 1169 422 1169 422 1166 384 c 128,-1,12
 1163 346 1163 346 1155 309 c 1,13,-1
 1282 309 l 1,14,-1
 1282 0 l 1,15,-1
 -20 0 l 1,0,-1
881 479 m 0,16,17
 881 582 881 582 836 635 c 1,18,19
 813 641 813 641 795.5 643 c 128,-1,20
 778 645 778 645 762 645 c 0,21,22
 705 645 705 645 592 532.5 c 128,-1,23
 479 420 479 420 451 309 c 1,24,-1
 811 309 l 2,25,26
 842 309 842 309 866 381 c 0,27,28
 881 434 881 434 881 479 c 0,16,17
EndSplineSet
EndChar

StartChar: afii57433
Encoding: 1593 1593 222
Width: 1628
GlyphClass: 2
Flags: W
AnchorPoint: "Anchor-1" 885 -1560 basechar 0
AnchorPoint: "Anchor-0" 1125 1260 basechar 0
LayerCount: 2
Fore
SplineSet
1004 -1036 m 2,0,1
 709 -1036 709 -1036 483 -836 c 1,2,3
 260 -623 260 -623 260 -328 c 0,4,5
 260 84 260 84 694 295 c 1,6,7
 666 373 666 373 653.5 428 c 128,-1,8
 641 483 641 483 641 524 c 0,9,10
 641 725 641 725 772 842 c 0,11,12
 899 954 899 954 1100 954 c 0,13,14
 1300 954 1300 954 1522 758 c 1,15,-1
 1370 514 l 1,16,17
 1155 662 1155 662 1067 662 c 0,18,19
 954 662 954 662 940 504 c 1,20,21
 950 434 950 434 982 371.5 c 128,-1,22
 1014 309 1014 309 1077 309 c 2,23,-1
 1546 309 l 1,24,-1
 1589 0 l 1,25,-1
 821 0 l 2,26,27
 694 0 694 0 631 -98 c 0,28,29
 573 -190 573 -190 573 -332 c 0,30,31
 573 -508 573 -508 675.5 -620.5 c 128,-1,32
 778 -733 778 -733 958 -733 c 2,33,-1
 1579 -733 l 1,34,-1
 1628 -1036 l 1,35,-1
 1004 -1036 l 2,0,1
EndSplineSet
Substitution2: "'medi' Medial Forms in Arabic lookup 3 subtable" afii62803
Substitution2: "'fina' Terminal Forms in Arabic lookup 2 subtable" afii62804
Substitution2: "'init' Initial Forms in Arabic lookup 1 subtable" afii62802
EndChar

StartChar: afii62804
Encoding: 65226 65226 223
Width: 1575
GlyphClass: 2
Flags: W
AnchorPoint: "Anchor-1" 885 -1650 basechar 0
AnchorPoint: "Anchor-0" 915 1335 basechar 0
LayerCount: 2
Fore
SplineSet
1413 0 m 2,0,1
 1262 0 1262 0 1138 39 c 128,-1,2
 1014 78 1014 78 934 152 c 1,3,4
 471 -49 471 -49 471 -334 c 0,5,6
 471 -485 471 -485 598 -606 c 1,7,8
 709 -733 709 -733 860 -733 c 2,9,-1
 1528 -733 l 1,10,-1
 1554 -1036 l 1,11,-1
 920 -1036 l 2,12,13
 631 -1036 631 -1036 406 -827 c 1,14,15
 182 -612 182 -612 182 -313 c 0,16,17
 182 119 182 119 705 373 c 1,18,-1
 446 631 l 1,19,-1
 610 954 l 1,20,-1
 1100 954 l 2,21,22
 1360 954 1360 954 1434 758 c 1,23,24
 1452 694 1452 694 1452 674 c 0,25,26
 1452 446 1452 446 1253 328 c 1,27,28
 1282 317 1282 317 1326 313 c 128,-1,29
 1370 309 1370 309 1417 309 c 2,30,-1
 1589 309 l 1,31,-1
 1589 0 l 1,32,-1
 1413 0 l 2,0,1
1141 635 m 1,33,34
 1114 645 1114 645 1041.5 646 c 128,-1,35
 969 647 969 647 860 647 c 1,36,-1
 987 504 l 1,37,38
 1126 582 1126 582 1141 635 c 1,33,34
EndSplineSet
EndChar

StartChar: afii62802
Encoding: 65227 65227 224
Width: 1190
GlyphClass: 2
Flags: W
AnchorPoint: "Anchor-1" 600 -675 basechar 0
AnchorPoint: "Anchor-0" 630 1290 basechar 0
LayerCount: 2
Fore
SplineSet
-29 0 m 1,0,-1
 -29 309 l 1,1,-1
 264 309 l 1,2,3
 219 434 219 434 219 524 c 0,4,5
 219 666 219 666 298 775.5 c 128,-1,6
 377 885 377 885 504 934 c 1,7,8
 578 954 578 954 700 954 c 0,9,10
 885 954 885 954 1092 754 c 1,11,-1
 938 514 l 1,12,13
 813 588 813 588 739.5 625 c 128,-1,14
 666 662 666 662 635 662 c 0,15,16
 510 662 510 662 504 500 c 1,17,18
 508 434 508 434 543 371.5 c 128,-1,19
 578 309 578 309 641 309 c 2,20,-1
 1110 309 l 1,21,-1
 1159 0 l 1,22,-1
 -29 0 l 1,0,-1
EndSplineSet
EndChar

StartChar: afii62803
Encoding: 65228 65228 225
Width: 1126
GlyphClass: 2
Flags: W
AnchorPoint: "Anchor-1" 450 -630 basechar 0
AnchorPoint: "Anchor-0" 495 1350 basechar 0
LayerCount: 2
Fore
SplineSet
983 0 m 2,0,1
 758 0 758 0 582 147 c 1,2,3
 451 45 451 45 293 10 c 1,4,5
 195 -4 195 -4 -20 0 c 1,6,-1
 -20 309 l 1,7,8
 260 309 260 309 328 346 c 1,9,-1
 45 631 l 1,10,-1
 221 954 l 1,11,-1
 709 954 l 2,12,13
 842 954 842 954 940 885 c 0,14,15
 1051 807 1051 807 1051 674 c 0,16,17
 1051 547 1051 547 1008 471 c 1,18,19
 975 422 975 422 860 328 c 1,20,21
 926 313 926 313 996.5 310 c 128,-1,22
 1067 307 1067 307 1149 309 c 1,23,-1
 1149 0 l 1,24,-1
 983 0 l 2,0,1
733 631 m 1,25,26
 715 645 715 645 699.5 646 c 128,-1,27
 684 647 684 647 666 647 c 2,28,-1
 446 647 l 1,29,-1
 582 510 l 1,30,31
 709 573 709 573 733 631 c 1,25,26
EndSplineSet
EndChar

StartChar: afii57443
Encoding: 1603 1603 238
Width: 2085
GlyphClass: 2
Flags: W
AnchorPoint: "Anchor-1" 1005 -600 basechar 0
AnchorPoint: "Anchor-0" 1005 1560 basechar 0
LayerCount: 2
Fore
SplineSet
2044 342 m 2,0,1
 2044 186 2044 186 1949.5 90 c 128,-1,2
 1855 -6 1855 -6 1669 0 c 1,3,-1
 559 0 l 2,4,5
 406 0 406 0 303 119 c 1,6,7
 215 236 215 236 215 397 c 2,8,-1
 215 772 l 1,9,-1
 514 772 l 1,10,-1
 514 426 l 2,11,12
 514 346 514 346 535.5 327.5 c 128,-1,13
 557 309 557 309 631 309 c 2,14,-1
 1642 309 l 1,15,16
 1722 313 1722 313 1731.5 362.5 c 128,-1,17
 1741 412 1741 412 1741 469 c 2,18,-1
 1741 1466 l 1,19,-1
 2044 1466 l 1,20,-1
 2044 342 l 2,0,1
926 764 m 1,21,-1
 852 915 l 1,22,-1
 954 958 l 1,23,24
 885 1028 885 1028 885 1114 c 0,25,26
 885 1204 885 1204 946.5 1271.5 c 128,-1,27
 1008 1339 1008 1339 1106 1339 c 0,28,29
 1165 1339 1165 1339 1272 1300 c 1,30,-1
 1198 1141 l 1,31,32
 1174 1174 1174 1174 1147 1181 c 128,-1,33
 1120 1188 1120 1188 1106 1194 c 1,34,35
 1087 1188 1087 1188 1061 1174 c 1,36,37
 1047 1141 1047 1141 1047 1114 c 0,38,39
 1047 1067 1047 1067 1087 1067 c 0,40,41
 1135 1067 1135 1067 1303 1141 c 1,42,-1
 1370 989 l 1,43,-1
 926 764 l 1,21,-1
EndSplineSet
Substitution2: "'medi' Medial Forms in Arabic lookup 3 subtable" afii52306
Substitution2: "'fina' Terminal Forms in Arabic lookup 2 subtable" afii62816
Substitution2: "'init' Initial Forms in Arabic lookup 1 subtable" afii52305
EndChar

StartChar: afii62816
Encoding: 65242 65242 239
Width: 2329
GlyphClass: 2
Flags: W
AnchorPoint: "Anchor-1" 1020 -705 basechar 0
AnchorPoint: "Anchor-0" 1065 1500 basechar 0
LayerCount: 2
Fore
SplineSet
2271 0 m 2,0,1
 2089 0 2089 0 1966 113 c 1,2,3
 1962 106 1962 106 1944 98 c 1,4,5
 1843 6 1843 6 1669 0 c 1,6,-1
 549 0 l 2,7,8
 395 0 395 0 293 119 c 1,9,10
 195 240 195 240 195 397 c 2,11,-1
 195 772 l 1,12,-1
 500 772 l 1,13,-1
 500 426 l 2,14,15
 500 346 500 346 516 327.5 c 128,-1,16
 532 309 532 309 610 309 c 2,17,-1
 1659 309 l 1,18,19
 1712 313 1712 313 1733.5 352 c 128,-1,20
 1755 391 1755 391 1755 469 c 2,21,-1
 1755 1466 l 1,22,-1
 2056 1466 l 1,23,-1
 2056 440 l 1,24,25
 2075 373 2075 373 2145.5 340 c 128,-1,26
 2216 307 2216 307 2353 309 c 1,27,-1
 2353 0 l 1,28,-1
 2271 0 l 2,0,1
997 655 m 1,29,-1
 926 803 l 1,30,-1
 1018 852 l 1,31,32
 958 920 958 920 958 1004 c 0,33,34
 958 1100 958 1100 1017.5 1166.5 c 128,-1,35
 1077 1233 1077 1233 1174 1233 c 0,36,37
 1237 1233 1237 1233 1339 1188 c 1,38,-1
 1272 1038 l 1,39,40
 1239 1061 1239 1061 1213.5 1071 c 128,-1,41
 1188 1081 1188 1081 1174 1081 c 0,42,43
 1155 1081 1155 1081 1130 1061 c 1,44,45
 1114 1036 1114 1036 1114 1004 c 0,46,47
 1114 958 1114 958 1155 958 c 0,48,49
 1204 958 1204 958 1370 1036 c 1,50,-1
 1448 885 l 1,51,-1
 997 655 l 1,29,-1
EndSplineSet
EndChar

StartChar: afii57444
Encoding: 1604 1604 242
Width: 1815
GlyphClass: 2
Flags: W
AnchorPoint: "Anchor-1" 915 -1155 basechar 0
AnchorPoint: "Anchor-0" 990 1605 basechar 0
LayerCount: 2
Fore
SplineSet
1751 78 m 1,0,1
 1751 -182 1751 -182 1581 -358 c 0,2,3
 1413 -535 1413 -535 1155 -543 c 1,4,-1
 827 -543 l 2,5,6
 610 -543 610 -543 434 -348 c 1,7,8
 260 -170 260 -170 260 63 c 2,9,-1
 260 559 l 1,10,-1
 573 559 l 1,11,-1
 573 45 l 2,12,13
 573 -70 573 -70 666 -147 c 0,14,15
 764 -225 764 -225 874 -225 c 2,16,-1
 1141 -225 l 2,17,18
 1198 -225 1198 -225 1252.5 -203.5 c 128,-1,19
 1307 -182 1307 -182 1348 -144 c 128,-1,20
 1389 -106 1389 -106 1411.5 -58 c 128,-1,21
 1434 -10 1434 -10 1434 45 c 2,22,-1
 1434 1479 l 1,23,-1
 1751 1479 l 1,24,-1
 1751 78 l 1,25,-1
 1751 78 l 1,0,1
EndSplineSet
Substitution2: "'medi' Medial Forms in Arabic lookup 3 subtable" afii62818
Substitution2: "'fina' Terminal Forms in Arabic lookup 2 subtable" afii62819
Substitution2: "'init' Initial Forms in Arabic lookup 1 subtable" afii62817
EndChar

StartChar: afii62817
Encoding: 65247 65247 243
Width: 600
GlyphClass: 2
Flags: W
AnchorPoint: "Anchor-1" 270 -615 basechar 0
AnchorPoint: "Anchor-0" 390 1665 basechar 0
LayerCount: 2
Fore
SplineSet
567 381 m 1,0,1
 567 205 567 205 451 98 c 0,2,3
 352 6 352 6 176 0 c 1,4,-1
 -31 0 l 1,5,-1
 -31 309 l 1,6,-1
 166 309 l 1,7,8
 221 313 221 313 242.5 352 c 128,-1,9
 264 391 264 391 264 469 c 2,10,-1
 264 1466 l 1,11,-1
 567 1466 l 1,12,-1
 567 381 l 1,13,-1
 567 381 l 1,0,1
EndSplineSet
EndChar

StartChar: afii62818
Encoding: 65248 65248 244
Width: 850
GlyphClass: 2
Flags: W
AnchorPoint: "Anchor-1" 390 -660 basechar 0
AnchorPoint: "Anchor-0" 420 1665 basechar 0
LayerCount: 2
Fore
SplineSet
764 0 m 2,0,1
 549 0 549 0 451 70 c 1,2,3
 410 45 410 45 354.5 25.5 c 128,-1,4
 299 6 299 6 229 0 c 1,5,-1
 -14 0 l 1,6,-1
 -14 309 l 1,7,-1
 182 309 l 2,8,9
 297 312 297 312 295 476 c 2,10,-1
 295 1466 l 1,11,-1
 606 1466 l 1,12,-1
 612 407 l 2,13,14
 610 360 610 360 650 334.5 c 128,-1,15
 690 309 690 309 877 309 c 1,16,-1
 877 0 l 1,17,-1
 764 0 l 2,0,1
EndSplineSet
EndChar

StartChar: afii57445
Encoding: 1605 1605 245
Width: 1571
GlyphClass: 2
Flags: W
AnchorPoint: "Anchor-1" 975 -825 basechar 0
AnchorPoint: "Anchor-0" 900 1215 basechar 0
LayerCount: 2
Fore
SplineSet
1507 207 m 0,0,1
 1507 53 1507 53 1380 -70 c 1,2,3
 1253 -182 1253 -182 1092 -182 c 0,4,5
 997 -182 997 -182 919.5 -147.5 c 128,-1,6
 842 -113 842 -113 787.5 -59.5 c 128,-1,7
 733 -6 733 -6 699.5 73 c 128,-1,8
 666 152 666 152 666 254 c 2,9,-1
 666 469 l 1,10,11
 610 469 610 469 562 415.5 c 128,-1,12
 514 362 514 362 514 295 c 2,13,-1
 514 -725 l 1,14,-1
 215 -725 l 1,15,-1
 215 274 l 2,16,17
 215 500 215 500 342 635 c 0,18,19
 469 772 469 772 684 772 c 2,20,-1
 1120 772 l 2,21,22
 1360 772 1360 772 1448 598 c 1,23,24
 1507 469 1507 469 1507 207 c 0,0,1
1208 274 m 2,25,26
 1208 397 1208 397 1188 434 c 1,27,28
 1141 475 1141 475 965 469 c 1,29,-1
 965 221 l 2,30,31
 965 170 965 170 1014 141 c 0,32,33
 1036 131 1036 131 1056.5 125 c 128,-1,34
 1077 119 1077 119 1100 119 c 0,35,36
 1208 119 1208 119 1208 240 c 2,37,-1
 1208 274 l 2,25,26
EndSplineSet
Substitution2: "'medi' Medial Forms in Arabic lookup 3 subtable" afii62821
Substitution2: "'fina' Terminal Forms in Arabic lookup 2 subtable" afii62822
Substitution2: "'init' Initial Forms in Arabic lookup 1 subtable" afii62820
EndChar

StartChar: afii62822
Encoding: 65250 65250 246
Width: 1761
GlyphClass: 2
Flags: W
AnchorPoint: "Anchor-1" 945 -885 basechar 0
AnchorPoint: "Anchor-0" 885 1290 basechar 0
LayerCount: 2
Fore
SplineSet
1786 0 m 1,0,1
 1610 0 1610 0 1581 10 c 1,2,3
 1507 25 1507 25 1419 113 c 1,4,5
 1327 -10 1327 -10 1141 -10 c 0,6,7
 1047 -10 1047 -10 966 21.5 c 128,-1,8
 885 53 885 53 826.5 112.5 c 128,-1,9
 768 172 768 172 734 257 c 128,-1,10
 700 342 700 342 700 434 c 2,11,-1
 700 645 l 1,12,13
 557 610 557 610 557 483 c 2,14,-1
 557 -543 l 1,15,-1
 254 -543 l 1,16,-1
 254 455 l 2,17,18
 254 694 254 694 373 821 c 1,19,20
 483 954 483 954 719 954 c 2,21,-1
 1155 954 l 2,22,23
 1546 954 1546 954 1546 406 c 0,24,25
 1546 309 1546 309 1786 309 c 1,26,-1
 1786 0 l 1,0,1
1239 455 m 2,27,28
 1239 606 1239 606 1198 631 c 0,29,30
 1174 647 1174 647 1004 647 c 1,31,-1
 1004 395 l 2,32,33
 1004 346 1004 346 1047 313 c 1,34,35
 1081 293 1081 293 1126 293 c 0,36,37
 1176 293 1176 293 1207.5 333 c 128,-1,38
 1239 373 1239 373 1239 422 c 2,39,-1
 1239 455 l 2,27,28
EndSplineSet
EndChar

StartChar: afii62820
Encoding: 65251 65251 247
Width: 1067
GlyphClass: 2
Flags: W
AnchorPoint: "Anchor-1" 495 -720 basechar 0
AnchorPoint: "Anchor-0" 585 1275 basechar 0
LayerCount: 2
Fore
SplineSet
1038 455 m 0,0,1
 1038 246 1038 246 940 113 c 1,2,3
 877 45 877 45 801 7 c 128,-1,4
 725 -31 725 -31 616 -31 c 0,5,6
 549 -31 549 -31 485.5 -10.5 c 128,-1,7
 422 10 422 10 373 45 c 1,8,9
 293 10 293 10 170 6 c 1,10,11
 113 0 113 0 70 0 c 2,12,-1
 -31 0 l 1,13,-1
 -31 309 l 1,14,15
 147 309 147 309 186 328 c 1,16,-1
 195 455 l 1,17,18
 205 676 205 676 295 803 c 1,19,20
 422 954 422 954 616 954 c 0,21,22
 807 954 807 954 934 793 c 0,23,24
 1038 662 1038 662 1038 455 c 0,0,1
758 455 m 0,25,26
 758 645 758 645 616 645 c 0,27,28
 471 645 471 645 465 455 c 1,29,30
 471 270 471 270 616 270 c 0,31,32
 758 270 758 270 758 455 c 0,25,26
EndSplineSet
EndChar

StartChar: afii57446
Encoding: 1606 1606 248
Width: 1804
GlyphClass: 2
Flags: W
AnchorPoint: "Anchor-1" 915 -1095 basechar 0
AnchorPoint: "Anchor-0" 1005 1470 basechar 0
LayerCount: 2
Fore
SplineSet
798 1022 m 0,0,1
 798 1057 798 1057 812 1089.5 c 128,-1,2
 826 1122 826 1122 850.5 1146.5 c 128,-1,3
 875 1171 875 1171 907.5 1186 c 128,-1,4
 940 1201 940 1201 976 1201 c 0,5,6
 1051 1201 1051 1201 1102.5 1147.5 c 128,-1,7
 1154 1094 1154 1094 1154 1022 c 0,8,9
 1154 947 1154 947 1102.5 893 c 128,-1,10
 1051 839 1051 839 976 839 c 0,11,12
 903 839 903 839 850.5 893 c 128,-1,13
 798 947 798 947 798 1022 c 0,0,1
1751 88 m 2,14,15
 1751 -172 1751 -172 1581 -348 c 1,16,17
 1413 -535 1413 -535 1155 -543 c 1,18,-1
 823 -543 l 2,19,20
 598 -543 598 -543 426 -348 c 1,21,22
 260 -170 260 -170 260 63 c 2,23,-1
 260 559 l 1,24,-1
 573 559 l 1,25,-1
 573 45 l 2,26,27
 573 -78 573 -78 662 -152 c 1,28,29
 739 -233 739 -233 860 -233 c 2,30,-1
 1141 -233 l 2,31,32
 1262 -233 1262 -233 1348 -155.5 c 128,-1,33
 1434 -78 1434 -78 1434 45 c 2,34,-1
 1434 772 l 1,35,-1
 1751 772 l 1,36,-1
 1751 88 l 2,14,15
EndSplineSet
Substitution2: "'medi' Medial Forms in Arabic lookup 3 subtable" afii62824
Substitution2: "'fina' Terminal Forms in Arabic lookup 2 subtable" afii62825
Substitution2: "'init' Initial Forms in Arabic lookup 1 subtable" afii62823
EndChar

StartChar: afii62825
Encoding: 65254 65254 249
Width: 1898
GlyphClass: 2
Flags: W
AnchorPoint: "Anchor-1" 855 -1110 basechar 0
AnchorPoint: "Anchor-0" 930 1395 basechar 0
LayerCount: 2
Fore
SplineSet
749 1017 m 0,0,1
 749 1052 749 1052 763 1084.5 c 128,-1,2
 777 1117 777 1117 801.5 1141.5 c 128,-1,3
 826 1166 826 1166 858.5 1181 c 128,-1,4
 891 1196 891 1196 927 1196 c 0,5,6
 1002 1196 1002 1196 1053.5 1142.5 c 128,-1,7
 1105 1089 1105 1089 1105 1017 c 0,8,9
 1105 942 1105 942 1053.5 888 c 128,-1,10
 1002 834 1002 834 927 834 c 0,11,12
 854 834 854 834 801.5 888 c 128,-1,13
 749 942 749 942 749 1017 c 0,0,1
1831 0 m 2,14,15
 1761 0 1761 0 1683 45 c 1,16,17
 1659 -215 1659 -215 1507 -373 c 0,18,19
 1350 -535 1350 -535 1100 -543 c 1,20,-1
 772 -543 l 2,21,22
 543 -543 543 -543 373 -358 c 0,23,24
 205 -172 205 -172 205 59 c 2,25,-1
 205 557 l 1,26,-1
 510 557 l 1,27,-1
 510 39 l 2,28,29
 510 -84 510 -84 606 -158 c 1,30,31
 647 -201 647 -201 702.5 -220.5 c 128,-1,32
 758 -240 758 -240 807 -240 c 2,33,-1
 1087 -240 l 2,34,35
 1204 -240 1204 -240 1292 -158 c 1,36,37
 1380 -82 1380 -82 1380 39 c 2,38,-1
 1380 772 l 1,39,-1
 1692 772 l 1,40,-1
 1692 412 l 2,41,42
 1692 309 1692 309 1927 309 c 1,43,-1
 1927 0 l 1,44,-1
 1831 0 l 2,14,15
EndSplineSet
EndChar

StartChar: afii62828
Encoding: 65258 65258 253
Width: 1536
GlyphClass: 2
Flags: W
AnchorPoint: "Anchor-1" 690 -660 basechar 0
AnchorPoint: "Anchor-0" 645 1455 basechar 0
LayerCount: 2
Fore
SplineSet
1528 0 m 2,0,1
 1370 0 1370 0 1292 45 c 0,2,3
 1262 59 1262 59 1212.5 98 c 128,-1,4
 1163 137 1163 137 1092 205 c 1,5,6
 958 -20 958 -20 686 -20 c 0,7,8
 598 -20 598 -20 512 12.5 c 128,-1,9
 426 45 426 45 364.5 107.5 c 128,-1,10
 303 170 303 170 268 256 c 128,-1,11
 233 342 233 342 233 434 c 0,12,13
 233 557 233 557 295 674 c 1,14,15
 328 709 328 709 367 756 c 128,-1,16
 406 803 406 803 461 866 c 1,17,-1
 406 940 l 1,18,-1
 616 1149 l 1,19,-1
 1395 328 l 1,20,21
 1427 313 1427 313 1464 311 c 128,-1,22
 1501 309 1501 309 1554 309 c 1,23,-1
 1554 0 l 1,24,-1
 1528 0 l 2,0,1
852 420 m 0,25,26
 852 469 852 469 782 549 c 1,27,-1
 684 645 l 1,28,29
 641 606 641 606 619.5 581.5 c 128,-1,30
 598 557 598 557 588 543 c 0,31,32
 543 471 543 471 543 420 c 0,33,34
 543 358 543 358 589 316 c 128,-1,35
 635 274 635 274 694 274 c 0,36,37
 748 274 748 274 800 318 c 128,-1,38
 852 362 852 362 852 420 c 0,25,26
EndSplineSet
EndChar

StartChar: afii57448
Encoding: 1608 1608 254
Width: 1238
GlyphClass: 2
Flags: W
AnchorPoint: "Anchor-1" 645 -1125 basechar 0
AnchorPoint: "Anchor-0" 720 1230 basechar 0
LayerCount: 2
Fore
SplineSet
1166 0 m 2,0,1
 1166 -221 1166 -221 984 -395 c 0,2,3
 804 -563 804 -563 572 -563 c 2,4,-1
 257 -567 l 1,5,-1
 222 -260 l 1,6,-1
 544 -260 l 2,7,8
 656 -260 656 -260 740 -195 c 1,9,10
 836 -133 836 -133 857 -20 c 1,11,12
 308 -20 308 -20 308 426 c 0,13,14
 308 676 308 676 396 793 c 1,15,16
 494 934 494 934 734 934 c 0,17,18
 877 934 877 934 965.5 878.5 c 128,-1,19
 1054 823 1054 823 1103 719 c 0,20,21
 1166 582 1166 582 1166 264 c 2,22,-1
 1166 0 l 2,0,1
861 455 m 2,23,24
 861 623 861 623 734 623 c 0,25,26
 662 623 662 623 628 573 c 1,27,28
 617 543 617 543 613 440 c 1,29,30
 617 334 617 334 687 303 c 0,31,32
 716 293 716 293 752.5 291 c 128,-1,33
 789 289 789 289 861 289 c 1,34,-1
 861 455 l 2,23,24
EndSplineSet
Substitution2: "'fina' Terminal Forms in Arabic lookup 2 subtable" afii62829
PairPos2: "'kern' Horizontal Kerning in Arabic lookup 1 subtable" afii52400 dx=0 dy=0 dh=0 dv=0 dx=0 dy=0 dh=-100 dv=0
EndChar

StartChar: afii62829
Encoding: 65262 65262 255
Width: 1296
GlyphClass: 2
Flags: W
AnchorPoint: "Anchor-1" 525 -1185 basechar 0
AnchorPoint: "Anchor-0" 660 1335 basechar 0
LayerCount: 2
Fore
SplineSet
1176 0 m 1,0,1
 1176 -182 1176 -182 1004 -367 c 1,2,3
 899 -471 899 -471 754 -518 c 0,4,5
 645 -553 645 -553 469 -553 c 2,6,-1
 426 -553 l 2,7,8
 406 -553 406 -553 362 -543 c 1,9,-1
 260 -543 l 1,10,-1
 221 -240 l 1,11,-1
 547 -240 l 2,12,13
 655 -240 655 -240 739 -172 c 1,14,15
 836 -106 836 -106 852 0 c 1,16,17
 309 0 309 0 309 451 c 0,18,19
 309 700 309 700 395 821 c 1,20,21
 500 954 500 954 735 954 c 0,22,23
 1004 954 1004 954 1106 748 c 0,24,25
 1176 610 1176 610 1176 309 c 1,26,-1
 1325 309 l 1,27,-1
 1325 0 l 1,28,-1
 1176 0 l 1,0,1
866 469 m 2,29,30
 866 645 866 645 735 645 c 0,31,32
 647 645 647 645 635 596 c 1,33,34
 616 567 616 567 612 469 c 1,35,36
 616 358 616 358 700 328 c 1,37,38
 725 313 725 313 764 311 c 128,-1,39
 803 309 803 309 866 309 c 1,40,-1
 866 469 l 2,29,30
EndSplineSet
PairPos2: "'kern' Horizontal Kerning in Arabic lookup 1 subtable" afii52400 dx=0 dy=0 dh=0 dv=0 dx=0 dy=0 dh=-100 dv=0
EndChar

StartChar: afii62840
Encoding: 65275 65275 268
Width: 1307
GlyphClass: 3
Flags: W
AnchorPoint: "Anchor-3" 960 -435 baselig 0
AnchorPoint: "Anchor-2" 1050 1665 baselig 0
AnchorPoint: "Anchor-3" 390 -495 baselig 1
AnchorPoint: "Anchor-2" 300 1665 baselig 1
LayerCount: 2
Fore
SplineSet
1227 381 m 1,0,1
 1227 205 1227 205 1120.5 105.5 c 128,-1,2
 1014 6 1014 6 836 0 c 1,3,-1
 616 0 l 2,4,5
 170 0 170 0 170 381 c 2,6,-1
 170 1466 l 1,7,-1
 471 1466 l 1,8,-1
 471 381 l 2,9,10
 471 358 471 358 478 343 c 128,-1,11
 485 328 485 328 500 313 c 1,12,13
 514 313 514 313 548 311 c 128,-1,14
 582 309 582 309 635 309 c 2,15,-1
 823 309 l 2,16,17
 874 309 874 309 909 334 c 1,18,19
 926 395 926 395 926 469 c 2,20,-1
 926 1466 l 1,21,-1
 1227 1466 l 1,22,-1
 1227 381 l 1,23,-1
 1227 381 l 1,0,1
EndSplineSet
Ligature2: "'rlig' Required Ligatures in Arabic lookup 6 subtable" afii62817 afii62760
Substitution2: "'fina' Terminal Forms in Arabic lookup 2 subtable" afii62841
EndChar

StartChar: afii62841
Encoding: 65276 65276 269
Width: 1487
GlyphClass: 3
Flags: W
AnchorPoint: "Anchor-3" 990 -435 baselig 0
AnchorPoint: "Anchor-2" 1110 1620 baselig 0
AnchorPoint: "Anchor-3" 450 -480 baselig 1
AnchorPoint: "Anchor-2" 375 1605 baselig 1
LayerCount: 2
Fore
SplineSet
1507 0 m 1,0,1
 1227 -10 1227 -10 1163 109 c 1,2,3
 1075 25 1075 25 930 6 c 0,4,5
 901 0 901 0 836 0 c 2,6,-1
 372 0 l 2,7,8
 195 0 195 0 218 309 c 1,9,-1
 573 309 l 1,10,-1
 582 307 l 1,11,-1
 860 307 l 2,12,13
 909 307 909 307 940 341.5 c 128,-1,14
 971 376 971 376 958 471 c 1,15,-1
 958 1466 l 1,16,-1
 1272 1466 l 1,17,-1
 1272 446 l 2,18,19
 1272 346 1272 346 1341 313 c 1,20,21
 1360 309 1360 309 1403 309 c 2,22,-1
 1507 309 l 1,23,-1
 1507 0 l 1,0,1
514 448 m 1,24,-1
 215 448 l 1,25,-1
 215 1466 l 1,26,-1
 514 1466 l 1,27,-1
 514 448 l 1,24,-1
EndSplineSet
Ligature2: "'rlig' Required Ligatures in Arabic lookup 6 subtable" afii62818 afii62760
EndChar

StartChar: afii59759
Encoding: 3663 3663 276
Width: 1233
GlyphClass: 2
Flags: W
LayerCount: 2
Fore
SplineSet
616 983 m 0,0,1
 823 983 823 983 969.5 836.5 c 128,-1,2
 1116 690 1116 690 1116 483 c 0,3,4
 1116 277 1116 277 969.5 130.5 c 128,-1,5
 823 -16 823 -16 616 -16 c 0,6,7
 410 -16 410 -16 263.5 130.5 c 128,-1,8
 117 277 117 277 117 483 c 0,9,10
 117 690 117 690 263.5 836.5 c 128,-1,11
 410 983 410 983 616 983 c 0,0,1
616 147 m 0,12,13
 758 147 758 147 849 242 c 128,-1,14
 940 337 940 337 940 483 c 256,15,16
 940 629 940 629 849 724 c 128,-1,17
 758 819 758 819 616 819 c 0,18,19
 475 819 475 819 384 724 c 128,-1,20
 293 629 293 629 293 483 c 256,21,22
 293 337 293 337 384 242 c 128,-1,23
 475 147 475 147 616 147 c 0,12,13
616 598 m 0,24,25
 664 598 664 598 697.5 565 c 128,-1,26
 731 532 731 532 731 485 c 256,27,28
 731 438 731 438 697.5 404.5 c 128,-1,29
 664 371 664 371 616 371 c 0,30,31
 569 371 569 371 535.5 404.5 c 128,-1,32
 502 438 502 438 502 485 c 256,33,34
 502 532 502 532 535.5 565 c 128,-1,35
 569 598 569 598 616 598 c 0,24,25
EndSplineSet
EndChar

StartChar: afii59760
Encoding: 3664 3664 277
Width: 1233
GlyphClass: 2
Flags: W
LayerCount: 2
Fore
SplineSet
616 924 m 0,0,1
 834 924 834 924 975 794.5 c 128,-1,2
 1116 665 1116 665 1116 453 c 0,3,4
 1116 242 1116 242 975 113 c 128,-1,5
 834 -16 834 -16 616 -16 c 0,6,7
 399 -16 399 -16 258 113 c 128,-1,8
 117 242 117 242 117 453 c 0,9,10
 117 665 117 665 258 794.5 c 128,-1,11
 399 924 399 924 616 924 c 0,0,1
616 150 m 0,12,13
 765 150 765 150 852.5 231 c 128,-1,14
 940 312 940 312 940 453 c 256,15,16
 940 594 940 594 852 677 c 128,-1,17
 764 760 764 760 616 760 c 0,18,19
 469 760 469 760 381 677 c 128,-1,20
 293 594 293 594 293 453 c 0,21,22
 293 310 293 310 381.5 230 c 128,-1,23
 470 150 470 150 616 150 c 0,12,13
EndSplineSet
EndChar

StartChar: glyph279
Encoding: 65559 -1 279
Width: 0
GlyphClass: 2
Flags: W
LayerCount: 2
Fore
SplineSet
36 1831 m 1,0,-1
 36 863 l 1,1,-1
 -36 863 l 1,2,-1
 -36 1831 l 1,3,-1
 36 1831 l 1,0,-1
36 543 m 1,4,-1
 36 -423 l 1,5,-1
 -36 -423 l 1,6,-1
 -36 543 l 1,7,-1
 36 543 l 1,4,-1
EndSplineSet
EndChar

StartChar: glyph280
Encoding: 65560 -1 280
Width: 0
GlyphClass: 2
Flags: W
LayerCount: 2
Fore
SplineSet
-234 -423 m 1,0,-1
 -234 -352 l 1,1,-1
 -36 -352 l 1,2,-1
 -36 1760 l 1,3,-1
 -234 1760 l 1,4,-1
 -234 1831 l 1,5,-1
 234 1831 l 1,6,-1
 234 1760 l 1,7,-1
 36 1760 l 1,8,-1
 36 -352 l 1,9,-1
 234 -352 l 1,10,-1
 234 -423 l 1,11,-1
 -234 -423 l 1,0,-1
EndSplineSet
EndChar

StartChar: glyph281
Encoding: 65561 -1 281
Width: 0
GlyphClass: 2
Flags: W
LayerCount: 2
Fore
SplineSet
224 1646 m 1,0,-1
 36 1504 l 1,1,-1
 36 -423 l 1,2,-1
 -36 -423 l 1,3,-1
 -36 1831 l 1,4,-1
 224 1646 l 1,0,-1
EndSplineSet
EndChar

StartChar: glyph282
Encoding: 65562 -1 282
Width: 0
GlyphClass: 2
Flags: W
LayerCount: 2
Fore
SplineSet
36 1831 m 1,0,-1
 36 -423 l 1,1,-1
 -36 -423 l 1,2,-1
 -36 1504 l 1,3,-1
 -224 1646 l 1,4,-1
 36 1831 l 1,0,-1
EndSplineSet
EndChar

StartChar: glyph283
Encoding: 65563 -1 283
Width: 0
GlyphClass: 2
Flags: W
LayerCount: 2
Fore
SplineSet
36 1831 m 1,0,-1
 36 -352 l 1,1,-1
 234 -352 l 1,2,-1
 234 -423 l 1,3,-1
 -36 -423 l 1,4,-1
 -36 1831 l 1,5,-1
 36 1831 l 1,0,-1
EndSplineSet
EndChar

StartChar: glyph284
Encoding: 65564 -1 284
Width: 0
GlyphClass: 2
Flags: W
LayerCount: 2
Fore
SplineSet
224 1646 m 1,0,-1
 36 1504 l 1,1,-1
 36 -423 l 1,2,-1
 -36 -423 l 1,3,-1
 -36 1504 l 1,4,-1
 -224 1641 l 1,5,-1
 0 1831 l 1,6,-1
 224 1646 l 1,0,-1
EndSplineSet
EndChar

StartChar: uni0670
Encoding: 1648 1648 297
Width: 0
GlyphClass: 4
Flags: W
AnchorPoint: "Anchor-2" 0 0 mark 0
AnchorPoint: "Anchor-0" 0 0 mark 0
LayerCount: 2
Fore
SplineSet
67 1 m 1,0,-1
 -69 1 l 1,1,-1
 -69 455 l 1,2,-1
 67 455 l 1,3,-1
 67 1 l 1,0,-1
EndSplineSet
EndChar

StartChar: glyph298
Encoding: 65565 -1 298
Width: 666
GlyphClass: 2
Flags: W
LayerCount: 2
Fore
SplineSet
319 1513 m 1,0,1
 366 1548 366 1548 408 1555 c 128,-1,2
 450 1562 450 1562 482.5 1545.5 c 128,-1,3
 515 1529 515 1529 534 1490.5 c 128,-1,4
 553 1452 553 1452 554 1397 c 2,5,-1
 552 1277 l 1,6,-1
 69 1277 l 1,7,-1
 69 1365 l 1,8,-1
 151 1365 l 1,9,-1
 319 1513 l 1,0,1
272 1365 m 1,10,-1
 464 1365 l 1,11,-1
 464 1410 l 2,12,13
 462 1453 462 1453 434.5 1465 c 128,-1,14
 407 1477 407 1477 362 1444 c 1,15,-1
 272 1365 l 1,10,-1
EndSplineSet
EndChar

StartChar: glyph299
Encoding: 65566 -1 299
Width: 1741
GlyphClass: 2
Flags: W
LayerCount: 2
Fore
SplineSet
1692 147 m 2,0,1
 1692 119 1692 119 1687.5 69.5 c 128,-1,2
 1683 20 1683 20 1677 -59 c 1,3,4
 1663 -158 1663 -158 1617 -245 c 128,-1,5
 1571 -332 1571 -332 1483 -406 c 0,6,7
 1317 -543 1317 -543 1114 -543 c 2,8,-1
 782 -543 l 2,9,10
 532 -543 532 -543 373 -362 c 0,11,12
 221 -190 221 -190 221 70 c 2,13,-1
 221 403 l 1,14,-1
 514 403 l 1,15,-1
 514 63 l 2,16,17
 514 -63 514 -63 596 -152 c 1,18,19
 676 -246 676 -246 797 -246 c 2,20,-1
 1100 -246 l 2,21,22
 1327 -246 1327 -246 1389 25 c 1,23,24
 1237 27 1237 27 1142 39 c 128,-1,25
 1047 51 1047 51 1004 70 c 0,26,27
 827 147 827 147 827 391 c 0,28,29
 827 567 827 567 944 669.5 c 128,-1,30
 1061 772 1061 772 1237 772 c 0,31,32
 1434 772 1434 772 1554 641 c 1,33,34
 1624 582 1624 582 1653.5 497 c 128,-1,35
 1683 412 1683 412 1692 309 c 1,36,-1
 1692 147 l 2,0,1
1380 313 m 1,37,38
 1370 381 1370 381 1331 425 c 128,-1,39
 1292 469 1292 469 1227 469 c 0,40,41
 1174 469 1174 469 1155 455 c 0,42,43
 1095 406 1095 406 1155 328 c 1,44,45
 1227 313 1227 313 1380 313 c 1,37,38
EndSplineSet
EndChar

StartChar: uni06DD
Encoding: 1757 1757 388
Width: 2300
GlyphClass: 2
Flags: W
LayerCount: 2
Fore
SplineSet
2250 715 m 256,0,1
 2250 469 2250 469 2146 249 c 0,2,3
 2046 35 2046 35 1867 -119 c 1,4,5
 1870 -133 1870 -133 1870 -148 c 0,6,7
 1870 -203 1870 -203 1831 -241.5 c 128,-1,8
 1792 -280 1792 -280 1737 -280 c 0,9,10
 1697 -280 1697 -280 1664 -258 c 1,11,12
 1424 -385 1424 -385 1149 -385 c 0,13,14
 876 -385 876 -385 636 -258 c 1,15,16
 603 -280 603 -280 563 -280 c 0,17,18
 508 -280 508 -280 469 -241.5 c 128,-1,19
 430 -203 430 -203 430 -148 c 0,20,21
 430 -133 430 -133 433 -119 c 1,22,23
 254 35 254 35 154 249 c 0,24,25
 50 469 50 469 50 715 c 256,26,27
 50 961 50 961 154 1181 c 0,28,29
 254 1394 254 1394 433 1548 c 1,30,31
 430 1562 430 1562 430 1577 c 0,32,33
 430 1632 430 1632 469 1670.5 c 128,-1,34
 508 1709 508 1709 563 1709 c 0,35,36
 603 1709 603 1709 636 1687 c 1,37,38
 876 1814 876 1814 1151 1814 c 0,39,40
 1424 1814 1424 1814 1664 1687 c 1,41,42
 1697 1709 1697 1709 1737 1709 c 0,43,44
 1792 1709 1792 1709 1831 1670.5 c 128,-1,45
 1870 1632 1870 1632 1870 1577 c 0,46,47
 1870 1562 1870 1562 1867 1548 c 1,48,49
 2046 1394 2046 1394 2146 1181 c 0,50,51
 2250 961 2250 961 2250 715 c 256,0,1
1816 1576 m 0,52,53
 1816 1609 1816 1609 1793 1632 c 128,-1,54
 1770 1655 1770 1655 1738 1655 c 256,55,56
 1706 1655 1706 1655 1682.5 1631.5 c 128,-1,57
 1659 1608 1659 1608 1659 1576 c 256,58,59
 1659 1544 1659 1544 1682 1521 c 128,-1,60
 1705 1498 1705 1498 1738 1498 c 0,61,62
 1770 1498 1770 1498 1793 1521 c 128,-1,63
 1816 1544 1816 1544 1816 1576 c 0,52,53
1602 1595 m 1,64,65
 1390 1704 1390 1704 1151 1704 c 0,66,67
 910 1704 910 1704 698 1595 c 1,68,-1
 1602 1595 l 1,64,65
641 1576 m 256,69,70
 641 1608 641 1608 617.5 1631.5 c 128,-1,71
 594 1655 594 1655 562 1655 c 256,72,73
 530 1655 530 1655 507 1632 c 128,-1,74
 484 1609 484 1609 484 1576 c 0,75,76
 484 1544 484 1544 507 1521 c 128,-1,77
 530 1498 530 1498 562 1498 c 0,78,79
 595 1498 595 1498 618 1521 c 128,-1,80
 641 1544 641 1544 641 1576 c 256,69,70
2140 714 m 0,81,82
 2140 933 2140 933 2048 1131 c 0,83,84
 1960 1321 1960 1321 1801 1460 c 1,85,86
 1772 1444 1772 1444 1737 1444 c 0,87,88
 1681 1444 1681 1444 1642 1485 c 1,89,-1
 658 1485 l 1,90,91
 619 1444 619 1444 563 1444 c 0,92,93
 528 1444 528 1444 499 1460 c 1,94,95
 340 1321 340 1321 252 1131 c 0,96,97
 160 933 160 933 160 714 c 0,98,99
 160 265 160 265 499 -31 c 1,100,101
 528 -15 528 -15 563 -15 c 0,102,103
 619 -15 619 -15 658 -56 c 1,104,-1
 1642 -56 l 1,105,106
 1681 -15 1681 -15 1737 -15 c 0,107,108
 1772 -15 1772 -15 1801 -31 c 1,109,110
 2140 265 2140 265 2140 714 c 0,81,82
1816 -147 m 0,111,112
 1816 -115 1816 -115 1793 -92 c 128,-1,113
 1770 -69 1770 -69 1738 -69 c 0,114,115
 1705 -69 1705 -69 1682 -92 c 128,-1,116
 1659 -115 1659 -115 1659 -147 c 256,117,118
 1659 -179 1659 -179 1682.5 -202.5 c 128,-1,119
 1706 -226 1706 -226 1738 -226 c 256,120,121
 1770 -226 1770 -226 1793 -203 c 128,-1,122
 1816 -180 1816 -180 1816 -147 c 0,111,112
1602 -166 m 1,123,-1
 698 -166 l 1,124,125
 910 -275 910 -275 1151 -275 c 0,126,127
 1390 -275 1390 -275 1602 -166 c 1,123,-1
641 -147 m 256,128,129
 641 -115 641 -115 618 -92 c 128,-1,130
 595 -69 595 -69 562 -69 c 0,131,132
 530 -69 530 -69 507 -92 c 128,-1,133
 484 -115 484 -115 484 -147 c 0,134,135
 484 -180 484 -180 507 -203 c 128,-1,136
 530 -226 530 -226 562 -226 c 256,137,138
 594 -226 594 -226 617.5 -202.5 c 128,-1,139
 641 -179 641 -179 641 -147 c 256,128,129
EndSplineSet
EndChar

StartChar: uni06DE
Encoding: 1758 1758 389
Width: 2221
GlyphClass: 2
Flags: W
LayerCount: 2
Fore
SplineSet
2171 750 m 1,0,-1
 1861 439 l 1,1,-1
 1861 0 l 1,2,-1
 1421 0 l 1,3,-1
 1111 -311 l 1,4,-1
 800 0 l 1,5,-1
 361 0 l 1,6,-1
 361 439 l 1,7,-1
 50 750 l 1,8,-1
 361 1061 l 1,9,-1
 361 1500 l 1,10,-1
 800 1500 l 1,11,-1
 1111 1811 l 1,12,-1
 1421 1500 l 1,13,-1
 1861 1500 l 1,14,-1
 1861 1061 l 1,15,-1
 2171 750 l 1,0,-1
436 364 m 1,16,-1
 436 75 l 1,17,-1
 725 75 l 1,18,-1
 436 364 l 1,16,-1
725 1425 m 1,19,-1
 436 1425 l 1,20,-1
 436 1136 l 1,21,-1
 725 1425 l 1,19,-1
1786 1136 m 1,22,-1
 1786 1425 l 1,23,-1
 1496 1425 l 1,24,-1
 1786 1136 l 1,22,-1
1786 75 m 1,25,-1
 1786 364 l 1,26,-1
 1496 75 l 1,27,-1
 1786 75 l 1,25,-1
906 0 m 1,28,-1
 1111 -205 l 1,29,-1
 1315 0 l 1,30,-1
 906 0 l 1,28,-1
361 955 m 1,31,-1
 156 750 l 1,32,-1
 361 545 l 1,33,-1
 361 955 l 1,31,-1
1315 1500 m 1,34,-1
 1111 1705 l 1,35,-1
 906 1500 l 1,36,-1
 1315 1500 l 1,34,-1
1786 1030 m 1,37,-1
 1390 1425 l 1,38,-1
 831 1425 l 1,39,-1
 436 1030 l 1,40,-1
 436 470 l 1,41,-1
 831 75 l 1,42,-1
 1390 75 l 1,43,-1
 1786 470 l 1,44,-1
 1786 1030 l 1,37,-1
2065 750 m 1,45,-1
 1861 955 l 1,46,-1
 1861 545 l 1,47,-1
 2065 750 l 1,45,-1
1328 750 m 256,48,49
 1328 660 1328 660 1264.5 596 c 128,-1,50
 1201 532 1201 532 1111 532 c 256,51,52
 1021 532 1021 532 957 596 c 128,-1,53
 893 660 893 660 893 750 c 256,54,55
 893 840 893 840 957 903.5 c 128,-1,56
 1021 967 1021 967 1111 967 c 256,57,58
 1201 967 1201 967 1264.5 903.5 c 128,-1,59
 1328 840 1328 840 1328 750 c 256,48,49
1253 750 m 256,60,61
 1253 809 1253 809 1211 850.5 c 128,-1,62
 1169 892 1169 892 1110 892 c 256,63,64
 1051 892 1051 892 1009 850.5 c 128,-1,65
 967 809 967 809 967 750 c 256,66,67
 967 691 967 691 1009 649 c 128,-1,68
 1051 607 1051 607 1110 607 c 256,69,70
 1169 607 1169 607 1211 649 c 128,-1,71
 1253 691 1253 691 1253 750 c 256,60,61
EndSplineSet
EndChar

StartChar: uni06DF
Encoding: 1759 1759 390
Width: 0
GlyphClass: 2
Flags: W
LayerCount: 2
Fore
SplineSet
75 1429 m 256,0,1
 75 1398 75 1398 53 1376 c 128,-1,2
 31 1354 31 1354 0 1354 c 256,3,4
 -31 1354 -31 1354 -53 1376 c 128,-1,5
 -75 1398 -75 1398 -75 1429 c 256,6,7
 -75 1460 -75 1460 -53 1482 c 128,-1,8
 -31 1504 -31 1504 0 1504 c 256,9,10
 31 1504 31 1504 53 1482 c 128,-1,11
 75 1460 75 1460 75 1429 c 256,0,1
EndSplineSet
EndChar

StartChar: uni06E9
Encoding: 1769 1769 391
Width: 1229
GlyphClass: 2
Flags: W
LayerCount: 2
Fore
SplineSet
1179 0 m 1,0,-1
 50 0 l 1,1,-1
 278 261 l 1,2,-1
 278 849 l 1,3,-1
 50 1108 l 1,4,-1
 614 1676 l 1,5,-1
 1179 1108 l 1,6,-1
 951 849 l 1,7,-1
 951 261 l 1,8,-1
 1179 0 l 1,0,-1
1101 1108 m 1,9,-1
 614 1598 l 1,10,-1
 128 1108 l 1,11,-1
 338 871 l 1,12,-1
 338 239 l 1,13,-1
 178 56 l 1,14,-1
 1051 56 l 1,15,-1
 891 239 l 1,16,-1
 891 871 l 1,17,-1
 1101 1108 l 1,9,-1
995 1108 m 1,18,-1
 845 937 l 1,19,-1
 845 131 l 1,20,-1
 384 131 l 1,21,-1
 384 937 l 1,22,-1
 234 1108 l 1,23,-1
 614 1489 l 1,24,-1
 995 1108 l 1,18,-1
922 1108 m 1,25,-1
 614 1416 l 1,26,-1
 307 1108 l 1,27,-1
 433 968 l 1,28,-1
 433 186 l 1,29,-1
 796 186 l 1,30,-1
 796 968 l 1,31,-1
 922 1108 l 1,25,-1
833 1108 m 1,32,-1
 745 1011 l 1,33,-1
 745 267 l 1,34,-1
 484 267 l 1,35,-1
 484 1011 l 1,36,-1
 396 1108 l 1,37,-1
 614 1331 l 1,38,-1
 833 1108 l 1,32,-1
780 1108 m 1,39,-1
 614 1278 l 1,40,-1
 449 1108 l 1,41,-1
 523 1027 l 1,42,-1
 523 309 l 1,43,-1
 705 309 l 1,44,-1
 705 1027 l 1,45,-1
 780 1108 l 1,39,-1
EndSplineSet
EndChar

StartChar: uni06EB
Encoding: 1771 1771 393
Width: 0
GlyphClass: 2
Flags: W
LayerCount: 2
Fore
SplineSet
168 1522 m 1,0,-1
 -1 1354 l 1,1,-1
 -168 1521 l 1,2,-1
 1 1689 l 1,3,-1
 168 1522 l 1,0,-1
104 1522 m 1,4,-1
 0 1626 l 1,5,-1
 -104 1521 l 1,6,-1
 0 1417 l 1,7,-1
 104 1522 l 1,4,-1
EndSplineSet
EndChar

StartChar: comma
Encoding: 44 44 402
Width: 526
Flags: W
LayerCount: 2
Fore
SplineSet
160 151 m 0,0,1
 160 269 160 269 290 269 c 0,2,3
 434 269 434 269 434 151 c 0,4,5
 434 -34 434 -34 403 -102 c 0,6,7
 357 -216 357 -216 203 -216 c 1,8,-1
 203 -102 l 1,9,10
 305 -102 305 -102 305 12 c 1,11,12
 160 12 160 12 160 151 c 0,0,1
EndSplineSet
EndChar

StartChar: afii57407
Encoding: 1567 1567 403
Width: 965
GlyphClass: 2
Flags: W
LayerCount: 2
Fore
SplineSet
614 999 m 1,0,1
 614 1223 614 1223 489 1223 c 0,2,3
 385 1223 385 1223 385 1135 c 0,4,5
 385 1081 385 1081 444 1022 c 0,6,7
 489 975 489 975 521 938 c 128,-1,8
 553 901 553 901 571 870 c 0,9,10
 635 743 635 743 635 461 c 1,11,-1
 377 461 l 1,12,-1
 377 651 l 1,13,14
 371 711 371 711 350 743 c 1,15,16
 350 774 350 774 287 827 c 1,17,18
 244 870 244 870 217 900 c 128,-1,19
 190 930 190 930 174 954 c 0,20,21
 113 1024 113 1024 113 1122 c 0,22,23
 113 1274 113 1274 225 1376 c 0,24,25
 326 1464 326 1464 483 1464 c 0,26,27
 705 1464 705 1464 793 1341 c 0,28,29
 827 1288 827 1288 845.5 1202 c 128,-1,30
 864 1116 864 1116 864 999 c 1,31,-1
 614 999 l 1,0,1
662 152 m 0,32,33
 662 84 662 84 610.5 42 c 128,-1,34
 559 0 559 0 485 0 c 0,35,36
 426 0 426 0 377 42 c 128,-1,37
 328 84 328 84 328 152 c 0,38,39
 328 293 328 293 485 293 c 0,40,41
 662 293 662 293 662 152 c 0,32,33
EndSplineSet
EndChar

StartChar: afii57392
Encoding: 1776 1776 404
Width: 922
Flags: W
LayerCount: 2
Fore
SplineSet
182 612 m 0,0,1
 182 666 182 666 203 713.5 c 128,-1,2
 224 761 224 761 261 797 c 128,-1,3
 298 833 298 833 347.5 853.5 c 128,-1,4
 397 874 397 874 453 874 c 0,5,6
 508 874 508 874 557 853.5 c 128,-1,7
 606 833 606 833 643 797 c 128,-1,8
 680 761 680 761 701.5 713.5 c 128,-1,9
 723 666 723 666 723 612 c 0,10,11
 723 557 723 557 701.5 508.5 c 128,-1,12
 680 460 680 460 643 424 c 128,-1,13
 606 388 606 388 557 367 c 128,-1,14
 508 346 508 346 453 346 c 0,15,16
 397 346 397 346 347.5 367 c 128,-1,17
 298 388 298 388 261 424 c 128,-1,18
 224 460 224 460 203 508.5 c 128,-1,19
 182 557 182 557 182 612 c 0,0,1
317 608 m 0,20,21
 317 581 317 581 328 556.5 c 128,-1,22
 339 532 339 532 358.5 514 c 128,-1,23
 378 496 378 496 403 485.5 c 128,-1,24
 428 475 428 475 457 475 c 0,25,26
 485 475 485 475 510.5 485.5 c 128,-1,27
 536 496 536 496 555 514 c 128,-1,28
 574 532 574 532 585 556.5 c 128,-1,29
 596 581 596 581 596 608 c 0,30,31
 596 636 596 636 585 661 c 128,-1,32
 574 686 574 686 555 704 c 128,-1,33
 536 722 536 722 510.5 732.5 c 128,-1,34
 485 743 485 743 457 743 c 0,35,36
 428 743 428 743 403 732.5 c 128,-1,37
 378 722 378 722 358.5 704 c 128,-1,38
 339 686 339 686 328 661 c 128,-1,39
 317 636 317 636 317 608 c 0,20,21
EndSplineSet
EndChar

StartChar: afii57393
Encoding: 1777 1777 405
Width: 836
Flags: W
LayerCount: 2
Fore
SplineSet
326 0 m 1,0,-1
 326 694 l 2,1,2
 326 1077 326 1077 215 1378 c 1,3,-1
 508 1468 l 1,4,5
 526 1421 526 1421 545.5 1338 c 128,-1,6
 565 1255 565 1255 590 1139 c 1,7,8
 602 1059 602 1059 612.5 950.5 c 128,-1,9
 623 842 623 842 623 694 c 1,10,11
 627 631 627 631 627 459 c 2,12,-1
 627 0 l 1,13,-1
 326 0 l 1,0,-1
EndSplineSet
EndChar

StartChar: afii57394
Encoding: 1778 1778 406
Width: 1141
Flags: W
LayerCount: 2
Fore
SplineSet
1055 1024 m 0,0,1
 1055 897 1055 897 938 793 c 1,2,3
 817 707 817 707 694 707 c 0,4,5
 635 707 635 707 602 718 c 128,-1,6
 569 729 569 729 539 745 c 1,7,-1
 539 0 l 1,8,-1
 242 0 l 1,9,-1
 242 467 l 2,10,11
 242 1020 242 1020 119 1374 c 1,12,-1
 418 1464 l 1,13,-1
 512 1073 l 1,14,15
 539 979 539 979 629 979 c 0,16,17
 670 979 670 979 709 1015 c 128,-1,18
 748 1051 748 1051 741 1100 c 2,19,-1
 700 1378 l 1,20,21
 756 1395 756 1395 825.5 1418.5 c 128,-1,22
 895 1442 895 1442 981 1464 c 1,23,24
 1016 1298 1016 1298 1035.5 1188.5 c 128,-1,25
 1055 1079 1055 1079 1055 1024 c 0,0,1
EndSplineSet
EndChar

StartChar: afii57395
Encoding: 1779 1779 407
Width: 1655
Flags: W
LayerCount: 2
Fore
SplineSet
1528 1053 m 0,0,1
 1528 985 1528 985 1497 924.5 c 128,-1,2
 1466 864 1466 864 1416 819 c 128,-1,3
 1366 774 1366 774 1304.5 748.5 c 128,-1,4
 1243 723 1243 723 1178 723 c 0,5,6
 1065 723 1065 723 944 823 c 1,7,8
 879 723 879 723 664 723 c 0,9,10
 606 723 606 723 539 748 c 1,11,-1
 539 0 l 1,12,-1
 248 0 l 1,13,-1
 248 459 l 2,14,15
 248 748 248 748 216 974 c 128,-1,16
 184 1200 184 1200 123 1378 c 1,17,-1
 424 1468 l 1,18,-1
 516 1075 l 1,19,20
 532 981 532 981 633 981 c 0,21,22
 678 981 678 981 706.5 1017 c 128,-1,23
 735 1053 735 1053 750 1096 c 1,24,-1
 698 1382 l 1,25,-1
 991 1485 l 1,26,27
 1047 1188 1047 1188 1047 1075 c 2,28,-1
 1047 1042 l 2,29,30
 1047 1028 1047 1028 1040 1016 c 1,31,32
 1077 975 1077 975 1128 975 c 0,33,34
 1169 975 1169 975 1204 1014 c 128,-1,35
 1239 1053 1239 1053 1239 1096 c 1,36,-1
 1198 1382 l 1,37,-1
 1481 1468 l 1,38,39
 1491 1378 1491 1378 1505 1264 c 1,40,41
 1524 1192 1524 1192 1526 1141 c 128,-1,42
 1528 1090 1528 1090 1528 1053 c 0,0,1
EndSplineSet
EndChar

StartChar: afii62843
Encoding: 1780 1780 408
Width: 1427
Flags: W
LayerCount: 2
Fore
SplineSet
1282 788 m 1,0,1
 991 657 991 657 811 657 c 0,2,3
 633 657 633 657 494 717 c 1,4,-1
 498 0 l 1,5,-1
 211 0 l 1,6,-1
 211 526 l 1,7,8
 201 672 201 672 195.5 799 c 128,-1,9
 190 926 190 926 168 1038 c 0,10,11
 166 1063 166 1063 147.5 1140 c 128,-1,12
 129 1217 129 1217 88 1354 c 1,13,-1
 379 1442 l 1,14,15
 412 1309 412 1309 434.5 1202.5 c 128,-1,16
 457 1096 457 1096 469 1014 c 1,17,-1
 498 1006 l 1,18,-1
 498 1081 l 2,19,20
 498 1225 498 1225 625 1333 c 1,21,22
 737 1438 737 1438 893 1438 c 0,23,24
 1012 1438 1012 1438 1229 1358 c 1,25,26
 1182 1272 1182 1272 1120 1085 c 1,27,28
 1059 1126 1059 1126 1010 1147.5 c 128,-1,29
 961 1169 961 1169 924 1169 c 0,30,31
 862 1169 862 1169 815 1127 c 128,-1,32
 768 1085 768 1085 760 1024 c 1,33,34
 764 963 764 963 799 948 c 1,35,36
 877 926 877 926 924 926 c 0,37,38
 967 926 967 926 1188 1038 c 1,39,-1
 1282 788 l 1,40,-1
 1282 788 l 1,0,1
EndSplineSet
EndChar

StartChar: afii62844
Encoding: 1781 1781 409
Width: 1571
Flags: W
LayerCount: 2
Fore
SplineSet
1442 401 m 0,0,1
 1442 225 1442 225 1309 113 c 1,2,3
 1184 0 1184 0 1006 0 c 0,4,5
 864 0 864 0 745 74 c 1,6,7
 604 0 604 0 479 0 c 0,8,9
 305 0 305 0 201 129 c 1,10,11
 98 248 98 248 98 424 c 0,12,13
 98 637 98 637 221 842 c 1,14,15
 250 874 250 874 318.5 961.5 c 128,-1,16
 387 1049 387 1049 500 1194 c 1,17,-1
 420 1247 l 1,18,-1
 606 1464 l 1,19,20
 1442 834 1442 834 1442 401 c 0,0,1
1139 442 m 0,21,22
 1139 659 1139 659 715 1014 c 1,23,24
 401 682 401 682 401 451 c 0,25,26
 401 387 401 387 430 358 c 1,27,28
 461 309 461 309 520 309 c 0,29,30
 569 309 569 309 606 348 c 128,-1,31
 643 387 643 387 643 442 c 1,32,-1
 618 563 l 1,33,-1
 901 563 l 1,34,35
 928 512 928 512 928 442 c 0,36,37
 928 397 928 397 926 369.5 c 128,-1,38
 924 342 924 342 922 326 c 1,39,40
 958 309 958 309 991 309 c 0,41,42
 1139 309 1139 309 1139 442 c 0,21,22
EndSplineSet
EndChar

StartChar: afii62845
Encoding: 1782 1782 410
Width: 1180
Flags: W
LayerCount: 2
Fore
SplineSet
1036 879 m 1,0,1
 866 729 866 729 698 511 c 128,-1,2
 530 293 530 293 365 0 c 1,3,-1
 113 156 l 1,4,5
 176 274 176 274 261 402 c 128,-1,6
 346 530 346 530 446 670 c 1,7,8
 295 692 295 692 196.5 799.5 c 128,-1,9
 98 907 98 907 98 1057 c 0,10,11
 98 1223 98 1223 205.5 1350 c 128,-1,12
 313 1477 313 1477 477 1477 c 0,13,14
 639 1477 639 1477 803 1386 c 1,15,-1
 711 1116 l 1,16,17
 578 1186 578 1186 528 1186 c 0,18,19
 395 1184 395 1184 392 1065 c 128,-1,20
 389 946 389 946 528 942 c 0,21,22
 584 942 584 942 676 979 c 0,23,24
 748 1008 748 1008 803 1055 c 1,25,-1
 1036 879 l 1,26,-1
 1036 879 l 1,0,1
EndSplineSet
EndChar

StartChar: afii57399
Encoding: 1783 1783 411
Width: 1473
Flags: W
LayerCount: 2
Fore
SplineSet
1389 1378 m 1,0,1
 1126 987 1126 987 1036 709 c 1,2,3
 940 469 940 469 842 0 c 1,4,-1
 598 0 l 1,5,6
 573 166 573 166 543.5 289 c 128,-1,7
 514 412 514 412 483 500 c 1,8,9
 426 709 426 709 283 969 c 1,10,11
 215 1106 215 1106 156.5 1204.5 c 128,-1,12
 98 1303 98 1303 59 1370 c 1,13,-1
 328 1507 l 1,14,15
 451 1292 451 1292 530.5 1140.5 c 128,-1,16
 610 989 610 989 620.5 949 c 128,-1,17
 631 909 631 909 662 801 c 0,18,19
 684 725 684 725 721 596 c 1,20,21
 733 649 733 649 758 733 c 0,22,23
 793 866 793 866 909 1114 c 0,24,25
 1022 1350 1022 1350 1126 1501 c 1,26,27
 1188 1466 1188 1466 1252.5 1434.5 c 128,-1,28
 1317 1403 1317 1403 1389 1378 c 1,0,1
EndSplineSet
EndChar

StartChar: afii57400
Encoding: 1784 1784 412
Width: 1567
Flags: W
LayerCount: 2
Fore
SplineSet
1473 131 m 1,0,1
 1331 84 1331 84 1198 0 c 1,2,3
 1114 141 1114 141 1050.5 262 c 128,-1,4
 987 383 987 383 938 485 c 1,5,6
 899 598 899 598 856 729 c 0,7,8
 827 817 827 817 801 922 c 1,9,10
 745 676 745 676 666 494 c 0,11,12
 588 313 588 313 406 0 c 1,13,14
 270 78 270 78 137 141 c 1,15,16
 299 440 299 440 394 631.5 c 128,-1,17
 489 823 489 823 510 920 c 1,18,19
 547 1014 547 1014 587 1160.5 c 128,-1,20
 627 1307 627 1307 684 1516 c 1,21,-1
 924 1501 l 1,22,23
 963 1350 963 1350 1008 1169.5 c 128,-1,24
 1053 989 1053 989 1116 793 c 1,25,26
 1233 522 1233 522 1473 131 c 1,0,1
EndSplineSet
EndChar

StartChar: afii57401
Encoding: 1785 1785 413
Width: 1096
Flags: W
LayerCount: 2
Fore
SplineSet
674 0 m 1,0,-1
 674 725 l 1,1,2
 598 694 598 694 485 694 c 0,3,4
 309 694 309 694 199.5 785.5 c 128,-1,5
 90 877 90 877 90 1057 c 256,6,7
 90 1237 90 1237 211 1375 c 128,-1,8
 332 1513 332 1513 508 1513 c 1,9,10
 618 1528 618 1528 775 1451 c 128,-1,11
 932 1374 932 1374 973 1126 c 1,12,-1
 979 0 l 1,13,-1
 674 0 l 1,0,-1
655 1038 m 1,14,15
 651 1061 651 1061 639 1122.5 c 128,-1,16
 627 1184 627 1184 579.5 1212.5 c 128,-1,17
 532 1241 532 1241 459.5 1206 c 128,-1,18
 387 1171 387 1171 392 1080 c 128,-1,19
 397 989 397 989 485 981 c 1,20,21
 567 979 567 979 655 1038 c 1,14,15
EndSplineSet
EndChar

StartChar: afii57392.001
Encoding: 1632 1632 414
Width: 922
Flags: W
LayerCount: 2
Fore
SplineSet
182 612 m 0,0,1
 182 666 182 666 203 713.5 c 128,-1,2
 224 761 224 761 261 797 c 128,-1,3
 298 833 298 833 347.5 853.5 c 128,-1,4
 397 874 397 874 453 874 c 0,5,6
 508 874 508 874 557 853.5 c 128,-1,7
 606 833 606 833 643 797 c 128,-1,8
 680 761 680 761 701.5 713.5 c 128,-1,9
 723 666 723 666 723 612 c 0,10,11
 723 557 723 557 701.5 508.5 c 128,-1,12
 680 460 680 460 643 424 c 128,-1,13
 606 388 606 388 557 367 c 128,-1,14
 508 346 508 346 453 346 c 0,15,16
 397 346 397 346 347.5 367 c 128,-1,17
 298 388 298 388 261 424 c 128,-1,18
 224 460 224 460 203 508.5 c 128,-1,19
 182 557 182 557 182 612 c 0,0,1
317 608 m 0,20,21
 317 581 317 581 328 556.5 c 128,-1,22
 339 532 339 532 358.5 514 c 128,-1,23
 378 496 378 496 403 485.5 c 128,-1,24
 428 475 428 475 457 475 c 0,25,26
 485 475 485 475 510.5 485.5 c 128,-1,27
 536 496 536 496 555 514 c 128,-1,28
 574 532 574 532 585 556.5 c 128,-1,29
 596 581 596 581 596 608 c 0,30,31
 596 636 596 636 585 661 c 128,-1,32
 574 686 574 686 555 704 c 128,-1,33
 536 722 536 722 510.5 732.5 c 128,-1,34
 485 743 485 743 457 743 c 0,35,36
 428 743 428 743 403 732.5 c 128,-1,37
 378 722 378 722 358.5 704 c 128,-1,38
 339 686 339 686 328 661 c 128,-1,39
 317 636 317 636 317 608 c 0,20,21
EndSplineSet
EndChar

StartChar: afii57393.001
Encoding: 1633 1633 415
Width: 836
Flags: W
LayerCount: 2
Fore
SplineSet
326 0 m 1,0,-1
 326 694 l 2,1,2
 326 1077 326 1077 215 1378 c 1,3,-1
 508 1468 l 1,4,5
 526 1421 526 1421 545.5 1338 c 128,-1,6
 565 1255 565 1255 590 1139 c 1,7,8
 602 1059 602 1059 612.5 950.5 c 128,-1,9
 623 842 623 842 623 694 c 1,10,11
 627 631 627 631 627 459 c 2,12,-1
 627 0 l 1,13,-1
 326 0 l 1,0,-1
EndSplineSet
EndChar

StartChar: afii57394.001
Encoding: 1634 1634 416
Width: 1141
Flags: W
LayerCount: 2
Fore
SplineSet
1055 1024 m 0,0,1
 1055 897 1055 897 938 793 c 1,2,3
 817 707 817 707 694 707 c 0,4,5
 635 707 635 707 602 718 c 128,-1,6
 569 729 569 729 539 745 c 1,7,-1
 539 0 l 1,8,-1
 242 0 l 1,9,-1
 242 467 l 2,10,11
 242 1020 242 1020 119 1374 c 1,12,-1
 418 1464 l 1,13,-1
 512 1073 l 1,14,15
 539 979 539 979 629 979 c 0,16,17
 670 979 670 979 709 1015 c 128,-1,18
 748 1051 748 1051 741 1100 c 2,19,-1
 700 1378 l 1,20,21
 756 1395 756 1395 825.5 1418.5 c 128,-1,22
 895 1442 895 1442 981 1464 c 1,23,24
 1016 1298 1016 1298 1035.5 1188.5 c 128,-1,25
 1055 1079 1055 1079 1055 1024 c 0,0,1
EndSplineSet
EndChar

StartChar: afii57395.001
Encoding: 1635 1635 417
Width: 1655
Flags: W
LayerCount: 2
Fore
SplineSet
1528 1053 m 0,0,1
 1528 985 1528 985 1497 924.5 c 128,-1,2
 1466 864 1466 864 1416 819 c 128,-1,3
 1366 774 1366 774 1304.5 748.5 c 128,-1,4
 1243 723 1243 723 1178 723 c 0,5,6
 1065 723 1065 723 944 823 c 1,7,8
 879 723 879 723 664 723 c 0,9,10
 606 723 606 723 539 748 c 1,11,-1
 539 0 l 1,12,-1
 248 0 l 1,13,-1
 248 459 l 2,14,15
 248 748 248 748 216 974 c 128,-1,16
 184 1200 184 1200 123 1378 c 1,17,-1
 424 1468 l 1,18,-1
 516 1075 l 1,19,20
 532 981 532 981 633 981 c 0,21,22
 678 981 678 981 706.5 1017 c 128,-1,23
 735 1053 735 1053 750 1096 c 1,24,-1
 698 1382 l 1,25,-1
 991 1485 l 1,26,27
 1047 1188 1047 1188 1047 1075 c 2,28,-1
 1047 1042 l 2,29,30
 1047 1028 1047 1028 1040 1016 c 1,31,32
 1077 975 1077 975 1128 975 c 0,33,34
 1169 975 1169 975 1204 1014 c 128,-1,35
 1239 1053 1239 1053 1239 1096 c 1,36,-1
 1198 1382 l 1,37,-1
 1481 1468 l 1,38,39
 1491 1378 1491 1378 1505 1264 c 1,40,41
 1524 1192 1524 1192 1526 1141 c 128,-1,42
 1528 1090 1528 1090 1528 1053 c 0,0,1
EndSplineSet
EndChar

StartChar: afii57396
Encoding: 1636 1636 418
Width: 1200
Flags: W
LayerCount: 2
Fore
SplineSet
1073 795 m 1,0,1
 1053 774 1053 774 1036 774 c 1,2,3
 838 672 838 672 726 609.5 c 128,-1,4
 614 547 614 547 561 511 c 128,-1,5
 508 475 508 475 495.5 457.5 c 128,-1,6
 483 440 483 440 483 428 c 0,7,8
 483 360 483 360 600 338 c 1,9,-1
 1053 338 l 1,10,-1
 1055 10 l 1,11,-1
 606 6 l 1,12,13
 504 0 504 0 421 30.5 c 128,-1,14
 338 61 338 61 278.5 116.5 c 128,-1,15
 219 172 219 172 185.5 244.5 c 128,-1,16
 152 317 152 317 147.5 395 c 128,-1,17
 143 473 143 473 169 550 c 128,-1,18
 195 627 195 627 256 692 c 0,19,20
 279 713 279 713 310.5 732.5 c 128,-1,21
 342 752 342 752 377 772 c 1,22,23
 299 834 299 834 258 912.5 c 128,-1,24
 217 991 217 991 217 1100 c 2,25,-1
 217 1120 l 1,26,27
 225 1274 225 1274 350 1384 c 1,28,29
 471 1497 471 1497 631 1497 c 0,30,31
 758 1497 758 1497 993 1409 c 1,32,33
 969 1364 969 1364 941 1298.5 c 128,-1,34
 913 1233 913 1233 879 1143 c 1,35,36
 696 1202 696 1202 662 1202 c 0,37,38
 596 1202 596 1202 557 1159 c 0,39,40
 535 1137 535 1137 535 1104 c 0,41,42
 535 1083 535 1083 547 1053 c 0,43,44
 575 981 575 981 670 971 c 0,45,46
 702 971 702 971 940 1090 c 1,47,-1
 1071 801 l 1,48,-1
 1073 795 l 1,0,1
EndSplineSet
EndChar

StartChar: afii57397
Encoding: 1637 1637 419
Width: 1473
Flags: W
LayerCount: 2
Fore
SplineSet
1343 403 m 0,0,1
 1343 244 1343 244 1249 145.5 c 128,-1,2
 1155 47 1155 47 928 23 c 0,3,4
 870 14 870 14 817 11 c 128,-1,5
 764 8 764 8 711 8 c 0,6,7
 657 8 657 8 609 11 c 128,-1,8
 561 14 561 14 514 23 c 0,9,10
 436 35 436 35 365.5 65.5 c 128,-1,11
 295 96 295 96 240.5 145.5 c 128,-1,12
 186 195 186 195 155.5 262.5 c 128,-1,13
 125 330 125 330 129 418 c 1,14,15
 113 446 113 446 122 500.5 c 128,-1,16
 131 555 131 555 158.5 621.5 c 128,-1,17
 186 688 186 688 226 762 c 128,-1,18
 266 836 266 836 310 902.5 c 128,-1,19
 354 969 354 969 397 1022 c 128,-1,20
 440 1075 440 1075 475 1102 c 1,21,-1
 412 1147 l 1,22,-1
 602 1382 l 1,23,24
 981 1090 981 1090 1162 843 c 128,-1,25
 1343 596 1343 596 1343 403 c 0,0,1
1014 440 m 0,26,27
 1014 616 1014 616 684 891 c 1,28,29
 440 631 440 631 440 451 c 0,30,31
 440 408 440 408 459 381 c 0,32,33
 481 344 481 344 544.5 320.5 c 128,-1,34
 608 297 608 297 729 297 c 0,35,36
 848 297 848 297 934 322 c 0,37,38
 1014 342 1014 342 1014 440 c 0,26,27
EndSplineSet
EndChar

StartChar: afii57398
Encoding: 1638 1638 420
Width: 1192
Flags: W
LayerCount: 2
Fore
SplineSet
381 1430 m 1,0,1
 369 1364 369 1364 388.5 1319 c 128,-1,2
 408 1274 408 1274 443.5 1251.5 c 128,-1,3
 479 1229 479 1229 526 1228 c 128,-1,4
 573 1227 573 1227 618.5 1249.5 c 128,-1,5
 664 1272 664 1272 699.5 1317 c 128,-1,6
 735 1362 735 1362 750 1432 c 1,7,-1
 1067 1374 l 1,8,9
 1042 1331 1042 1331 1024 1239 c 128,-1,10
 1006 1147 1006 1147 990.5 1025 c 128,-1,11
 975 903 975 903 965.5 763 c 128,-1,12
 956 623 956 623 951 484.5 c 128,-1,13
 946 346 946 346 944 219 c 128,-1,14
 942 92 942 92 946 -2 c 1,15,-1
 623 2 l 1,16,17
 618 49 618 49 614 131 c 128,-1,18
 610 213 610 213 609 332 c 128,-1,19
 608 451 608 451 614.5 606.5 c 128,-1,20
 621 762 621 762 637 958 c 1,21,22
 604 932 604 932 541.5 922.5 c 128,-1,23
 479 913 479 913 405.5 924.5 c 128,-1,24
 332 936 332 936 258 972 c 128,-1,25
 184 1008 184 1008 131 1074.5 c 128,-1,26
 78 1141 78 1141 54.5 1238 c 128,-1,27
 31 1335 31 1335 59 1473 c 1,28,-1
 381 1430 l 1,0,1
EndSplineSet
EndChar

StartChar: afii57399.001
Encoding: 1639 1639 421
Width: 1473
Flags: W
LayerCount: 2
Fore
SplineSet
1389 1378 m 1,0,1
 1126 987 1126 987 1036 709 c 1,2,3
 940 469 940 469 842 0 c 1,4,-1
 598 0 l 1,5,6
 573 166 573 166 543.5 289 c 128,-1,7
 514 412 514 412 483 500 c 1,8,9
 426 709 426 709 283 969 c 1,10,11
 215 1106 215 1106 156.5 1204.5 c 128,-1,12
 98 1303 98 1303 59 1370 c 1,13,-1
 328 1507 l 1,14,15
 451 1292 451 1292 530.5 1140.5 c 128,-1,16
 610 989 610 989 620.5 949 c 128,-1,17
 631 909 631 909 662 801 c 0,18,19
 684 725 684 725 721 596 c 1,20,21
 733 649 733 649 758 733 c 0,22,23
 793 866 793 866 909 1114 c 0,24,25
 1022 1350 1022 1350 1126 1501 c 1,26,27
 1188 1466 1188 1466 1252.5 1434.5 c 128,-1,28
 1317 1403 1317 1403 1389 1378 c 1,0,1
EndSplineSet
EndChar

StartChar: afii57400.001
Encoding: 1640 1640 422
Width: 1567
Flags: W
LayerCount: 2
Fore
SplineSet
1473 131 m 1,0,1
 1331 84 1331 84 1198 0 c 1,2,3
 1114 141 1114 141 1050.5 262 c 128,-1,4
 987 383 987 383 938 485 c 1,5,6
 899 598 899 598 856 729 c 0,7,8
 827 817 827 817 801 922 c 1,9,10
 745 676 745 676 666 494 c 0,11,12
 588 313 588 313 406 0 c 1,13,14
 270 78 270 78 137 141 c 1,15,16
 299 440 299 440 394 631.5 c 128,-1,17
 489 823 489 823 510 920 c 1,18,19
 547 1014 547 1014 587 1160.5 c 128,-1,20
 627 1307 627 1307 684 1516 c 1,21,-1
 924 1501 l 1,22,23
 963 1350 963 1350 1008 1169.5 c 128,-1,24
 1053 989 1053 989 1116 793 c 1,25,26
 1233 522 1233 522 1473 131 c 1,0,1
EndSplineSet
EndChar

StartChar: afii57401.001
Encoding: 1641 1641 423
Width: 1096
Flags: W
LayerCount: 2
Fore
SplineSet
674 0 m 1,0,-1
 674 725 l 1,1,2
 598 694 598 694 485 694 c 0,3,4
 309 694 309 694 199.5 785.5 c 128,-1,5
 90 877 90 877 90 1057 c 256,6,7
 90 1237 90 1237 211 1375 c 128,-1,8
 332 1513 332 1513 508 1513 c 1,9,10
 618 1528 618 1528 775 1451 c 128,-1,11
 932 1374 932 1374 973 1126 c 1,12,-1
 979 0 l 1,13,-1
 674 0 l 1,0,-1
655 1038 m 1,14,15
 651 1061 651 1061 639 1122.5 c 128,-1,16
 627 1184 627 1184 579.5 1212.5 c 128,-1,17
 532 1241 532 1241 459.5 1206 c 128,-1,18
 387 1171 387 1171 392 1080 c 128,-1,19
 397 989 397 989 485 981 c 1,20,21
 567 979 567 979 655 1038 c 1,14,15
EndSplineSet
EndChar

StartChar: guillemotleft
Encoding: 171 171 424
Width: 840
Flags: W
LayerCount: 2
Fore
SplineSet
463 411 m 2,0,1
 463 580 463 580 534.5 687.5 c 128,-1,2
 606 795 606 795 734 837 c 1,3,4
 746 831 746 831 722 785 c 0,5,6
 685 706 685 706 662 610 c 0,7,8
 638 516 638 516 638 406 c 2,9,-1
 638 403 l 2,10,11
 638 293 638 293 662 198 c 0,12,13
 685 103 685 103 722 24 c 0,14,15
 746 -22 746 -22 676.5 -2.5 c 128,-1,16
 607 17 607 17 558.5 93 c 128,-1,17
 510 169 510 169 487 243.5 c 128,-1,18
 464 318 464 318 463 398 c 2,19,-1
 463 411 l 2,0,1
163 411 m 2,20,21
 163 580 163 580 234.5 687.5 c 128,-1,22
 306 795 306 795 434 837 c 1,23,24
 446 831 446 831 422 785 c 0,25,26
 385 706 385 706 362 610 c 0,27,28
 338 516 338 516 338 406 c 2,29,-1
 338 403 l 2,30,31
 338 293 338 293 362 198 c 0,32,33
 385 103 385 103 422 24 c 0,34,35
 446 -22 446 -22 376.5 -2.5 c 128,-1,36
 307 17 307 17 258.5 93 c 128,-1,37
 210 169 210 169 187 243.5 c 128,-1,38
 164 318 164 318 163 398 c 2,39,-1
 163 411 l 2,20,21
EndSplineSet
EndChar

StartChar: guillemotright
Encoding: 187 187 425
Width: 825
Flags: W
LayerCount: 2
Fore
SplineSet
446 398 m 2,0,1
 445 318 445 318 422 243.5 c 128,-1,2
 399 169 399 169 350.5 93 c 128,-1,3
 302 17 302 17 232.5 -2.5 c 128,-1,4
 163 -22 163 -22 187 24 c 0,5,6
 224 103 224 103 247 198 c 0,7,8
 271 293 271 293 271 403 c 2,9,-1
 271 406 l 2,10,11
 271 516 271 516 247 610 c 0,12,13
 224 706 224 706 187 785 c 0,14,15
 163 831 163 831 175 837 c 1,16,17
 303 795 303 795 374.5 687.5 c 128,-1,18
 446 580 446 580 446 411 c 2,19,-1
 446 398 l 2,0,1
746 398 m 2,20,21
 745 318 745 318 722 243.5 c 128,-1,22
 699 169 699 169 650.5 93 c 128,-1,23
 602 17 602 17 532.5 -2.5 c 128,-1,24
 463 -22 463 -22 487 24 c 0,25,26
 524 103 524 103 547 198 c 0,27,28
 571 293 571 293 571 403 c 2,29,-1
 571 406 l 2,30,31
 571 516 571 516 547 610 c 0,32,33
 524 706 524 706 487 785 c 0,34,35
 463 831 463 831 475 837 c 1,36,37
 603 795 603 795 674.5 687.5 c 128,-1,38
 746 580 746 580 746 411 c 2,39,-1
 746 398 l 2,20,21
EndSplineSet
EndChar

StartChar: quoteleft
Encoding: 8216 8216 426
Width: 516
Flags: W
LayerCount: 2
Fore
SplineSet
111 1204 m 0,0,1
 115 1296 115 1296 176.5 1385.5 c 128,-1,2
 238 1475 238 1475 313 1511 c 1,3,-1
 356 1427 l 1,4,5
 336 1415 336 1415 305 1381.5 c 128,-1,6
 274 1348 274 1348 258 1296 c 1,7,8
 350 1255 350 1255 348 1180 c 0,9,10
 348 1157 348 1157 338.5 1136 c 128,-1,11
 329 1115 329 1115 313.5 1099 c 128,-1,12
 298 1083 298 1083 277 1074 c 128,-1,13
 256 1065 256 1065 233 1065 c 0,14,15
 205 1065 205 1065 182.5 1077.5 c 128,-1,16
 160 1090 160 1090 144 1109.5 c 128,-1,17
 128 1129 128 1129 119.5 1154 c 128,-1,18
 111 1179 111 1179 111 1204 c 0,0,1
EndSplineSet
EndChar

StartChar: quoteright
Encoding: 8217 8217 427
Width: 575
Flags: W
LayerCount: 2
Fore
SplineSet
416 1376 m 0,0,1
 412 1284 412 1284 350.5 1195 c 128,-1,2
 289 1106 289 1106 213 1069 c 1,3,-1
 170 1151 l 1,4,5
 190 1163 190 1163 221 1197 c 128,-1,6
 252 1231 252 1231 268 1284 c 1,7,8
 176 1323 176 1323 178 1401 c 0,9,10
 178 1424 178 1424 187 1444.5 c 128,-1,11
 196 1465 196 1465 212 1480 c 128,-1,12
 228 1495 228 1495 249 1504 c 128,-1,13
 270 1513 270 1513 293 1513 c 0,14,15
 321 1513 321 1513 344 1501 c 128,-1,16
 367 1489 367 1489 383 1470 c 128,-1,17
 399 1451 399 1451 407.5 1426 c 128,-1,18
 416 1401 416 1401 416 1376 c 0,0,1
EndSplineSet
EndChar

StartChar: afii57451
Encoding: 1611 1611 428
Width: 0
GlyphClass: 4
Flags: W
AnchorPoint: "Anchor-2" 0 0 mark 0
AnchorPoint: "Anchor-0" 0 0 mark 0
LayerCount: 2
Fore
SplineSet
-289 121 m 1,0,-1
 266 262 l 1,1,-1
 266 144 l 1,2,-1
 -289 5 l 1,3,-1
 -289 121 l 1,0,-1
-289 341 m 1,4,-1
 266 482 l 1,5,-1
 266 364 l 1,6,-1
 -289 225 l 1,7,-1
 -289 341 l 1,4,-1
EndSplineSet
EndChar

StartChar: afii57454
Encoding: 1614 1614 429
Width: 0
GlyphClass: 4
Flags: W
AnchorPoint: "Anchor-2" 0 0 mark 0
AnchorPoint: "Anchor-0" 0 0 mark 0
LayerCount: 2
Fore
SplineSet
-289 121 m 1,0,-1
 266 262 l 1,1,-1
 266 144 l 1,2,-1
 -289 5 l 1,3,-1
 -289 121 l 1,0,-1
EndSplineSet
EndChar

StartChar: afii57455
Encoding: 1615 1615 430
Width: 0
GlyphClass: 4
Flags: W
AnchorPoint: "Anchor-2" 0 0 mark 0
AnchorPoint: "Anchor-0" 0 0 mark 0
LayerCount: 2
Fore
SplineSet
225 431 m 0,0,1
 226 299 226 299 127 233 c 1,2,-1
 -281 2 l 1,3,-1
 -341 104 l 1,4,-1
 -47 269 l 1,5,6
 -139 317 -139 317 -141 415 c 0,7,8
 -143 485 -143 485 -100 541 c 128,-1,9
 -57 597 -57 597 21 612 c 1,10,11
 102 620 102 620 164 567 c 128,-1,12
 226 514 226 514 225 431 c 0,0,1
-31 423 m 0,13,14
 -31 392 -31 392 -10 371 c 128,-1,15
 11 350 11 350 42 350 c 0,16,17
 72 350 72 350 93.5 371 c 128,-1,18
 115 392 115 392 115 423 c 0,19,20
 115 453 115 453 93.5 474.5 c 128,-1,21
 72 496 72 496 42 496 c 0,22,23
 11 496 11 496 -10 474.5 c 128,-1,24
 -31 453 -31 453 -31 423 c 0,13,14
EndSplineSet
EndChar

StartChar: afii57452
Encoding: 1612 1612 431
Width: 0
GlyphClass: 4
Flags: W
AnchorPoint: "Anchor-2" 0 0 mark 0
AnchorPoint: "Anchor-0" 0 0 mark 0
LayerCount: 2
Fore
SplineSet
221 416 m 0,0,1
 222 284 222 284 123 218 c 1,2,-1
 -285 -13 l 1,3,-1
 -345 89 l 1,4,5
 -252 140 -252 140 -242 160 c 0,6,7
 -225 217 -225 217 -278 222 c 0,8,9
 -315 222 -315 222 -401 205 c 1,10,-1
 -416 311 l 1,11,12
 -154 360 -154 360 -142 199 c 1,13,-1
 -51 254 l 1,14,15
 -143 302 -143 302 -145 400 c 0,16,17
 -147 470 -147 470 -104 526 c 128,-1,18
 -61 582 -61 582 17 597 c 1,19,20
 98 605 98 605 160 552 c 128,-1,21
 222 499 222 499 221 416 c 0,0,1
-35 408 m 0,22,23
 -35 377 -35 377 -14 356 c 128,-1,24
 7 335 7 335 38 335 c 0,25,26
 68 335 68 335 89.5 356 c 128,-1,27
 111 377 111 377 111 408 c 0,28,29
 111 438 111 438 89.5 459.5 c 128,-1,30
 68 481 68 481 38 481 c 0,31,32
 7 481 7 481 -14 459.5 c 128,-1,33
 -35 438 -35 438 -35 408 c 0,22,23
EndSplineSet
EndChar

StartChar: afii57456
Encoding: 1616 1616 432
Width: 0
GlyphClass: 4
Flags: W
AnchorPoint: "Anchor-3" 0 0 mark 0
AnchorPoint: "Anchor-1" 0 0 mark 0
LayerCount: 2
Fore
SplineSet
-289 121 m 1,0,-1
 266 262 l 1,1,-1
 266 144 l 1,2,-1
 -289 5 l 1,3,-1
 -289 121 l 1,0,-1
EndSplineSet
EndChar

StartChar: afii57457
Encoding: 1617 1617 433
Width: 0
GlyphClass: 4
Flags: W
AnchorPoint: "Anchor-2" 0 0 mark 0
AnchorPoint: "Anchor-0" 0 0 mark 0
LayerCount: 2
Fore
SplineSet
-307 331 m 1,0,-1
 -189 331 l 1,1,-1
 -189 164 l 1,2,3
 -185 126 -185 126 -123 122.5 c 128,-1,4
 -61 119 -61 119 -61 164 c 2,5,-1
 -61 331 l 1,6,-1
 57 331 l 1,7,-1
 57 164 l 2,8,9
 57 138 57 138 76.5 126 c 128,-1,10
 96 114 96 114 139 116.5 c 128,-1,11
 182 119 182 119 182 155 c 2,12,-1
 182 331 l 1,13,-1
 305 331 l 1,14,-1
 305 170 l 1,15,16
 300 89 300 89 273 61 c 0,17,18
 221 2 221 2 141 4 c 0,19,20
 60 4 60 4 3 61 c 1,21,22
 -35 -2 -35 -2 -148 -2 c 0,23,24
 -223 -2 -223 -2 -265 43.5 c 128,-1,25
 -307 89 -307 89 -307 170 c 2,26,-1
 -307 331 l 1,0,-1
EndSplineSet
EndChar

StartChar: afii57458
Encoding: 1618 1618 434
Width: 0
GlyphClass: 4
Flags: W
AnchorPoint: "Anchor-2" 0 0 mark 0
AnchorPoint: "Anchor-0" 0 0 mark 0
LayerCount: 2
Fore
SplineSet
-228 245 m 256,0,1
 -228 296 -228 296 -210.5 340.5 c 128,-1,2
 -193 385 -193 385 -162.5 417.5 c 128,-1,3
 -132 450 -132 450 -90 469.5 c 128,-1,4
 -48 489 -48 489 1 489 c 256,5,6
 50 489 50 489 92 469.5 c 128,-1,7
 134 450 134 450 165 417.5 c 128,-1,8
 196 385 196 385 213.5 340.5 c 128,-1,9
 231 296 231 296 231 245 c 256,10,11
 231 194 231 194 213.5 150 c 128,-1,12
 196 106 196 106 165 74.5 c 128,-1,13
 134 43 134 43 92 24.5 c 128,-1,14
 50 6 50 6 1 6 c 256,15,16
 -48 6 -48 6 -90 24.5 c 128,-1,17
 -132 43 -132 43 -162.5 74.5 c 128,-1,18
 -193 106 -193 106 -210.5 150 c 128,-1,19
 -228 194 -228 194 -228 245 c 256,0,1
-120 241 m 0,20,21
 -120 187 -120 187 -83 149 c 128,-1,22
 -46 111 -46 111 5 111 c 0,23,24
 55 111 55 111 92 149 c 128,-1,25
 129 187 129 187 129 241 c 0,26,27
 129 297 129 297 92 336.5 c 128,-1,28
 55 376 55 376 5 376 c 0,29,30
 -46 376 -46 376 -83 336.5 c 128,-1,31
 -120 297 -120 297 -120 241 c 0,20,21
EndSplineSet
EndChar

StartChar: exclam
Encoding: 33 33 437
Width: 762
GlyphClass: 2
Flags: W
LayerCount: 2
Fore
SplineSet
455 432 m 1,0,-1
 293 432 l 1,1,-1
 223 1378 l 1,2,3
 242 1430 242 1430 288 1450 c 128,-1,4
 334 1470 334 1470 383 1467 c 128,-1,5
 432 1464 432 1464 474 1439.5 c 128,-1,6
 516 1415 516 1415 526 1378 c 1,7,-1
 455 432 l 1,0,-1
213 162 m 0,8,9
 213 225 213 225 258 270 c 128,-1,10
 303 315 303 315 367 315 c 0,11,12
 432 315 432 315 476 270 c 128,-1,13
 520 225 520 225 520 162 c 0,14,15
 520 98 520 98 476 51 c 128,-1,16
 432 4 432 4 367 4 c 0,17,18
 303 4 303 4 258 51 c 128,-1,19
 213 98 213 98 213 162 c 0,8,9
EndSplineSet
EndChar

StartChar: afii64060
Encoding: 64830 64830 438
Width: 860
GlyphClass: 2
Flags: W
LayerCount: 2
Fore
SplineSet
186 694 m 0,0,1
 186 954 186 954 256 1155 c 1,2,3
 309 1325 309 1325 485 1571 c 1,4,-1
 666 1571 l 1,5,6
 593 1430 593 1430 544.5 1324.5 c 128,-1,7
 496 1219 496 1219 476 1141 c 0,8,9
 423 958 423 958 423 686 c 0,10,11
 423 485 423 485 496 274 c 1,12,13
 521 215 521 215 564 120 c 128,-1,14
 607 25 607 25 666 -98 c 1,15,-1
 490 -98 l 1,16,17
 412 20 412 20 358.5 113.5 c 128,-1,18
 305 207 305 207 270 274 c 1,19,20
 186 500 186 500 186 694 c 0,0,1
EndSplineSet
EndChar

StartChar: afii64061
Encoding: 64831 64831 439
Width: 758
GlyphClass: 2
Flags: W
LayerCount: 2
Fore
SplineSet
666 694 m 0,0,1
 666 500 666 500 582 274 c 1,2,3
 547 207 547 207 493.5 113.5 c 128,-1,4
 440 20 440 20 362 -98 c 1,5,-1
 186 -98 l 1,6,7
 245 25 245 25 288 120 c 128,-1,8
 331 215 331 215 356 274 c 1,9,10
 429 485 429 485 429 686 c 0,11,12
 429 958 429 958 376 1141 c 0,13,14
 356 1219 356 1219 307.5 1324.5 c 128,-1,15
 259 1430 259 1430 186 1571 c 1,16,-1
 367 1571 l 1,17,18
 543 1325 543 1325 596 1155 c 1,19,20
 666 954 666 954 666 694 c 0,0,1
EndSplineSet
EndChar

StartChar: afii62821
Encoding: 65252 65252 440
Width: 1214
GlyphClass: 2
Flags: W
AnchorPoint: "Anchor-1" 480 -525 basechar 0
AnchorPoint: "Anchor-0" 570 1200 basechar 0
LayerCount: 2
Fore
SplineSet
1239 0 m 1,0,1
 1026 -6 1026 -6 930 88 c 1,2,3
 823 -31 823 -31 631 -31 c 0,4,5
 610 -31 610 -31 567 -20.5 c 128,-1,6
 524 -10 524 -10 485 7.5 c 128,-1,7
 446 25 446 25 413.5 47.5 c 128,-1,8
 381 70 381 70 362 88 c 1,9,10
 268 0 268 0 -18 0 c 1,11,-1
 -18 309 l 1,12,13
 186 309 186 309 207 328 c 1,14,-1
 207 455 l 2,15,16
 207 674 207 674 313 803 c 0,17,18
 373 874 373 874 448.5 914 c 128,-1,19
 524 954 524 954 631 954 c 0,20,21
 813 954 813 954 950 803 c 1,22,23
 1008 733 1008 733 1025 657.5 c 128,-1,24
 1042 582 1042 582 1051.5 533.5 c 128,-1,25
 1061 485 1061 485 1064 409.5 c 128,-1,26
 1067 334 1067 334 1071 328 c 0,27,28
 1081 313 1081 313 1239 309 c 1,29,-1
 1239 0 l 1,0,1
768 455 m 0,30,31
 768 647 768 647 631 647 c 0,32,33
 489 647 489 647 489 455 c 0,34,35
 489 274 489 274 631 274 c 0,36,37
 768 274 768 274 768 455 c 0,30,31
EndSplineSet
EndChar

StartChar: uni25CC
Encoding: 9676 9676 441
Width: 911
Flags: W
AnchorPoint: "Anchor-1" 435 -450 basechar 0
AnchorPoint: "Anchor-0" 465 975 basechar 0
LayerCount: 2
Fore
SplineSet
771 629 m 256,0,1
 771 592 771 592 734 592 c 0,2,3
 695 592 695 592 695 629 c 256,4,5
 695 666 695 666 734 666 c 0,6,7
 771 666 771 666 771 629 c 256,0,1
658 703 m 0,8,9
 658 666 658 666 621 666 c 0,10,11
 582 666 582 666 582 703 c 0,12,13
 582 742 582 742 621 742 c 0,14,15
 658 742 658 742 658 703 c 0,8,9
847 516 m 0,16,17
 847 477 847 477 808 477 c 0,18,19
 771 477 771 477 771 516 c 0,20,21
 771 553 771 553 810 553 c 0,22,23
 847 553 847 553 847 516 c 0,16,17
873 384 m 256,24,25
 873 347 873 347 836 347 c 0,26,27
 797 347 797 347 797 384 c 256,28,29
 797 421 797 421 836 421 c 0,30,31
 873 421 873 421 873 384 c 256,24,25
525 731 m 0,32,33
 525 692 525 692 488 692 c 256,34,35
 451 692 451 692 451 731 c 0,36,37
 451 768 451 768 488 768 c 256,38,39
 525 768 525 768 525 731 c 0,32,33
847 251 m 0,40,41
 847 214 847 214 808 214 c 0,42,43
 771 214 771 214 771 251 c 0,44,45
 771 290 771 290 808 290 c 0,46,47
 847 290 847 290 847 251 c 0,40,41
394 703 m 0,48,49
 394 666 394 666 356 666 c 0,50,51
 319 666 319 666 319 703 c 0,52,53
 319 742 319 742 356 742 c 0,54,55
 394 742 394 742 394 703 c 0,48,49
282 629 m 256,56,57
 282 592 282 592 243 592 c 0,58,59
 206 592 206 592 206 627 c 0,60,61
 206 666 206 666 243 666 c 0,62,63
 282 666 282 666 282 629 c 256,56,57
771 138 m 0,64,65
 771 101 771 101 734 101 c 256,66,67
 697 101 697 101 697 138 c 0,68,69
 697 177 697 177 734 177 c 256,70,71
 771 177 771 177 771 138 c 0,64,65
658 64 m 0,72,73
 658 27 658 27 621 27 c 256,74,75
 584 27 584 27 584 64 c 0,76,77
 584 103 584 103 621 103 c 256,78,79
 658 103 658 103 658 64 c 0,72,73
206 516 m 0,80,81
 206 477 206 477 171 477 c 0,82,83
 132 477 132 477 132 516 c 0,84,85
 132 553 132 553 169 553 c 256,86,87
 206 553 206 553 206 516 c 0,80,81
180 384 m 256,88,89
 180 347 180 347 143 347 c 0,90,91
 104 347 104 347 104 384 c 256,92,93
 104 421 104 421 143 421 c 0,94,95
 180 421 180 421 180 384 c 256,88,89
525 38 m 0,96,97
 525 -1 525 -1 488 -1 c 256,98,99
 451 -1 451 -1 451 38 c 0,100,101
 451 75 451 75 488 75 c 256,102,103
 525 75 525 75 525 38 c 0,96,97
394 66 m 0,104,105
 394 27 394 27 356 27 c 0,106,107
 319 27 319 27 319 64 c 0,108,109
 319 103 319 103 356 103 c 0,110,111
 394 103 394 103 394 66 c 0,104,105
206 251 m 0,112,113
 206 214 206 214 169 214 c 256,114,115
 132 214 132 214 132 251 c 0,116,117
 132 290 132 290 169 290 c 256,118,119
 206 290 206 290 206 251 c 0,112,113
282 138 m 0,120,121
 282 101 282 101 245 101 c 0,122,123
 206 101 206 101 206 138 c 0,124,125
 206 177 206 177 243 177 c 0,126,127
 282 177 282 177 282 138 c 0,120,121
EndSplineSet
EndChar

StartChar: afii62819
Encoding: 65246 65246 442
Width: 1874
GlyphClass: 2
Flags: W
AnchorPoint: "Anchor-1" 810 -1155 basechar 0
AnchorPoint: "Anchor-0" 900 1605 basechar 0
LayerCount: 2
Fore
SplineSet
1913 0 m 1,0,1
 1733 -6 1733 -6 1669 45 c 1,2,3
 1642 -207 1642 -207 1487 -373 c 1,4,5
 1339 -553 1339 -553 954 -553 c 2,6,-1
 748 -553 l 2,7,8
 522 -553 522 -553 358 -358 c 1,9,10
 186 -182 186 -182 186 59 c 2,11,-1
 186 549 l 1,12,-1
 485 549 l 1,13,-1
 485 31 l 2,14,15
 485 -88 485 -88 582 -158 c 1,16,17
 666 -240 666 -240 788 -240 c 2,18,-1
 1067 -240 l 2,19,20
 1176 -240 1176 -240 1272 -158 c 0,21,22
 1356 -82 1356 -82 1356 31 c 2,23,-1
 1356 1466 l 1,24,-1
 1669 1466 l 1,25,-1
 1669 422 l 2,26,27
 1669 313 1669 313 1913 309 c 1,28,-1
 1913 0 l 1,29,-1
 1913 0 l 1,0,1
EndSplineSet
EndChar

StartChar: braceright
Encoding: 125 125 445
Width: 638
GlyphClass: 2
Flags: W
LayerCount: 2
Fore
SplineSet
583 328 m 1,0,1
 541 327 541 327 512.5 318 c 128,-1,2
 484 309 484 309 465.5 291 c 128,-1,3
 447 273 447 273 435 244.5 c 128,-1,4
 423 216 423 216 414 177 c 0,5,6
 408 136 408 136 408 44 c 0,7,8
 408 -108 408 -108 394 -172 c 0,9,10
 381 -233 381 -233 342 -270 c 0,11,12
 306 -308 306 -308 233 -331 c 0,13,14
 208 -337 208 -337 170 -340.5 c 128,-1,15
 132 -344 132 -344 78 -344 c 2,16,-1
 36 -344 l 1,17,-1
 36 -152 l 1,18,19
 124 -152 124 -152 147 -141 c 0,20,21
 175 -131 175 -131 186 -110 c 0,22,23
 200 -90 200 -90 200 -41 c 0,24,25
 200 7 200 7 206 144 c 0,26,27
 209 204 209 204 219 248.5 c 128,-1,28
 229 293 229 293 247 325.5 c 128,-1,29
 265 358 265 358 290.5 381.5 c 128,-1,30
 316 405 316 405 349 424 c 1,31,32
 320 443 320 443 299 462 c 128,-1,33
 278 481 278 481 264 500 c 0,34,35
 226 551 226 551 211 634 c 0,36,37
 207 663 207 663 204.5 724 c 128,-1,38
 202 785 202 785 200 880 c 0,39,40
 199 910 199 910 196.5 929 c 128,-1,41
 194 948 194 948 188 960 c 128,-1,42
 182 972 182 972 173.5 978.5 c 128,-1,43
 165 985 165 985 152 990 c 0,44,45
 127 1001 127 1001 36 1001 c 1,46,-1
 36 1193 l 1,47,-1
 78 1193 l 2,48,49
 132 1193 132 1193 172.5 1189 c 128,-1,50
 213 1185 213 1185 244 1176 c 128,-1,51
 275 1167 275 1167 298 1153 c 128,-1,52
 321 1139 321 1139 341 1119 c 0,53,54
 381 1076 381 1076 394 1019 c 0,55,56
 408 958 408 958 408 834 c 0,57,58
 408 762 408 762 410.5 714.5 c 128,-1,59
 413 667 413 667 419 644 c 0,60,61
 428 612 428 612 441 589.5 c 128,-1,62
 454 567 454 567 473.5 552 c 128,-1,63
 493 537 493 537 519.5 529.5 c 128,-1,64
 546 522 546 522 583 519 c 1,65,-1
 583 328 l 1,66,-1
 583 328 l 1,0,1
EndSplineSet
EndChar

StartChar: uni0656
Encoding: 1622 1622 452
Width: 0
GlyphClass: 4
Flags: W
AnchorPoint: "Anchor-3" 0 0 mark 0
AnchorPoint: "Anchor-1" 0 0 mark 0
LayerCount: 2
Fore
SplineSet
67 1 m 1,0,-1
 -69 1 l 1,1,-1
 -69 455 l 1,2,-1
 67 455 l 1,3,-1
 67 1 l 1,0,-1
EndSplineSet
EndChar

StartChar: E005
Encoding: 65578 -1 470
Width: 476
GlyphClass: 3
Flags: W
LayerCount: 2
Fore
SplineSet
476 0 m 1,0,-1
 -69 0 l 1,1,-1
 -69 216 l 1,2,-1
 476 216 l 1,3,-1
 476 0 l 1,0,-1
EndSplineSet
EndChar

StartChar: afii57470
Encoding: 1726 1726 480
Width: 1430
Flags: W
AnchorPoint: "Anchor-1" 555 -630 basechar 0
AnchorPoint: "Anchor-0" 525 1440 basechar 0
LayerCount: 2
Fore
SplineSet
1395 328 m 0,0,1
 1395 170 1395 170 1276 20 c 1,2,3
 1141 -84 1141 -84 997 -84 c 0,4,5
 823 -84 823 -84 557 70 c 1,6,7
 426 6 426 6 264 0 c 1,8,-1
 -39 0 l 1,9,-1
 -39 309 l 1,10,-1
 221 309 l 1,11,12
 141 397 141 397 141 557 c 0,13,14
 141 635 141 635 173 706.5 c 128,-1,15
 205 778 205 778 257 836.5 c 128,-1,16
 309 895 309 895 380 924.5 c 128,-1,17
 451 954 451 954 532 954 c 0,18,19
 565 954 565 954 598 948 c 1,20,-1
 821 1141 l 1,21,22
 1395 606 1395 606 1395 328 c 0,0,1
647 543 m 0,23,24
 647 596 647 596 607 629 c 128,-1,25
 567 662 567 662 514 662 c 0,26,27
 504 662 504 662 455 635 c 1,28,29
 434 606 434 606 434 557 c 0,30,31
 434 461 434 461 559 397 c 1,32,33
 647 451 647 451 647 543 c 0,23,24
1077 328 m 1,34,35
 1077 362 1077 362 1045.5 415.5 c 128,-1,36
 1014 469 1014 469 958 543 c 1,37,38
 958 358 958 358 860 260 c 1,39,40
 926 233 926 233 987 233 c 0,41,42
 1014 233 1014 233 1057 260 c 1,43,44
 1067 283 1067 283 1077 328 c 1,34,35
EndSplineSet
Substitution2: "'medi' Medial Forms in Arabic lookup 3 subtable" afii62827
Substitution2: "'fina' Terminal Forms in Arabic lookup 2 subtable" afii62827
Substitution2: "'init' Initial Forms in Arabic lookup 1 subtable" afii57470
EndChar

StartChar: at
Encoding: 64 64 489
Width: 1598
Flags: W
LayerCount: 2
Fore
SplineSet
1593 14 m 1,0,1
 1551 -67 1551 -67 1490.5 -130 c 128,-1,2
 1430 -193 1430 -193 1346 -239 c 0,3,4
 1252 -293 1252 -293 1137 -318.5 c 128,-1,5
 1022 -344 1022 -344 885 -344 c 0,6,7
 752 -344 752 -344 637 -322 c 128,-1,8
 522 -300 522 -300 427.5 -256 c 128,-1,9
 333 -212 333 -212 261 -146.5 c 128,-1,10
 189 -81 189 -81 142 6 c 0,11,12
 49 181 49 181 49 386 c 0,13,14
 49 609 49 609 156 805 c 0,15,16
 209 902 209 902 280.5 975 c 128,-1,17
 352 1048 352 1048 446 1096 c 0,18,19
 629 1194 629 1194 868 1194 c 0,20,21
 969 1194 969 1194 1059.5 1174 c 128,-1,22
 1150 1154 1150 1154 1227 1115.5 c 128,-1,23
 1304 1077 1304 1077 1364.5 1021 c 128,-1,24
 1425 965 1425 965 1466 893 c 0,25,26
 1550 747 1550 747 1550 577 c 0,27,28
 1550 375 1550 375 1424 208 c 0,29,30
 1267 0 1267 0 1021 0 c 0,31,32
 953 0 953 0 919.5 23 c 128,-1,33
 886 46 886 46 875 92 c 1,34,35
 781 0 781 0 657 0 c 0,36,37
 523 0 523 0 436 92 c 0,38,39
 349 182 349 182 349 336 c 0,40,41
 349 522 349 522 455 678 c 0,42,43
 520 774 520 774 601.5 820 c 128,-1,44
 683 866 683 866 783 866 c 0,45,46
 927 866 927 866 993 758 c 1,47,-1
 1014 847 l 1,48,-1
 1226 847 l 1,49,-1
 1104 274 l 2,50,51
 1098 247 1098 247 1095.5 229 c 128,-1,52
 1093 211 1093 211 1093 203 c 0,53,54
 1093 183 1093 183 1101.5 173.5 c 128,-1,55
 1110 164 1110 164 1124 164 c 0,56,57
 1143 164 1143 164 1168 175 c 128,-1,58
 1193 186 1193 186 1224 210 c 0,59,60
 1264 240 1264 240 1297.5 282 c 128,-1,61
 1331 324 1331 324 1355 373 c 128,-1,62
 1379 422 1379 422 1392.5 476 c 128,-1,63
 1406 530 1406 530 1406 585 c 0,64,65
 1406 782 1406 782 1263 914 c 0,66,67
 1119 1047 1119 1047 865 1047 c 0,68,69
 648 1047 648 1047 498 959 c 128,-1,70
 348 871 348 871 270 710 c 0,71,72
 232 629 232 629 213.5 546 c 128,-1,73
 195 463 195 463 195 375 c 0,74,75
 195 207 195 207 280 67 c 0,76,77
 324 -2 324 -2 382.5 -52 c 128,-1,78
 441 -102 441 -102 519 -134 c 0,79,80
 672 -198 672 -198 872 -198 c 0,81,82
 1253 -198 1253 -198 1422 14 c 1,83,-1
 1593 14 l 1,0,1
557 344 m 0,84,85
 557 293 557 293 568 255.5 c 128,-1,86
 579 218 579 218 598 194 c 128,-1,87
 617 170 617 170 643 158 c 128,-1,88
 669 146 669 146 699 146 c 0,89,90
 744 146 744 146 785 169 c 0,91,92
 815 185 815 185 846 219 c 0,93,94
 887 267 887 267 919 362 c 0,95,96
 936 409 936 409 943 452 c 128,-1,97
 950 495 950 495 950 536 c 0,98,99
 950 626 950 626 907.5 674 c 128,-1,100
 865 722 865 722 801 722 c 0,101,102
 732 722 732 722 674 669.5 c 128,-1,103
 616 617 616 617 586 518 c 0,104,105
 572 468 572 468 564.5 425 c 128,-1,106
 557 382 557 382 557 344 c 0,84,85
EndSplineSet
EndChar

StartChar: A
Encoding: 65 65 490
Width: 1183
Flags: W
LayerCount: 2
Fore
SplineSet
919 0 m 1,0,-1
 818 267 l 1,1,-1
 347 267 l 1,2,-1
 250 0 l 1,3,-1
 0 0 l 1,4,-1
 457 1173 l 1,5,-1
 708 1173 l 1,6,-1
 1176 0 l 1,7,-1
 919 0 l 1,0,-1
580 899 m 1,8,-1
 421 464 l 1,9,-1
 741 464 l 1,10,-1
 580 899 l 1,8,-1
EndSplineSet
EndChar

StartChar: B
Encoding: 66 66 491
Width: 1183
Flags: W
LayerCount: 2
Fore
SplineSet
588 1173 m 2,0,1
 659 1173 659 1173 710 1170.5 c 128,-1,2
 761 1168 761 1168 796 1162 c 0,3,4
 863 1150 863 1150 919 1113 c 0,5,6
 946 1095 946 1095 969 1070 c 128,-1,7
 992 1045 992 1045 1009.5 1015 c 128,-1,8
 1027 985 1027 985 1036.5 950 c 128,-1,9
 1046 915 1046 915 1046 878 c 0,10,11
 1046 836 1046 836 1034 797.5 c 128,-1,12
 1022 759 1022 759 1000.5 726 c 128,-1,13
 979 693 979 693 948 666.5 c 128,-1,14
 917 640 917 640 880 622 c 1,15,16
 989 592 989 592 1045.5 518 c 128,-1,17
 1102 444 1102 444 1102 341 c 0,18,19
 1101 279 1101 279 1080.5 221 c 128,-1,20
 1060 163 1060 163 1022 117.5 c 128,-1,21
 984 72 984 72 929 42 c 128,-1,22
 874 12 874 12 805 8 c 0,23,24
 775 4 775 4 704 3 c 128,-1,25
 633 2 633 2 519 0 c 2,26,-1
 120 0 l 1,27,-1
 120 1173 l 1,28,-1
 588 1173 l 2,0,1
357 706 m 1,29,-1
 513 706 l 2,30,31
 582 706 582 706 624.5 707.5 c 128,-1,32
 667 709 667 709 683 711 c 0,33,34
 746 717 746 717 780 751 c 128,-1,35
 814 785 814 785 814 844 c 0,36,37
 814 898 814 898 784 932.5 c 128,-1,38
 754 967 754 967 694 974 c 0,39,40
 677 976 677 976 627.5 977 c 128,-1,41
 578 978 578 978 493 978 c 2,42,-1
 357 978 l 1,43,-1
 357 706 l 1,29,-1
357 198 m 1,44,-1
 577 198 l 2,45,46
 707 198 707 198 739 205 c 0,47,48
 793 215 793 215 825 251 c 128,-1,49
 857 287 857 287 857 350 c 0,50,51
 857 404 857 404 831.5 441.5 c 128,-1,52
 806 479 806 479 757 494 c 0,53,54
 734 503 734 503 681 507 c 128,-1,55
 628 511 628 511 547 511 c 2,56,-1
 357 511 l 1,57,-1
 357 198 l 1,44,-1
EndSplineSet
EndChar

StartChar: C
Encoding: 67 67 492
Width: 1183
Flags: W
LayerCount: 2
Fore
SplineSet
1099 359 m 1,0,1
 1046 166 1046 166 924 73 c 128,-1,2
 802 -20 802 -20 613 -20 c 0,3,4
 378 -20 378 -20 228 139 c 0,5,6
 153 220 153 220 115 328.5 c 128,-1,7
 77 437 77 437 77 577 c 0,8,9
 77 867 77 867 228 1030 c 0,10,11
 382 1193 382 1193 626 1193 c 0,12,13
 840 1193 840 1193 977 1065 c 0,14,15
 1017 1027 1017 1027 1046.5 974 c 128,-1,16
 1076 921 1076 921 1096 850 c 1,17,-1
 862 793 l 1,18,19
 841 886 841 886 775.5 938 c 128,-1,20
 710 990 710 990 614 990 c 0,21,22
 548 990 548 990 494 967.5 c 128,-1,23
 440 945 440 945 401.5 897 c 128,-1,24
 363 849 363 849 342 773.5 c 128,-1,25
 321 698 321 698 321 593 c 0,26,27
 321 482 321 482 342 404 c 128,-1,28
 363 326 363 326 401.5 276.5 c 128,-1,29
 440 227 440 227 493 204.5 c 128,-1,30
 546 182 546 182 610 182 c 0,31,32
 705 182 705 182 772.5 242.5 c 128,-1,33
 840 303 840 303 870 431 c 1,34,-1
 1099 359 l 1,0,1
EndSplineSet
EndChar

StartChar: D
Encoding: 68 68 493
Width: 1183
Flags: W
LayerCount: 2
Fore
SplineSet
550 1173 m 2,0,1
 697 1173 697 1173 775 1150 c 0,2,3
 930 1100 930 1100 1015.5 958.5 c 128,-1,4
 1101 817 1101 817 1101 575 c 0,5,6
 1101 502 1101 502 1092.5 441 c 128,-1,7
 1084 380 1084 380 1065 326 c 0,8,9
 1044 262 1044 262 1012.5 210.5 c 128,-1,10
 981 159 981 159 941 118 c 0,11,12
 878 58 878 58 774 25 c 0,13,14
 734 12 734 12 681.5 6 c 128,-1,15
 629 0 629 0 564 0 c 2,16,-1
 118 0 l 1,17,-1
 118 1173 l 1,18,-1
 550 1173 l 2,0,1
355 198 m 1,19,-1
 533 198 l 2,20,21
 582 198 582 198 617.5 200.5 c 128,-1,22
 653 203 653 203 675 208 c 0,23,24
 715 218 715 218 748.5 239.5 c 128,-1,25
 782 261 782 261 806 303 c 128,-1,26
 830 345 830 345 843.5 413 c 128,-1,27
 857 481 857 481 857 585 c 0,28,29
 856 686 856 686 843 752 c 128,-1,30
 830 818 830 818 805 860 c 128,-1,31
 780 902 780 902 742.5 925 c 128,-1,32
 705 948 705 948 655 963 c 0,33,34
 605 975 605 975 462 975 c 2,35,-1
 355 975 l 1,36,-1
 355 198 l 1,19,-1
EndSplineSet
EndChar

StartChar: E
Encoding: 69 69 494
Width: 1093
Flags: W
LayerCount: 2
Fore
SplineSet
120 1173 m 1,0,-1
 990 1173 l 1,1,-1
 990 975 l 1,2,-1
 355 975 l 1,3,-1
 355 714 l 1,4,-1
 946 714 l 1,5,-1
 946 516 l 1,6,-1
 355 516 l 1,7,-1
 355 198 l 1,8,-1
 1011 198 l 1,9,-1
 1011 0 l 1,10,-1
 120 0 l 1,11,-1
 120 1173 l 1,0,-1
EndSplineSet
EndChar

StartChar: F
Encoding: 70 70 495
Width: 1001
Flags: W
LayerCount: 2
Fore
SplineSet
122 1173 m 1,0,-1
 924 1173 l 1,1,-1
 924 975 l 1,2,-1
 357 975 l 1,3,-1
 357 696 l 1,4,-1
 847 696 l 1,5,-1
 847 498 l 1,6,-1
 357 498 l 1,7,-1
 357 0 l 1,8,-1
 122 0 l 1,9,-1
 122 1173 l 1,0,-1
EndSplineSet
EndChar

StartChar: G
Encoding: 71 71 496
Width: 1274
Flags: W
LayerCount: 2
Fore
SplineSet
665 629 m 1,0,-1
 1174 629 l 1,1,-1
 1174 162 l 1,2,3
 1138 126 1138 126 1084.5 94.5 c 128,-1,4
 1031 63 1031 63 960 34 c 0,5,6
 819 -20 819 -20 674 -20 c 0,7,8
 582 -20 582 -20 501.5 -0.5 c 128,-1,9
 421 19 421 19 353.5 57 c 128,-1,10
 286 95 286 95 233.5 150.5 c 128,-1,11
 181 206 181 206 147 277 c 0,12,13
 113 350 113 350 95.5 427.5 c 128,-1,14
 78 505 78 505 78 590 c 0,15,16
 78 681 78 681 97.5 763.5 c 128,-1,17
 117 846 117 846 155 916 c 128,-1,18
 193 986 193 986 249.5 1041 c 128,-1,19
 306 1096 306 1096 380 1134 c 0,20,21
 493 1193 493 1193 660 1193 c 0,22,23
 770 1193 770 1193 855.5 1169.5 c 128,-1,24
 941 1146 941 1146 1003 1101.5 c 128,-1,25
 1065 1057 1065 1057 1104 993 c 128,-1,26
 1143 929 1143 929 1160 849 c 1,27,-1
 924 805 l 1,28,29
 899 890 899 890 831.5 940 c 128,-1,30
 764 990 764 990 660 990 c 0,31,32
 583 990 583 990 520.5 965 c 128,-1,33
 458 940 458 940 414 891 c 128,-1,34
 370 842 370 842 346 769 c 128,-1,35
 322 696 322 696 322 600 c 0,36,37
 322 496 322 496 346 417.5 c 128,-1,38
 370 339 370 339 414.5 286.5 c 128,-1,39
 459 234 459 234 521 208 c 128,-1,40
 583 182 583 182 658 182 c 0,41,42
 695 182 695 182 733 190 c 128,-1,43
 771 198 771 198 807 211.5 c 128,-1,44
 843 225 843 225 876 243.5 c 128,-1,45
 909 262 909 262 935 282 c 1,46,-1
 935 431 l 1,47,-1
 665 431 l 1,48,-1
 665 629 l 1,0,-1
EndSplineSet
EndChar

StartChar: H
Encoding: 72 72 497
Width: 1183
Flags: W
LayerCount: 2
Fore
SplineSet
120 1173 m 1,0,-1
 357 1173 l 1,1,-1
 357 711 l 1,2,-1
 821 711 l 1,3,-1
 821 1173 l 1,4,-1
 1058 1173 l 1,5,-1
 1058 0 l 1,6,-1
 821 0 l 1,7,-1
 821 513 l 1,8,-1
 357 513 l 1,9,-1
 357 0 l 1,10,-1
 120 0 l 1,11,-1
 120 1173 l 1,0,-1
EndSplineSet
EndChar

StartChar: I
Encoding: 73 73 498
Width: 455
Flags: W
LayerCount: 2
Fore
SplineSet
111 1173 m 1,0,-1
 349 1173 l 1,1,-1
 349 0 l 1,2,-1
 111 0 l 1,3,-1
 111 1173 l 1,0,-1
EndSplineSet
EndChar

StartChar: J
Encoding: 74 74 499
Width: 911
Flags: W
LayerCount: 2
Fore
SplineSet
778 1173 m 1,0,-1
 778 431 l 2,1,2
 778 283 778 283 752 206 c 0,3,4
 717 103 717 103 627 41.5 c 128,-1,5
 537 -20 537 -20 390 -20 c 0,6,7
 216 -20 216 -20 123 76.5 c 128,-1,8
 30 173 30 173 28 362 c 1,9,-1
 250 388 l 1,10,11
 256 288 256 288 280 246 c 0,12,13
 319 182 319 182 398 182 c 256,14,15
 477 182 477 182 510 228 c 0,16,17
 542 275 542 275 542 414 c 2,18,-1
 542 1173 l 1,19,-1
 778 1173 l 1,0,-1
EndSplineSet
EndChar

StartChar: K
Encoding: 75 75 500
Width: 1183
Flags: W
LayerCount: 2
Fore
SplineSet
123 1173 m 1,0,-1
 359 1173 l 1,1,-1
 359 652 l 1,2,-1
 838 1173 l 1,3,-1
 1157 1173 l 1,4,-1
 714 716 l 1,5,-1
 1180 0 l 1,6,-1
 874 0 l 1,7,-1
 550 550 l 1,8,-1
 359 354 l 1,9,-1
 359 0 l 1,10,-1
 123 0 l 1,11,-1
 123 1173 l 1,0,-1
EndSplineSet
EndChar

StartChar: L
Encoding: 76 76 501
Width: 1001
Flags: W
LayerCount: 2
Fore
SplineSet
126 1163 m 1,0,-1
 362 1163 l 1,1,-1
 362 198 l 1,2,-1
 952 198 l 1,3,-1
 952 0 l 1,4,-1
 126 0 l 1,5,-1
 126 1163 l 1,0,-1
EndSplineSet
EndChar

StartChar: M
Encoding: 77 77 502
Width: 1365
Flags: W
LayerCount: 2
Fore
SplineSet
116 1173 m 1,0,-1
 470 1173 l 1,1,-1
 683 374 l 1,2,-1
 893 1173 l 1,3,-1
 1249 1173 l 1,4,-1
 1249 0 l 1,5,-1
 1029 0 l 1,6,-1
 1029 922 l 1,7,-1
 796 0 l 1,8,-1
 569 0 l 1,9,-1
 336 922 l 1,10,-1
 336 0 l 1,11,-1
 116 0 l 1,12,-1
 116 1173 l 1,0,-1
EndSplineSet
EndChar

StartChar: N
Encoding: 78 78 503
Width: 1183
Flags: W
LayerCount: 2
Fore
SplineSet
122 1173 m 1,0,-1
 352 1173 l 1,1,-1
 832 390 l 1,2,-1
 832 1173 l 1,3,-1
 1052 1173 l 1,4,-1
 1052 0 l 1,5,-1
 814 0 l 1,6,-1
 341 765 l 1,7,-1
 341 0 l 1,8,-1
 122 0 l 1,9,-1
 122 1173 l 1,0,-1
EndSplineSet
EndChar

StartChar: O
Encoding: 79 79 504
Width: 1274
Flags: W
LayerCount: 2
Fore
SplineSet
70 580 m 0,0,1
 70 756 70 756 125 880 c 0,2,3
 165 970 165 970 233.5 1041 c 128,-1,4
 302 1112 302 1112 385 1147 c 0,5,6
 493 1193 493 1193 639 1193 c 0,7,8
 896 1193 896 1193 1054 1032 c 0,9,10
 1209 872 1209 872 1209 585 c 0,11,12
 1209 301 1209 301 1054 141 c 0,13,14
 898 -20 898 -20 642 -20 c 0,15,16
 379 -20 379 -20 225 139 c 0,17,18
 70 300 70 300 70 580 c 0,0,1
314 586 m 0,19,20
 314 486 314 486 337.5 411.5 c 128,-1,21
 361 337 361 337 406 285 c 0,22,23
 500 182 500 182 641 182 c 0,24,25
 712 182 712 182 771 207.5 c 128,-1,26
 830 233 830 233 873 284 c 128,-1,27
 916 335 916 335 939.5 411.5 c 128,-1,28
 963 488 963 488 963 590 c 0,29,30
 963 690 963 690 940 765.5 c 128,-1,31
 917 841 917 841 875 890.5 c 128,-1,32
 833 940 833 940 773.5 965 c 128,-1,33
 714 990 714 990 641 990 c 256,34,35
 568 990 568 990 507.5 965 c 128,-1,36
 447 940 447 940 404 889.5 c 128,-1,37
 361 839 361 839 337.5 763.5 c 128,-1,38
 314 688 314 688 314 586 c 0,19,20
EndSplineSet
EndChar

StartChar: P
Encoding: 80 80 505
Width: 1093
Flags: W
LayerCount: 2
Fore
SplineSet
120 1173 m 1,0,-1
 500 1173 l 2,1,2
 609 1173 609 1173 679 1168 c 128,-1,3
 749 1163 749 1163 782 1155 c 0,4,5
 831 1142 831 1142 874.5 1113 c 128,-1,6
 918 1084 918 1084 949.5 1040.5 c 128,-1,7
 981 997 981 997 999.5 939.5 c 128,-1,8
 1018 882 1018 882 1018 813 c 0,9,10
 1018 731 1018 731 995 669.5 c 128,-1,11
 972 608 972 608 934.5 564.5 c 128,-1,12
 897 521 897 521 850 495 c 128,-1,13
 803 469 803 469 755 458 c 0,14,15
 713 450 713 450 652.5 446 c 128,-1,16
 592 442 592 442 511 442 c 2,17,-1
 355 442 l 1,18,-1
 355 0 l 1,19,-1
 120 0 l 1,20,-1
 120 1173 l 1,0,-1
355 642 m 1,21,-1
 485 642 l 2,22,23
 555 642 555 642 602 647 c 128,-1,24
 649 652 649 652 672 660 c 0,25,26
 718 678 718 678 746 718 c 0,27,28
 759 738 759 738 766.5 761 c 128,-1,29
 774 784 774 784 774 810 c 0,30,31
 774 873 774 873 736.5 914 c 128,-1,32
 699 955 699 955 641 966 c 0,33,34
 620 970 620 970 577 972.5 c 128,-1,35
 534 975 534 975 470 975 c 2,36,-1
 355 975 l 1,37,-1
 355 642 l 1,21,-1
EndSplineSet
EndChar

StartChar: Q
Encoding: 81 81 506
Width: 1274
Flags: W
LayerCount: 2
Fore
SplineSet
1063 149 m 1,0,1
 1152 86 1152 86 1254 49 c 1,2,-1
 1165 -118 l 1,3,4
 1139 -109 1139 -109 1112.5 -98.5 c 128,-1,5
 1086 -88 1086 -88 1060 -74 c 0,6,7
 1055 -71 1055 -71 1016 -45.5 c 128,-1,8
 977 -20 977 -20 902 31 c 1,9,10
 788 -20 788 -20 649 -20 c 0,11,12
 377 -20 377 -20 223 139 c 0,13,14
 70 301 70 301 70 586 c 0,15,16
 70 872 70 872 225 1032 c 0,17,18
 381 1193 381 1193 642 1193 c 0,19,20
 902 1193 902 1193 1055 1032 c 0,21,22
 1207 874 1207 874 1207 586 c 0,23,24
 1207 436 1207 436 1165 319 c 0,25,26
 1149 275 1149 275 1124 232.5 c 128,-1,27
 1099 190 1099 190 1063 149 c 1,0,1
874 282 m 1,28,29
 963 389 963 389 963 586 c 0,30,31
 963 688 963 688 939.5 763.5 c 128,-1,32
 916 839 916 839 873.5 889.5 c 128,-1,33
 831 940 831 940 772 965 c 128,-1,34
 713 990 713 990 641 990 c 0,35,36
 568 990 568 990 507.5 964.5 c 128,-1,37
 447 939 447 939 404 888.5 c 128,-1,38
 361 838 361 838 337.5 762.5 c 128,-1,39
 314 687 314 687 314 586 c 0,40,41
 314 483 314 483 338 406 c 128,-1,42
 362 329 362 329 404.5 278 c 128,-1,43
 447 227 447 227 505.5 202 c 128,-1,44
 564 177 564 177 633 177 c 0,45,46
 685 177 685 177 729 194 c 1,47,48
 694 217 694 217 657.5 235 c 128,-1,49
 621 253 621 253 583 267 c 1,50,-1
 649 403 l 1,51,52
 708 382 708 382 764 352.5 c 128,-1,53
 820 323 820 323 874 282 c 1,28,29
EndSplineSet
EndChar

StartChar: R
Encoding: 82 82 507
Width: 1183
Flags: W
LayerCount: 2
Fore
SplineSet
120 1173 m 1,0,-1
 618 1173 l 2,1,2
 805 1173 805 1173 891 1140 c 0,3,4
 977 1109 977 1109 1027 1029 c 0,5,6
 1080 947 1080 947 1080 844 c 0,7,8
 1080 713 1080 713 1002 627 c 128,-1,9
 924 541 924 541 770 518 c 1,10,11
 846 473 846 473 896 419 c 0,12,13
 922 392 922 392 955 344.5 c 128,-1,14
 988 297 988 297 1030 230 c 2,15,-1
 1174 0 l 1,16,-1
 891 0 l 1,17,-1
 719 255 l 2,18,19
 673 324 673 324 642.5 366.5 c 128,-1,20
 612 409 612 409 594 428 c 0,21,22
 564 464 564 464 524 477 c 0,23,24
 506 483 506 483 475.5 486.5 c 128,-1,25
 445 490 445 490 405 490 c 2,26,-1
 357 490 l 1,27,-1
 357 0 l 1,28,-1
 120 0 l 1,29,-1
 120 1173 l 1,0,-1
533 677 m 2,30,31
 700 677 700 677 744 691 c 0,32,33
 786 708 786 708 811 741 c 0,34,35
 835 777 835 777 835 829 c 0,36,37
 835 889 835 889 803.5 924.5 c 128,-1,38
 772 960 772 960 714 970 c 0,39,40
 699 973 699 973 656.5 974 c 128,-1,41
 614 975 614 975 542 975 c 2,42,-1
 357 975 l 1,43,-1
 357 677 l 1,44,-1
 533 677 l 2,30,31
EndSplineSet
EndChar

StartChar: S
Encoding: 83 83 508
Width: 1093
Flags: W
LayerCount: 2
Fore
SplineSet
290 405 m 1,0,1
 310 287 310 287 373.5 232.5 c 128,-1,2
 437 178 437 178 546 178 c 0,3,4
 603 178 603 178 646 191 c 128,-1,5
 689 204 689 204 718.5 226.5 c 128,-1,6
 748 249 748 249 762.5 278.5 c 128,-1,7
 777 308 777 308 777 341 c 0,8,9
 777 382 777 382 752 411.5 c 128,-1,10
 727 441 727 441 667 462 c 0,11,12
 646 470 646 470 598.5 482 c 128,-1,13
 551 494 551 494 477 513 c 0,14,15
 287 559 287 559 210 629 c 0,16,17
 102 725 102 725 102 865 c 0,18,19
 101 934 101 934 130 995 c 128,-1,20
 159 1056 159 1056 214.5 1101 c 128,-1,21
 270 1146 270 1146 349.5 1171 c 128,-1,22
 429 1196 429 1196 530 1193 c 0,23,24
 640 1193 640 1193 723 1168 c 128,-1,25
 806 1143 806 1143 862 1096.5 c 128,-1,26
 918 1050 918 1050 947.5 984.5 c 128,-1,27
 977 919 977 919 980 838 c 1,28,-1
 742 827 l 1,29,30
 727 917 727 917 677 956.5 c 128,-1,31
 627 996 627 996 527 996 c 0,32,33
 423 996 423 996 366 955 c 0,34,35
 328 928 328 928 328 882 c 0,36,37
 328 838 328 838 364 811 c 0,38,39
 408 774 408 774 580 732 c 0,40,41
 668 712 668 712 731.5 691 c 128,-1,42
 795 670 795 670 835 647 c 0,43,44
 920 604 920 604 966.5 528.5 c 128,-1,45
 1013 453 1013 453 1013 341 c 0,46,47
 1013 291 1013 291 998.5 243 c 128,-1,48
 984 195 984 195 956.5 153 c 128,-1,49
 929 111 929 111 889 77.5 c 128,-1,50
 849 44 849 44 798 22 c 0,51,52
 747 1 747 1 684 -10.5 c 128,-1,53
 621 -22 621 -22 544 -22 c 0,54,55
 321 -22 321 -22 201.5 81.5 c 128,-1,56
 82 185 82 185 59 382 c 1,57,-1
 290 405 l 1,0,1
EndSplineSet
EndChar

StartChar: T
Encoding: 84 84 509
Width: 1001
Flags: W
LayerCount: 2
Fore
SplineSet
383 975 m 1,0,-1
 34 975 l 1,1,-1
 34 1173 l 1,2,-1
 966 1173 l 1,3,-1
 966 975 l 1,4,-1
 619 975 l 1,5,-1
 619 0 l 1,6,-1
 383 0 l 1,7,-1
 383 975 l 1,0,-1
EndSplineSet
EndChar

StartChar: U
Encoding: 85 85 510
Width: 1183
Flags: W
LayerCount: 2
Fore
SplineSet
354 1173 m 1,0,-1
 354 538 l 2,1,2
 354 463 354 463 356.5 413.5 c 128,-1,3
 359 364 359 364 364 341 c 0,4,5
 378 270 378 270 435 226 c 128,-1,6
 492 182 492 182 591 182 c 0,7,8
 642 182 642 182 680 193 c 128,-1,9
 718 204 718 204 744 223.5 c 128,-1,10
 770 243 770 243 785 269 c 128,-1,11
 800 295 800 295 805 325 c 0,12,13
 811 356 811 356 813.5 405 c 128,-1,14
 816 454 816 454 816 524 c 2,15,-1
 816 1173 l 1,16,-1
 1054 1173 l 1,17,-1
 1054 557 l 2,18,19
 1054 347 1054 347 1034 258 c 0,20,21
 1015 172 1015 172 962 110 c 0,22,23
 936 80 936 80 902.5 56 c 128,-1,24
 869 32 869 32 825 15 c 128,-1,25
 781 -2 781 -2 725 -11 c 128,-1,26
 669 -20 669 -20 600 -20 c 0,27,28
 514 -20 514 -20 451 -10 c 128,-1,29
 388 0 388 0 344 18 c 0,30,31
 259 56 259 56 206 120 c 0,32,33
 158 182 158 182 141 249 c 0,34,35
 118 352 118 352 118 547 c 2,36,-1
 118 1173 l 1,37,-1
 354 1173 l 1,0,-1
EndSplineSet
EndChar

StartChar: V
Encoding: 86 86 511
Width: 1093
Flags: W
LayerCount: 2
Fore
SplineSet
0 1173 m 1,0,-1
 255 1173 l 1,1,-1
 552 305 l 1,2,-1
 841 1173 l 1,3,-1
 1091 1173 l 1,4,-1
 672 0 l 1,5,-1
 418 0 l 1,6,-1
 0 1173 l 1,0,-1
EndSplineSet
EndChar

StartChar: W
Encoding: 87 87 512
Width: 1546
Flags: W
LayerCount: 2
Fore
SplineSet
5 1173 m 1,0,-1
 247 1173 l 1,1,-1
 424 367 l 1,2,-1
 639 1173 l 1,3,-1
 921 1173 l 1,4,-1
 1127 354 l 1,5,-1
 1306 1173 l 1,6,-1
 1545 1173 l 1,7,-1
 1260 0 l 1,8,-1
 1010 0 l 1,9,-1
 775 877 l 1,10,-1
 542 0 l 1,11,-1
 285 0 l 1,12,-1
 5 1173 l 1,0,-1
EndSplineSet
EndChar

StartChar: X
Encoding: 88 88 513
Width: 1093
Flags: W
LayerCount: 2
Fore
SplineSet
402 613 m 1,0,-1
 38 1173 l 1,1,-1
 314 1173 l 1,2,-1
 549 796 l 1,3,-1
 780 1173 l 1,4,-1
 1055 1173 l 1,5,-1
 690 603 l 1,6,-1
 1091 0 l 1,7,-1
 805 0 l 1,8,-1
 546 406 l 1,9,-1
 283 0 l 1,10,-1
 0 0 l 1,11,-1
 402 613 l 1,0,-1
EndSplineSet
EndChar

StartChar: Y
Encoding: 89 89 514
Width: 1093
Flags: W
LayerCount: 2
Fore
SplineSet
428 493 m 1,0,-1
 -2 1173 l 1,1,-1
 275 1173 l 1,2,-1
 550 710 l 1,3,-1
 821 1173 l 1,4,-1
 1094 1173 l 1,5,-1
 663 491 l 1,6,-1
 663 0 l 1,7,-1
 428 0 l 1,8,-1
 428 493 l 1,0,-1
EndSplineSet
EndChar

StartChar: Z
Encoding: 90 90 515
Width: 1001
Flags: W
LayerCount: 2
Fore
SplineSet
18 213 m 1,0,-1
 634 975 l 1,1,-1
 87 975 l 1,2,-1
 87 1173 l 1,3,-1
 946 1173 l 1,4,-1
 946 990 l 1,5,-1
 303 198 l 1,6,-1
 970 198 l 1,7,-1
 970 0 l 1,8,-1
 18 0 l 1,9,-1
 18 213 l 1,0,-1
EndSplineSet
EndChar

StartChar: a
Encoding: 97 97 516
Width: 911
Flags: W
LayerCount: 2
Fore
SplineSet
82 627 m 1,0,1
 99 688 99 688 127.5 733.5 c 128,-1,2
 156 779 156 779 200 809 c 128,-1,3
 244 839 244 839 305 853.5 c 128,-1,4
 366 868 366 868 449 868 c 0,5,6
 524 868 524 868 579.5 858.5 c 128,-1,7
 635 849 635 849 674 832.5 c 128,-1,8
 713 816 713 816 737.5 793 c 128,-1,9
 762 770 762 770 777 742 c 0,10,11
 808 689 808 689 808 542 c 2,12,-1
 805 278 l 2,13,14
 805 167 805 167 814 113 c 0,15,16
 826 59 826 59 855 0 c 1,17,-1
 634 0 l 1,18,19
 629 11 629 11 624 28 c 128,-1,20
 619 45 619 45 613 67 c 2,21,-1
 605 94 l 1,22,23
 545 35 545 35 480 7.5 c 128,-1,24
 415 -20 415 -20 341 -20 c 0,25,26
 275 -20 275 -20 223 -1 c 128,-1,27
 171 18 171 18 134.5 51.5 c 128,-1,28
 98 85 98 85 78.5 131.5 c 128,-1,29
 59 178 59 178 59 233 c 0,30,31
 59 306 59 306 93.5 361 c 128,-1,32
 128 416 128 416 189 446 c 0,33,34
 250 477 250 477 369 500 c 0,35,36
 448 514 448 514 502 528 c 128,-1,37
 556 542 556 542 586 554 c 1,38,-1
 586 577 l 2,39,40
 586 609 586 609 579 631.5 c 128,-1,41
 572 654 572 654 554.5 668.5 c 128,-1,42
 537 683 537 683 507.5 689.5 c 128,-1,43
 478 696 478 696 434 696 c 0,44,45
 374 696 374 696 340 672.5 c 128,-1,46
 306 649 306 649 285 590 c 1,47,-1
 82 627 l 1,0,1
586 408 m 1,48,49
 565 400 565 400 531 391.5 c 128,-1,50
 497 383 497 383 449 374 c 0,51,52
 357 355 357 355 328 334 c 0,53,54
 283 302 283 302 283 255 c 0,55,56
 283 231 283 231 292.5 210 c 128,-1,57
 302 189 302 189 318.5 173.5 c 128,-1,58
 335 158 335 158 358 148.5 c 128,-1,59
 381 139 381 139 408 139 c 0,60,61
 467 139 467 139 524 178 c 0,62,63
 566 211 566 211 578 254 c 0,64,65
 586 283 586 283 586 364 c 2,66,-1
 586 408 l 1,48,49
EndSplineSet
EndChar

StartChar: b
Encoding: 98 98 517
Width: 1001
Flags: W
LayerCount: 2
Fore
SplineSet
108 1173 m 1,0,-1
 333 1173 l 1,1,-1
 333 750 l 1,2,3
 438 868 438 868 580 868 c 0,4,5
 736 868 736 868 835 755 c 0,6,7
 937 644 937 644 937 434 c 0,8,9
 937 324 937 324 911 241 c 128,-1,10
 885 158 885 158 834 98 c 0,11,12
 730 -20 730 -20 582 -20 c 0,13,14
 509 -20 509 -20 439 17 c 128,-1,15
 369 54 369 54 316 125 c 1,16,-1
 316 0 l 1,17,-1
 108 0 l 1,18,-1
 108 1173 l 1,0,-1
331 444 m 0,19,20
 331 313 331 313 374 247 c 0,21,22
 430 159 430 159 527 159 c 0,23,24
 564 159 564 159 597 174.5 c 128,-1,25
 630 190 630 190 655 222 c 128,-1,26
 680 254 680 254 694 303.5 c 128,-1,27
 708 353 708 353 708 422 c 0,28,29
 708 495 708 495 694 547 c 128,-1,30
 680 599 680 599 655 632 c 128,-1,31
 630 665 630 665 595 680.5 c 128,-1,32
 560 696 560 696 519 696 c 0,33,34
 479 696 479 696 445 680.5 c 128,-1,35
 411 665 411 665 385.5 633.5 c 128,-1,36
 360 602 360 602 345.5 555 c 128,-1,37
 331 508 331 508 331 444 c 0,19,20
EndSplineSet
EndChar

StartChar: c
Encoding: 99 99 518
Width: 911
Flags: W
LayerCount: 2
Fore
SplineSet
638 558 m 1,0,1
 626 624 626 624 586 657.5 c 128,-1,2
 546 691 546 691 483 691 c 0,3,4
 441 691 441 691 407.5 677.5 c 128,-1,5
 374 664 374 664 350 634 c 128,-1,6
 326 604 326 604 313 556.5 c 128,-1,7
 300 509 300 509 300 441 c 0,8,9
 300 365 300 365 313.5 312 c 128,-1,10
 327 259 327 259 351 226 c 128,-1,11
 375 193 375 193 409.5 178.5 c 128,-1,12
 444 164 444 164 486 164 c 0,13,14
 551 164 551 164 591.5 200.5 c 128,-1,15
 632 237 632 237 649 326 c 1,16,-1
 870 288 l 1,17,18
 835 135 835 135 738 57.5 c 128,-1,19
 641 -20 641 -20 477 -20 c 0,20,21
 290 -20 290 -20 178 98 c 0,22,23
 69 216 69 216 69 424 c 0,24,25
 69 529 69 529 97.5 611.5 c 128,-1,26
 126 694 126 694 179 751 c 128,-1,27
 232 808 232 808 308.5 838 c 128,-1,28
 385 868 385 868 480 868 c 0,29,30
 636 868 636 868 727.5 802 c 128,-1,31
 819 736 819 736 858 598 c 1,32,-1
 638 558 l 1,0,1
EndSplineSet
EndChar

StartChar: d
Encoding: 100 100 519
Width: 1001
Flags: W
LayerCount: 2
Fore
SplineSet
688 0 m 1,0,-1
 688 125 l 1,1,2
 635 52 635 52 565 16 c 128,-1,3
 495 -20 495 -20 422 -20 c 0,4,5
 277 -20 277 -20 170 98 c 0,6,7
 119 158 119 158 93 239.5 c 128,-1,8
 67 321 67 321 67 428 c 0,9,10
 67 644 67 644 169 755 c 0,11,12
 270 868 270 868 426 868 c 0,13,14
 569 868 569 868 672 750 c 1,15,-1
 672 1173 l 1,16,-1
 896 1173 l 1,17,-1
 896 0 l 1,18,-1
 688 0 l 1,0,-1
297 444 m 0,19,20
 297 308 297 308 334 246 c 0,21,22
 389 159 389 159 486 159 c 0,23,24
 525 159 525 159 559 175.5 c 128,-1,25
 593 192 593 192 618.5 224.5 c 128,-1,26
 644 257 644 257 659 306 c 128,-1,27
 674 355 674 355 674 421 c 0,28,29
 674 495 674 495 660 547 c 128,-1,30
 646 599 646 599 620.5 632 c 128,-1,31
 595 665 595 665 560.5 680.5 c 128,-1,32
 526 696 526 696 485 696 c 0,33,34
 445 696 445 696 410.5 680.5 c 128,-1,35
 376 665 376 665 351 633.5 c 128,-1,36
 326 602 326 602 311.5 554.5 c 128,-1,37
 297 507 297 507 297 444 c 0,19,20
EndSplineSet
EndChar

StartChar: e
Encoding: 101 101 520
Width: 911
Flags: W
LayerCount: 2
Fore
SplineSet
834 233 m 1,0,1
 789 109 789 109 697.5 44.5 c 128,-1,2
 606 -20 606 -20 464 -20 c 0,3,4
 242 -20 242 -20 136 126 c 0,5,6
 53 240 53 240 53 418 c 0,7,8
 53 630 53 630 162 749 c 0,9,10
 272 868 272 868 442 868 c 0,11,12
 536 868 536 868 612 837 c 128,-1,13
 688 806 688 806 740.5 743 c 128,-1,14
 793 680 793 680 820.5 584.5 c 128,-1,15
 848 489 848 489 846 361 c 1,16,-1
 282 361 l 1,17,18
 283 311 283 311 297.5 271.5 c 128,-1,19
 312 232 312 232 336.5 205 c 128,-1,20
 361 178 361 178 394.5 163.5 c 128,-1,21
 428 149 428 149 467 149 c 0,22,23
 521 149 521 149 556 177.5 c 128,-1,24
 591 206 591 206 610 270 c 1,25,-1
 834 233 l 1,0,1
622 498 m 1,26,27
 620 546 620 546 607 583 c 128,-1,28
 594 620 594 620 571.5 645 c 128,-1,29
 549 670 549 670 519 683 c 128,-1,30
 489 696 489 696 455 696 c 0,31,32
 383 696 383 696 334 644 c 0,33,34
 310 617 310 617 297.5 580 c 128,-1,35
 285 543 285 543 286 498 c 1,36,-1
 622 498 l 1,26,27
EndSplineSet
EndChar

StartChar: f
Encoding: 102 102 521
Width: 546
Flags: W
LayerCount: 2
Fore
SplineSet
144 850 m 1,0,-1
 144 914 l 2,1,2
 144 968 144 968 149.5 1007 c 128,-1,3
 155 1046 155 1046 167 1074.5 c 128,-1,4
 179 1103 179 1103 199.5 1123 c 128,-1,5
 220 1143 220 1143 250 1160 c 0,6,7
 282 1177 282 1177 320 1185 c 128,-1,8
 358 1193 358 1193 406 1193 c 0,9,10
 503 1193 503 1193 593 1163 c 1,11,-1
 564 1008 l 1,12,13
 536 1014 536 1014 510.5 1017.5 c 128,-1,14
 485 1021 485 1021 460 1021 c 0,15,16
 411 1021 411 1021 390 997.5 c 128,-1,17
 369 974 369 974 369 910 c 2,18,-1
 369 850 l 1,19,-1
 538 850 l 1,20,-1
 538 674 l 1,21,-1
 369 674 l 1,22,-1
 369 0 l 1,23,-1
 144 0 l 1,24,-1
 144 674 l 1,25,-1
 20 674 l 1,26,-1
 20 850 l 1,27,-1
 144 850 l 1,0,-1
EndSplineSet
EndChar

StartChar: g
Encoding: 103 103 522
Width: 1001
Flags: W
LayerCount: 2
Fore
SplineSet
354 -87 m 1,0,1
 361 -132 361 -132 383 -149 c 0,2,3
 417 -172 417 -172 483 -172 c 0,4,5
 573 -172 573 -172 616 -146 c 0,6,7
 645 -128 645 -128 660 -90 c 0,8,9
 667 -76 667 -76 669.5 -50.5 c 128,-1,10
 672 -25 672 -25 672 13 c 2,11,-1
 672 138 l 1,12,13
 571 0 571 0 416 0 c 0,14,15
 245 0 245 0 146 144 c 0,16,17
 67 261 67 261 67 430 c 0,18,19
 67 644 67 644 170 755 c 0,20,21
 274 868 274 868 426 868 c 0,22,23
 584 868 584 868 685 730 c 1,24,-1
 685 850 l 1,25,-1
 896 850 l 1,26,-1
 896 87 l 2,27,28
 896 12 896 12 889.5 -43 c 128,-1,29
 883 -98 883 -98 871 -137.5 c 128,-1,30
 859 -177 859 -177 841.5 -205 c 128,-1,31
 824 -233 824 -233 801 -254 c 0,32,33
 756 -297 756 -297 682 -320.5 c 128,-1,34
 608 -344 608 -344 493 -344 c 0,35,36
 278 -344 278 -344 186 -270 c 0,37,38
 97 -197 97 -197 97 -83 c 2,39,-1
 97 -56 l 1,40,-1
 354 -87 l 1,0,1
298 442 m 0,41,42
 298 375 298 375 312 326 c 128,-1,43
 326 277 326 277 350.5 245 c 128,-1,44
 375 213 375 213 407.5 197.5 c 128,-1,45
 440 182 440 182 478 182 c 0,46,47
 520 182 520 182 556 198 c 128,-1,48
 592 214 592 214 618.5 246 c 128,-1,49
 645 278 645 278 660 326 c 128,-1,50
 675 374 675 374 675 438 c 0,51,52
 675 504 675 504 660.5 552.5 c 128,-1,53
 646 601 646 601 620.5 633 c 128,-1,54
 595 665 595 665 560 680.5 c 128,-1,55
 525 696 525 696 483 696 c 0,56,57
 443 696 443 696 409 680.5 c 128,-1,58
 375 665 375 665 350.5 633.5 c 128,-1,59
 326 602 326 602 312 554 c 128,-1,60
 298 506 298 506 298 442 c 0,41,42
EndSplineSet
EndChar

StartChar: h
Encoding: 104 104 523
Width: 1001
Flags: W
LayerCount: 2
Fore
SplineSet
341 742 m 1,0,1
 450 868 450 868 602 868 c 0,2,3
 680 868 680 868 742 839.5 c 128,-1,4
 804 811 804 811 835 765 c 0,5,6
 852 743 852 743 862 718.5 c 128,-1,7
 872 694 872 694 878 667 c 0,8,9
 890 611 890 611 890 498 c 2,10,-1
 890 0 l 1,11,-1
 665 0 l 1,12,-1
 665 449 l 2,13,14
 665 516 665 516 661.5 557.5 c 128,-1,15
 658 599 658 599 652 618 c 0,16,17
 641 652 641 652 608 675 c 0,18,19
 591 686 591 686 570.5 691 c 128,-1,20
 550 696 550 696 526 696 c 0,21,22
 483 693 483 693 448 680 c 128,-1,23
 413 667 413 667 388.5 637 c 128,-1,24
 364 607 364 607 351.5 556 c 128,-1,25
 339 505 339 505 341 426 c 2,26,-1
 341 0 l 1,27,-1
 116 0 l 1,28,-1
 116 1173 l 1,29,-1
 341 1173 l 1,30,-1
 341 742 l 1,0,1
EndSplineSet
EndChar

StartChar: i
Encoding: 105 105 524
Width: 455
Flags: W
LayerCount: 2
Fore
SplineSet
118 1173 m 1,0,-1
 342 1173 l 1,1,-1
 342 965 l 1,2,-1
 118 965 l 1,3,-1
 118 1173 l 1,0,-1
118 850 m 1,4,-1
 342 850 l 1,5,-1
 342 0 l 1,6,-1
 118 0 l 1,7,-1
 118 850 l 1,4,-1
EndSplineSet
EndChar

StartChar: j
Encoding: 106 106 525
Width: 455
Flags: W
LayerCount: 2
Fore
SplineSet
113 1173 m 1,0,-1
 338 1173 l 1,1,-1
 338 965 l 1,2,-1
 113 965 l 1,3,-1
 113 1173 l 1,0,-1
338 26 m 2,4,5
 338 -138 338 -138 316 -203 c 0,6,7
 294 -271 294 -271 234 -306 c 0,8,9
 173 -344 173 -344 80 -344 c 0,10,11
 15 -344 15 -344 -75 -321 c 1,12,-1
 -36 -130 l 1,13,14
 -3 -136 -3 -136 20 -136 c 0,15,16
 55 -136 55 -136 77 -121 c 128,-1,17
 99 -106 99 -106 105 -85 c 0,18,19
 113 -64 113 -64 113 39 c 2,20,-1
 113 850 l 1,21,-1
 338 850 l 1,22,-1
 338 26 l 2,4,5
EndSplineSet
EndChar

StartChar: k
Encoding: 107 107 526
Width: 911
Flags: W
LayerCount: 2
Fore
SplineSet
110 1173 m 1,0,-1
 334 1173 l 1,1,-1
 334 550 l 1,2,-1
 598 850 l 1,3,-1
 875 850 l 1,4,-1
 583 539 l 1,5,-1
 894 0 l 1,6,-1
 652 0 l 1,7,-1
 439 382 l 1,8,-1
 334 272 l 1,9,-1
 334 0 l 1,10,-1
 110 0 l 1,11,-1
 110 1173 l 1,0,-1
EndSplineSet
EndChar

StartChar: l
Encoding: 108 108 527
Width: 455
Flags: W
LayerCount: 2
Fore
SplineSet
118 1173 m 1,0,-1
 342 1173 l 1,1,-1
 342 0 l 1,2,-1
 118 0 l 1,3,-1
 118 1173 l 1,0,-1
EndSplineSet
EndChar

StartChar: m
Encoding: 109 109 528
Width: 1457
Flags: W
LayerCount: 2
Fore
SplineSet
308 850 m 1,0,-1
 308 734 l 1,1,2
 418 868 418 868 574 868 c 0,3,4
 654 868 654 868 714.5 835 c 128,-1,5
 775 802 775 802 813 734 c 1,6,7
 868 802 868 802 933 835 c 128,-1,8
 998 868 998 868 1071 868 c 0,9,10
 1165 868 1165 868 1230.5 831 c 128,-1,11
 1296 794 1296 794 1327 719 c 0,12,13
 1350 664 1350 664 1350 544 c 2,14,-1
 1350 0 l 1,15,-1
 1126 0 l 1,16,-1
 1126 485 l 2,17,18
 1126 611 1126 611 1102 649 c 0,19,20
 1072 696 1072 696 1006 696 c 0,21,22
 958 696 958 696 917.5 667.5 c 128,-1,23
 877 639 877 639 857 583 c 0,24,25
 849 555 849 555 844 511.5 c 128,-1,26
 839 468 839 468 839 408 c 2,27,-1
 839 0 l 1,28,-1
 614 0 l 1,29,-1
 614 466 l 2,30,31
 614 590 614 590 602 626 c 0,32,33
 588 663 588 663 566 678 c 0,34,35
 540 696 540 696 497 696 c 0,36,37
 443 696 443 696 403 668.5 c 128,-1,38
 363 641 363 641 344 588 c 0,39,40
 336 562 336 562 331 518 c 128,-1,41
 326 474 326 474 326 413 c 2,42,-1
 326 0 l 1,43,-1
 102 0 l 1,44,-1
 102 850 l 1,45,-1
 308 850 l 1,0,-1
EndSplineSet
EndChar

StartChar: n
Encoding: 110 110 529
Width: 1001
Flags: W
LayerCount: 2
Fore
SplineSet
665 0 m 1,0,-1
 665 434 l 2,1,2
 665 572 665 572 650 611 c 0,3,4
 644 632 644 632 632.5 647 c 128,-1,5
 621 662 621 662 605 674 c 0,6,7
 570 696 570 696 526 696 c 0,8,9
 468 696 468 696 422 664.5 c 128,-1,10
 376 633 376 633 357 580 c 0,11,12
 349 554 349 554 345 505.5 c 128,-1,13
 341 457 341 457 341 385 c 2,14,-1
 341 0 l 1,15,-1
 116 0 l 1,16,-1
 116 850 l 1,17,-1
 325 850 l 1,18,-1
 325 724 l 1,19,20
 433 868 433 868 605 868 c 0,21,22
 680 868 680 868 741.5 842 c 128,-1,23
 803 816 803 816 834 774 c 0,24,25
 849 753 849 753 860 730.5 c 128,-1,26
 871 708 871 708 877.5 679 c 128,-1,27
 884 650 884 650 887 613 c 128,-1,28
 890 576 890 576 890 527 c 2,29,-1
 890 0 l 1,30,-1
 665 0 l 1,0,-1
EndSplineSet
EndChar

StartChar: o
Encoding: 111 111 530
Width: 1001
Flags: W
LayerCount: 2
Fore
SplineSet
66 438 m 0,0,1
 66 493 66 493 79 546.5 c 128,-1,2
 92 600 92 600 120 654 c 0,3,4
 177 759 177 759 277 813 c 0,5,6
 377 868 377 868 503 868 c 0,7,8
 697 868 697 868 819 742 c 0,9,10
 942 616 942 616 942 428 c 0,11,12
 942 234 942 234 818 106 c 1,13,14
 690 -20 690 -20 505 -20 c 0,15,16
 388 -20 388 -20 282 33 c 0,17,18
 228 60 228 60 188.5 99 c 128,-1,19
 149 138 149 138 120 189 c 0,20,21
 92 239 92 239 79 301 c 128,-1,22
 66 363 66 363 66 438 c 0,0,1
297 424 m 256,23,24
 297 361 297 361 313 312.5 c 128,-1,25
 329 264 329 264 356.5 231 c 128,-1,26
 384 198 384 198 422 181 c 128,-1,27
 460 164 460 164 505 164 c 0,28,29
 548 164 548 164 586 181 c 128,-1,30
 624 198 624 198 651.5 231 c 128,-1,31
 679 264 679 264 695 313 c 128,-1,32
 711 362 711 362 711 426 c 0,33,34
 711 488 711 488 695 536 c 128,-1,35
 679 584 679 584 651.5 617 c 128,-1,36
 624 650 624 650 586 667.5 c 128,-1,37
 548 685 548 685 505 685 c 0,38,39
 460 685 460 685 422 668 c 128,-1,40
 384 651 384 651 356.5 618 c 128,-1,41
 329 585 329 585 313 536 c 128,-1,42
 297 487 297 487 297 424 c 256,23,24
EndSplineSet
EndChar

StartChar: p
Encoding: 112 112 531
Width: 1001
Flags: W
LayerCount: 2
Fore
SplineSet
321 850 m 1,0,-1
 321 724 l 1,1,2
 362 789 362 789 431.5 828.5 c 128,-1,3
 501 868 501 868 585 868 c 0,4,5
 734 868 734 868 838 752 c 0,6,7
 889 694 889 694 915 614.5 c 128,-1,8
 941 535 941 535 941 430 c 0,9,10
 941 216 941 216 835 98 c 0,11,12
 731 -20 731 -20 583 -20 c 0,13,14
 548 -20 548 -20 517 -13.5 c 128,-1,15
 486 -7 486 -7 456.5 8 c 128,-1,16
 427 23 427 23 397.5 46.5 c 128,-1,17
 368 70 368 70 336 105 c 1,18,-1
 336 -322 l 1,19,-1
 111 -322 l 1,20,-1
 111 850 l 1,21,-1
 321 850 l 1,0,-1
334 439 m 0,22,23
 334 368 334 368 349 315 c 128,-1,24
 364 262 364 262 390.5 227.5 c 128,-1,25
 417 193 417 193 452.5 176 c 128,-1,26
 488 159 488 159 530 159 c 0,27,28
 569 159 569 159 602 174.5 c 128,-1,29
 635 190 635 190 659.5 222.5 c 128,-1,30
 684 255 684 255 697.5 306 c 128,-1,31
 711 357 711 357 711 428 c 0,32,33
 711 495 711 495 696.5 544.5 c 128,-1,34
 682 594 682 594 657 626.5 c 128,-1,35
 632 659 632 659 598 675 c 128,-1,36
 564 691 564 691 524 691 c 0,37,38
 483 691 483 691 448 675 c 128,-1,39
 413 659 413 659 387.5 627.5 c 128,-1,40
 362 596 362 596 348 548.5 c 128,-1,41
 334 501 334 501 334 439 c 0,22,23
EndSplineSet
EndChar

StartChar: q
Encoding: 113 113 532
Width: 1001
Flags: W
LayerCount: 2
Fore
SplineSet
674 103 m 1,0,1
 629 48 629 48 564 14 c 128,-1,2
 499 -20 499 -20 421 -20 c 0,3,4
 277 -20 277 -20 183 90 c 0,5,6
 128 153 128 153 100 238.5 c 128,-1,7
 72 324 72 324 72 434 c 0,8,9
 72 639 72 639 175 754 c 0,10,11
 281 868 281 868 434 868 c 0,12,13
 519 868 519 868 580.5 832.5 c 128,-1,14
 642 797 642 797 690 724 c 1,15,-1
 690 850 l 1,16,-1
 898 850 l 1,17,-1
 898 -322 l 1,18,-1
 674 -322 l 1,19,-1
 674 103 l 1,0,1
680 436 m 0,20,21
 680 500 680 500 666 548.5 c 128,-1,22
 652 597 652 597 627 629 c 128,-1,23
 602 661 602 661 567.5 677 c 128,-1,24
 533 693 533 693 493 693 c 0,25,26
 452 693 452 693 417 677 c 128,-1,27
 382 661 382 661 356.5 628 c 128,-1,28
 331 595 331 595 317 544 c 128,-1,29
 303 493 303 493 303 422 c 256,30,31
 303 351 303 351 317 301.5 c 128,-1,32
 331 252 331 252 355.5 220 c 128,-1,33
 380 188 380 188 413 173.5 c 128,-1,34
 446 159 446 159 485 159 c 256,35,36
 524 159 524 159 559.5 176.5 c 128,-1,37
 595 194 595 194 622 228.5 c 128,-1,38
 649 263 649 263 664.5 315 c 128,-1,39
 680 367 680 367 680 436 c 0,20,21
EndSplineSet
EndChar

StartChar: r
Encoding: 114 114 533
Width: 638
Flags: W
LayerCount: 2
Fore
SplineSet
108 0 m 1,0,-1
 108 850 l 1,1,-1
 316 850 l 1,2,-1
 316 729 l 1,3,4
 343 771 343 771 366.5 798 c 128,-1,5
 390 825 390 825 413 840.5 c 128,-1,6
 436 856 436 856 460 862 c 128,-1,7
 484 868 484 868 511 868 c 0,8,9
 587 868 587 868 658 826 c 1,10,-1
 588 630 l 1,11,12
 532 667 532 667 483 667 c 0,13,14
 435 667 435 667 402.5 641 c 128,-1,15
 370 615 370 615 350 546 c 0,16,17
 333 478 333 478 333 262 c 2,18,-1
 333 0 l 1,19,-1
 108 0 l 1,0,-1
EndSplineSet
EndChar

StartChar: s
Encoding: 115 115 534
Width: 911
Flags: W
LayerCount: 2
Fore
SplineSet
264 277 m 1,0,1
 278 211 278 211 322.5 176.5 c 128,-1,2
 367 142 367 142 446 142 c 0,3,4
 530 142 530 142 577 175 c 0,5,6
 606 198 606 198 606 236 c 0,7,8
 606 262 606 262 590 277 c 0,9,10
 572 293 572 293 514 308 c 0,11,12
 242 367 242 367 170 416 c 0,13,14
 69 485 69 485 69 608 c 0,15,16
 69 663 69 663 90.5 710.5 c 128,-1,17
 112 758 112 758 156.5 793 c 128,-1,18
 201 828 201 828 268.5 848 c 128,-1,19
 336 868 336 868 428 868 c 0,20,21
 514 868 514 868 577.5 854 c 128,-1,22
 641 840 641 840 686 812 c 128,-1,23
 731 784 731 784 759.5 742 c 128,-1,24
 788 700 788 700 803 644 c 1,25,-1
 591 605 l 1,26,27
 578 654 578 654 539.5 681 c 128,-1,28
 501 708 501 708 431 708 c 0,29,30
 344 708 344 708 305 683 c 0,31,32
 291 675 291 675 284.5 663 c 128,-1,33
 278 651 278 651 278 638 c 0,34,35
 278 614 278 614 302 596 c 0,36,37
 316 585 316 585 367.5 569 c 128,-1,38
 419 553 419 553 510 533 c 0,39,40
 691 490 691 490 762 433 c 0,41,42
 832 376 832 376 832 266 c 0,43,44
 832 151 832 151 734 64 c 0,45,46
 638 -20 638 -20 446 -20 c 0,47,48
 272 -20 272 -20 170 50 c 128,-1,49
 68 120 68 120 38 242 c 1,50,-1
 264 277 l 1,0,1
EndSplineSet
EndChar

StartChar: t
Encoding: 116 116 535
Width: 546
Flags: W
LayerCount: 2
Fore
SplineSet
508 670 m 1,0,-1
 354 670 l 1,1,-1
 354 328 l 2,2,3
 354 224 354 224 357 206 c 0,4,5
 363 189 363 189 377 178 c 0,6,7
 385 172 385 172 395 169.5 c 128,-1,8
 405 167 405 167 416 167 c 0,9,10
 449 167 449 167 506 189 c 1,11,-1
 526 14 l 1,12,13
 446 -20 446 -20 347 -20 c 256,14,15
 248 -20 248 -20 197.5 23 c 128,-1,16
 147 66 147 66 136 141 c 0,17,18
 132 161 132 161 130 200 c 128,-1,19
 128 239 128 239 128 300 c 2,20,-1
 128 670 l 1,21,-1
 25 670 l 1,22,-1
 25 850 l 1,23,-1
 128 850 l 1,24,-1
 128 1019 l 1,25,-1
 354 1150 l 1,26,-1
 354 850 l 1,27,-1
 508 850 l 1,28,-1
 508 670 l 1,0,-1
EndSplineSet
EndChar

